<svg xmlns="http://www.w3.org/2000/svg" width="40" height="40"><defs><linearGradient id="a" x1="145" y1="391" x2="145" y2="351" gradientUnits="userSpaceOnUse"><stop offset="0" stop-color="#b69c59"/><stop offset=".522" stop-color="#fcf2c2"/><stop offset="1" stop-color="#c29b5c"/></linearGradient></defs><path d="M145 351a20 20 0 1020 20 20 20 0 00-20-20zm-.032 38.532a18.5 18.5 0 1118.5-18.5 18.5 18.5 0 01-18.5 18.5zm-.5-19.892a6.9 6.9 0 01-2.959-.144 5.048 5.048 0 01-2.969-2.431 5.958 5.958 0 01-.593-4.709 4.74 4.74 0 013.514-3.386 7.14 7.14 0 012.451-.143 2.8 2.8 0 01.631.106.644.644 0 01.453.6.536.536 0 01-.358.55.813.813 0 01-.427.018 5.062 5.062 0 00-2.75.165 3.482 3.482 0 00-2.471 3.044 4.774 4.774 0 001.114 3.834 3.919 3.919 0 003.387 1.361 7.282 7.282 0 002.013-.435 5.813 5.813 0 01.594-.181.59.59 0 01.663.326.608.608 0 01-.226.743 4.442 4.442 0 01-.481.246.452.452 0 00-.312.386 8.086 8.086 0 00.046 1.275 1.081 1.081 0 00.76.837 4.616 4.616 0 001.665.182 7.257 7.257 0 001.907-.442c.734-.2 1.469-.4 2.213-.556a2.823 2.823 0 011.468.089 1.96 1.96 0 011.327 1.745 9.752 9.752 0 01-.186 2.416c-.009.044-.012.09-.026.191a1.2 1.2 0 00.118-.166 6.067 6.067 0 00.478-3.815 3.54 3.54 0 00-2.113-2.421 5.62 5.62 0 00-4.009-.261c-.084.022-.167.049-.252.067a.53.53 0 01-.643-.279.477.477 0 01.055-.611c.117-.154.253-.293.382-.439a2.984 2.984 0 00.584-3.264 2.44 2.44 0 00-2.159-1.478c-.628.031-1.256.052-1.884.085a.507.507 0 01-.571-.416.429.429 0 01.22-.578 3.719 3.719 0 01.924-.3 5 5 0 011.857.027 3.72 3.72 0 013.049 3.925 10.427 10.427 0 01-.249 1.5c-.031.157-.009.221.153.237.446.043.894.074 1.336.146a6.178 6.178 0 012.555 1 4.685 4.685 0 012.088 3.628 7.783 7.783 0 01-.587 3.532 2.2 2.2 0 01-.649.9 1.385 1.385 0 01-1.1.347 1.023 1.023 0 01-.892-1.242 80.64 80.64 0 00.3-2.021 3.5 3.5 0 000-.542.786.786 0 00-.78-.821 4.916 4.916 0 00-1.227.145c-.945.24-1.875.539-2.819.786a4.51 4.51 0 01-2.915-.143 2.443 2.443 0 01-1.656-2.335c-.01-.29-.032-.584-.047-.88zm8.636 8.373v3.694h-17.506a.26.26 0 01-.3-.172 4.872 4.872 0 01-.272-.871 5.862 5.862 0 01.044-1.878 1.292 1.292 0 01.1-.344.546.546 0 01.644-.436q8.5.009 17.009 0h.277zm1.867.022h1.421a.443.443 0 01.434.3 3.217 3.217 0 01.192.69 5.818 5.818 0 01-.051 1.974 1.819 1.819 0 01-.089.286.585.585 0 01-.595.415h-1.312v-3.667z" transform="translate(-125 -351)" fill-rule="evenodd" fill="url(#a)"/></svg>