<svg xmlns="http://www.w3.org/2000/svg" width="40" height="40"><defs><linearGradient id="a" x1="272" y1="624" x2="272" y2="584" gradientUnits="userSpaceOnUse"><stop offset="0" stop-color="#b69c59"/><stop offset=".522" stop-color="#fcf2c2"/><stop offset="1" stop-color="#c29b5c"/></linearGradient></defs><path d="M272 584a20 20 0 1020 20 20 20 0 00-20-20zm-.032 38.532a18.5 18.5 0 1118.5-18.5 18.5 18.5 0 01-18.5 18.5zm-6.474-12.222a.694.694 0 01-.642.473h-1.682a.658.658 0 01-.642-.473l-3.948-12.562h1.72l3.079 10.334c.132.471.265.944.378 1.417h.51c.113-.473.245-.964.4-1.437l3.06-10.314h1.719zm5.912.473v-13.035h1.662v13.035h-1.662zm4.95-13.035a37.419 37.419 0 014.477-.17c3.136 0 4.194.887 4.194 4.081 0 3.211-1.058 4.08-4 4.08a26.839 26.839 0 01-3-.17v5.214h-1.662v-13.035zm4.458 6.555c1.89-.019 2.532-.547 2.532-2.644s-.642-2.646-2.532-2.646c-1.1 0-2.059 0-2.8.02v5.27h2.8z" transform="translate(-252 -584)" fill-rule="evenodd" fill="url(#a)"/></svg>