<svg xmlns="http://www.w3.org/2000/svg" width="40" height="40"><defs><linearGradient id="a" x1="268" y1="396" x2="268" y2="356" gradientUnits="userSpaceOnUse"><stop offset="0" stop-color="#b69c59"/><stop offset=".522" stop-color="#fcf2c2"/><stop offset="1" stop-color="#c29b5c"/></linearGradient></defs><path d="M268 356a20 20 0 1020 20 20 20 0 00-20-20zm-.032 38.532a18.5 18.5 0 1118.5-18.5 18.5 18.5 0 01-18.5 18.5zm2.229-15.7a3.939 3.939 0 00.59.425 1.806 1.806 0 00.557.091 6.586 6.586 0 012.939.936 3.119 3.119 0 011.27 1.606 2.257 2.257 0 01-.585 2.383A6.819 6.819 0 01272.2 386a9.232 9.232 0 01-3.909.44 15.554 15.554 0 01-4.087-.861 4.061 4.061 0 01-2.47-2.051c-.1-.2-.166-.406-.253-.623a1.554 1.554 0 00-.645.659 1.88 1.88 0 01-1.082 1 .416.416 0 00-.22.269.937.937 0 01-1.022.94c-.1.214-.179.436-.3.638a.553.553 0 01-.554.3.618.618 0 01-.544-.395.55.55 0 01.241-.733.814.814 0 00.416-.631 1.363 1.363 0 01.876-.959.6.6 0 00.259-.25 2.183 2.183 0 01.9-1.069 2.714 2.714 0 01.579-.146.522.522 0 00.156-.07c.253-.171.507-.341.753-.52a.346.346 0 00.14-.188 3.566 3.566 0 012.226-2.713 14.79 14.79 0 011.681-.588.21.21 0 00.2-.244c-.012-.189 0-.38 0-.569-.075-.029-.14-.049-.2-.077a.433.433 0 01-.319-.488.41.41 0 000-.16 1.052 1.052 0 01.511-1.131.391.391 0 00.153-.326c.018-.3.069-.6.111-.939-.317-.18-.678-.392-1.046-.59a.264.264 0 01-.165-.287c.024-.281.031-.564.047-.881.365 0 .729-.006 1.092.007a.265.265 0 01.132.159c.16.4.313.794.468 1.192l.075.016a2.239 2.239 0 00.142-.506c.02-.457.013-.916 0-1.375a.384.384 0 00-.126-.258 1.976 1.976 0 01-.874-1.7.624.624 0 00-.467-.654 2.644 2.644 0 01-1.181-.8 3.625 3.625 0 01-.3-.584c.225-.018.375-.043.523-.039.573.015 1.147.024 1.718.067a.314.314 0 00.4-.271 1.537 1.537 0 01.091-.234 1.131 1.131 0 01-.354-1.848c-.239-.274-.5-.535-.713-.828a3.913 3.913 0 01-.385-.72.282.282 0 01.2-.413 3.279 3.279 0 01.666-.153 13.792 13.792 0 013.019-.053 6.007 6.007 0 011.087.25.356.356 0 01.228.576 3.367 3.367 0 01-.475.666c-.186.21-.409.387-.633.594a1.313 1.313 0 01-.372 1.945.767.767 0 00.781.472 14.076 14.076 0 011.6.08 4.1 4.1 0 01.5.1 4.3 4.3 0 01-.513.611 5.35 5.35 0 01-.893.59 1.163 1.163 0 00-.7.973 1.751 1.751 0 01-.9 1.433.244.244 0 00-.1.178c-.007.519-.023 1.04.009 1.558a1.237 1.237 0 00.305.43 20.981 20.981 0 001.592-2.543l.453.412c.722-.832 1.429-1.672 2.165-2.486a7.718 7.718 0 012.746-2.1 3.487 3.487 0 012.457-.21 2.269 2.269 0 011.46 1.616 5.524 5.524 0 01.13 2.361 9.309 9.309 0 01-1.821 4.583 6.827 6.827 0 01-5.207 2.853c-.816.062-1.633.087-2.458.127zm-.8-.823c1.022 0 2.031.035 3.036-.009a5.455 5.455 0 002.8-.828 7.9 7.9 0 003.69-6.663 3.381 3.381 0 00-.236-1.5 1.482 1.482 0 00-1.32-.947 2.835 2.835 0 00-1.213.18 6.382 6.382 0 00-2.494 1.776c-.8.854-1.554 1.742-2.33 2.618l.177.207-2.409 1.637c.031.364.068.688.081 1.013a.368.368 0 00.164.341.934.934 0 01.444.738 5.657 5.657 0 010 .664.292.292 0 01-.134.2c-.297.169-.3.164-.253.572zm2.2 2.29c.045.117.079.2.11.284a2 2 0 01-.936 2.567 3.864 3.864 0 01-.908.366 9.661 9.661 0 01-4.4.086 2.643 2.643 0 01-2.267-1.672c-.149.068-.287.129-.424.194-.657.315-.669.37-.354 1.03a3.077 3.077 0 001.564 1.414 11.732 11.732 0 005.868 1.138 6.661 6.661 0 003-.817 4.5 4.5 0 001.812-1.735 1.21 1.21 0 000-1.287 3.658 3.658 0 00-3.062-1.567zm-9.352 1.166c.3-.127.545-.228.787-.337a.237.237 0 00.127-.115c.1-.3.2-.613.3-.935a2.785 2.785 0 00-1.207 1.386z" transform="translate(-248 -356)" fill-rule="evenodd" fill="url(#a)"/></svg>