<svg xmlns="http://www.w3.org/2000/svg" width="40" height="40"><defs><linearGradient id="a" x1="163" y1="710" x2="163" y2="670" gradientUnits="userSpaceOnUse"><stop offset="0" stop-color="#b69c59"/><stop offset=".522" stop-color="#fcf2c2"/><stop offset="1" stop-color="#c29b5c"/></linearGradient></defs><path d="M163 670a20 20 0 1020 20 20 20 0 00-20-20zm-.032 38.532a18.5 18.5 0 1118.5-18.5 18.5 18.5 0 01-18.5 18.5zm-9.95-22.124h20.1v6.328a1.871 1.871 0 01-1.98 1.887H155a1.869 1.869 0 01-1.983-1.9v-6.319zm11 1.374h-7.641v.892h7.641v-.892zm9.083-3.668h-20.062a.091.091 0 01-.017-.027c.006-.532-.03-1.068.028-1.6a1.832 1.832 0 011.832-1.568c.744-.013 1.488 0 2.232 0h14.007A1.889 1.889 0 01172.94 682a1.382 1.382 0 01.154.546c.021.515.006 1.035.006 1.568zm1 5.652l.128.68.767 4.12a1.839 1.839 0 01-1.576 2.165l-8.018 1.361-7.939 1.346a1.907 1.907 0 01-2.252-1.494c-.147-.765-.285-1.532-.427-2.3-.006-.032-.006-.065-.011-.11h11.886c1.533 0 3.066.01 4.6-.006a2.787 2.787 0 002.811-2.658c.022-.98 0-1.962 0-2.943v-.161z" transform="translate(-143 -670)" fill-rule="evenodd" fill="url(#a)"/></svg>