<svg xmlns="http://www.w3.org/2000/svg" width="40" height="40"><defs><linearGradient id="a" x1="162" y1="141" x2="162" y2="101" gradientUnits="userSpaceOnUse"><stop offset="0" stop-color="#b69c59"/><stop offset=".522" stop-color="#fcf2c2"/><stop offset="1" stop-color="#c29b5c"/></linearGradient></defs><path d="M162 101a20 20 0 1020 20 20 20 0 00-20-20zm-.032 38.532a18.5 18.5 0 1118.5-18.5 18.5 18.5 0 01-18.5 18.5zm4.7-29.459c.586.59 1.163 1.163 1.728 1.748a.377.377 0 00.433.112 6.426 6.426 0 018.119 5.235 6.234 6.234 0 01-.231 2.9c-.018.055-.042.107-.076.192a2.816 2.816 0 00-1.505-.928c.029-.493.1-.964.079-1.431a4.644 4.644 0 00-9.224-.534 4.455 4.455 0 001.7 4.4 4.537 4.537 0 004.63.677.286.286 0 00.224-.339 1.961 1.961 0 112 1.9 2.166 2.166 0 01-.682-.107.589.589 0 00-.486.027 6.431 6.431 0 01-9.187-4.981 6.224 6.224 0 01.2-2.589.337.337 0 00-.1-.39c-.59-.571-1.172-1.152-1.808-1.781zm-.012 3.712a1.026 1.026 0 00-.116-.271 15.71 15.71 0 00-.805-.807.412.412 0 00-.571.585 7.325 7.325 0 00.794.782.537.537 0 00.451.025.848.848 0 00.251-.314zM152 129.084a3.091 3.091 0 00-.445 1.815c-.437-.289-.841-.517-1.2-.8a6.433 6.433 0 01.786-10.635.471.471 0 00.287-.479c-.016-.788-.006-1.577-.006-2.388h5.838c0 .074.009.153.01.233 0 .748.007 1.5 0 2.243a.345.345 0 00.2.348 6.347 6.347 0 013.222 4.534 6.436 6.436 0 01-4.261 7.184.469.469 0 00-.311.28 1.944 1.944 0 01-2.082 1.118 1.982 1.982 0 01-1.636-1.628 1.962 1.962 0 011.069-2.067 1.931 1.931 0 012.286.406.314.314 0 00.424.084 4.665 4.665 0 10-4.545-.5c.11.082.227.16.364.252zm2.768-10.734c0-.165.01-.331 0-.5a.426.426 0 00-.433-.421.421.421 0 00-.4.448v.944a.406.406 0 00.39.452.421.421 0 00.448-.43c0-.161-.009-.327-.009-.493zm.163-2.412a.88.88 0 01-.872-.895.882.882 0 011.763.018.884.884 0 01-.895.877zm6.573-5a.885.885 0 11-1.77.014.885.885 0 011.766-.014zm2.379.129a.881.881 0 01-1.761.033.881.881 0 011.757-.033zm-5.627 1.284a.879.879 0 11.878-.885.873.873 0 01-.882.885zm-1.936-.176a.88.88 0 01.012 1.76.891.891 0 01-.9-.876.88.88 0 01.884-.884z" transform="translate(-142 -101)" fill-rule="evenodd" fill="url(#a)"/></svg>