<svg xmlns="http://www.w3.org/2000/svg" width="159.438" height="83"><defs><filter id="a" x="73.563" y="39" width="159.438" height="83" filterUnits="userSpaceOnUse"><feOffset result="offset" dx=".5" dy=".866" in="SourceAlpha"/><feGaussianBlur result="blur" stdDeviation="1"/><feFlood result="flood" flood-color="#000001" flood-opacity=".2"/><feComposite result="composite" operator="in" in2="blur"/><feBlend result="blend" in="SourceGraphic"/></filter></defs><path d="M110.524 39l23.5 23.2V39.52h7.7V80.5l-.313.219-23.528-23.324v22.634h-7.668V39.2zm63.548 79.294h-5.906v-1.55c0-4.5.044-9-.018-13.5-.058-4.127-2.9-6.427-6.635-5.441a5.037 5.037 0 00-3.761 4.286 15.71 15.71 0 00-.221 2.935c-.023 4.392-.01 8.783-.01 13.248h-5.79v-25.4h5.751v3.711c2.312-2.768 4.772-4.42 8.062-4.346a7.994 7.994 0 017.392 4.449 11.3 11.3 0 017.447-4.384c5.371-.7 9.707 2.384 9.992 7.771.318 6.015.073 12.06.073 18.183h-5.722v-1.464c0-4.171.011-8.342-.009-12.513a14.856 14.856 0 00-.2-2.373 4.723 4.723 0 00-4.6-4.315 5.077 5.077 0 00-5.408 3.6 10.9 10.9 0 00-.412 3.04c-.049 4.633-.025 9.269-.025 14.06zm55.39-78.846c-.414.746-.678 1.227-.947 1.706q-6.274 11.205-12.536 22.418a1.764 1.764 0 01-1.841 1.111c-1.871-.088-3.751.01-5.625-.054a1.685 1.685 0 01-1.244-.588c-4.607-8.087-9.168-16.2-13.9-24.593a44.9 44.9 0 005.471-.042c2.583-.329 4 .576 5.14 2.985 2.225 4.681 4.864 9.165 7.413 13.882.325-.554.589-.976.827-1.412 2.595-4.766 5.2-9.524 7.76-14.311a1.769 1.769 0 011.841-1.126c2.431.069 4.864.021 7.641.021zm-4.906 68.177H205.6c.418 2.638 1.553 4.648 3.9 5.716 3.928 1.788 7.284.455 10.389-2.225l3.409 3.011a12.628 12.628 0 01-8.771 4.735c-5.971.627-11.127-2.093-13.523-7.068a14.365 14.365 0 012.584-16.029c3.623-3.608 8.035-4.334 12.741-2.877s6.919 5.2 7.824 9.781a42.5 42.5 0 01.403 4.953zm-6.085-3.938a6.407 6.407 0 00-6.353-6.629 6.6 6.6 0 00-6.379 6.629h12.732zm-31.457-64.242l-14.691 40.594h-7.945c.905-2.626 1.768-5.136 2.635-7.645 3.648-10.565 7.313-21.126 10.922-31.7a1.542 1.542 0 011.781-1.267c2.338.066 4.684.018 7.298.018zm-37.365 0c2.857 0 5.385-.028 7.912.034a1.33 1.33 0 01.958.739c2.08 5.9 4.114 11.825 6.145 17.747a1.379 1.379 0 01.075.818c-1.264 3.7-2.554 7.394-3.973 11.475zm-76.1 7.334v-7.233h26.936v7.236H73.552zm26.895 9.448v7.161H73.575V56.23h26.872zM73.55 79.994v-7.131h26.928v7.131H73.55zm141.7-8.528v8.591h-7.574v-8.591h7.574z" transform="translate(-73.563 -39)" fill="#fff" fill-rule="evenodd" filter="url(#a)"/></svg>