<svg xmlns="http://www.w3.org/2000/svg" width="17" height="17"><path d="M8.957 0c.209.02.419.04.627.07a8.234 8.234 0 013.352 1.22c.194.12.38.26.569.39a.582.582 0 01.082.06l-1.392 1.39A6.739 6.739 0 009.154 2v.6a.681.681 0 01-.112.39.661.661 0 01-.725.26.648.648 0 01-.47-.61V2a6.55 6.55 0 00-5.848 5.84h.116c.169 0 .339 0 .508.01a.65.65 0 110 1.3c-.169.01-.338 0-.508 0h-.1a6.509 6.509 0 005.829 5.84v-.42a1.783 1.783 0 01.038-.41.632.632 0 01.7-.44.652.652 0 01.568.63v.64a6.519 6.519 0 005.839-5.83c-.026 0-.053-.01-.08-.01h-.537a.653.653 0 01-.676-.65.67.67 0 01.669-.66h.649c-.061-.34-.109-.67-.179-1a4.756 4.756 0 00-.419-1.16.115.115 0 010-.1c.457-.46.918-.92 1.392-1.4.086.16.17.31.244.46a8.464 8.464 0 01-1.218 9.53 8.21 8.21 0 01-5.037 2.73A8.489 8.489 0 01.015 8.8a.488.488 0 00-.021-.09v-.43a.615.615 0 00.021-.11 8.46 8.46 0 01.2-1.55 8.374 8.374 0 013.51-5.16 8.254 8.254 0 013.8-1.41c.174-.02.349-.03.524-.05h.9zm-.509 8.28c.22-.23.435-.45.653-.67q3.021-3.015 6.04-6.04a.772.772 0 01.6-.27.624.624 0 01.582.41.615.615 0 01-.143.7l-1.5 1.5-5.607 5.61a.8.8 0 01-.444.28.638.638 0 01-.547-.14 262.97 262.97 0 00-1.939-1.55c-.442-.36-.884-.71-1.324-1.06a.655.655 0 01.652-1.12 1.1 1.1 0 01.233.15l2.653 2.13a.93.93 0 00.091.07z" fill="#fff" fill-rule="evenodd"/></svg>