<svg xmlns="http://www.w3.org/2000/svg" width="40" height="40"><defs><linearGradient id="a" x1="150" y1="318" x2="150" y2="278" gradientUnits="userSpaceOnUse"><stop offset="0" stop-color="#b69c59"/><stop offset=".522" stop-color="#fcf2c2"/><stop offset="1" stop-color="#c29b5c"/></linearGradient></defs><path d="M150 278a20 20 0 1020 20 20 20 0 00-20-20zm-.032 38.532a18.5 18.5 0 1118.5-18.5 18.5 18.5 0 01-18.5 18.5zm-9.646-11.132a2.266 2.266 0 01-.662 1.448 1.429 1.429 0 00-.054-.927c-.289.519-.811.926-.487 1.619a.759.759 0 01-.053.758 8.022 8.022 0 00-.271-.875 7.557 7.557 0 00-.432-.762l-.095.031c.066.313.127.628.2.941s.185.637.235.962a.972.972 0 01-.759 1.108.514.514 0 01-.285-.054.621.621 0 00.333-.967c-.147-.275-.356-.517-.516-.787a2.488 2.488 0 01-.277-.608.9.9 0 01.319-.816 2.085 2.085 0 00.571-1.427 3.167 3.167 0 00-.245-.851c-.139-.4-.3-.785-.442-1.178a.716.716 0 01.046-.631 1.718 1.718 0 00-.041-1.6c-.054-.13-.13-.2-.28-.109a1.163 1.163 0 01-.277.072 3.276 3.276 0 00.221-.729c.025-.479-.014-.961-.018-1.442a10.969 10.969 0 01.022-1.133 1.065 1.065 0 01.219-.476 1.063 1.063 0 00.178-.83 1.82 1.82 0 01.387-1.453 1.769 1.769 0 00.37-.928 6.51 6.51 0 011.2-3.2 4.4 4.4 0 011.847-1.481 1.78 1.78 0 01.736-.084 6.727 6.727 0 011.272.1 1.19 1.19 0 01.678.416c.46.653.965 1.266 1.466 1.886a2.27 2.27 0 01.375 2.242 1.335 1.335 0 01-.524.7l-.063-.447-.064-.013c-.169.442-.34.883-.5 1.326-.066.178.025.227.193.226a3.531 3.531 0 002.16-.807c.676-.522 1.31-1.1 2-1.609.772-.57 1.583-1.086 2.376-1.629a7.951 7.951 0 00.665-.484 1.193 1.193 0 011.151-.252 1.663 1.663 0 001.625-.357 2.012 2.012 0 011.076-.519l-.179.287a1.222 1.222 0 001.089-.542c.371-.769.726-1.548 1.142-2.294a3.244 3.244 0 01.729-.79 9.816 9.816 0 01.88-.643.7.7 0 00.306-.62 3.632 3.632 0 01.074-.744 1.1 1.1 0 01.234-.332.942.942 0 01.262.313c.092.416.144.841.208 1.263.015.095.019.192.033.288a1.451 1.451 0 01-.476 1.307c-.171.17-.315.367-.476.548a.425.425 0 00-.113.506.609.609 0 00.579.271c.182-.037.362-.086.545-.108a1.061 1.061 0 01.286.043l.009.074a1 1 0 01-.228.148 2.63 2.63 0 00-1.259.944.454.454 0 01-.676.213c-.131-.039-.259-.089-.388-.137-.338-.127-.466-.079-.549.271-.17.72-.33 1.443-.474 2.169-.184.925-.307 1.863-.532 2.777a4.664 4.664 0 01-1.623 2.413.742.742 0 01-.236.168 1.507 1.507 0 00-.865 1.4 2.356 2.356 0 00.263 1.4 47.092 47.092 0 011.364 6.332c.127.687.37 1.352.565 2.026.092.318.185.637.3.948a3.3 3.3 0 01.1 1.555c-.007.056-.012.112-.021.167a.733.733 0 00.565.957.5.5 0 01.266.159.539.539 0 01.147.364.412.412 0 01-.3.249 7.247 7.247 0 01-1.343-.123.805.805 0 01-.573-.74 6.869 6.869 0 00-.13-.761 2.309 2.309 0 00-.266-.53.563.563 0 00-.188-.123.824.824 0 00-.089.256c.006.379.032.757.042 1.136a1.216 1.216 0 01-.051.261l-.094.006a2.078 2.078 0 01-.094-.464 3.677 3.677 0 00-.6-2.133.625.625 0 01.052-.8 2.042 2.042 0 01.333-.381.672.672 0 00.232-.807 8.074 8.074 0 00-1.216-2.725 9.18 9.18 0 01-1.34-2.263c-.089-.266-.144-.544-.214-.816l-.069-.273-.086-.008a7.813 7.813 0 00-.161.848 14.117 14.117 0 01-1.038 4.212 12.748 12.748 0 01-.757 1.377c-.281.5-.586.986-.847 1.5a2.764 2.764 0 01-2.156 1.538 5.573 5.573 0 01-2.165-.03 2.8 2.8 0 01-2.057-1.738c-.332-.841-.578-1.721-.976-2.527a9.994 9.994 0 00-1.136-1.527.447.447 0 00-.14-.085zm11.321-7.844l-.035-.05c-.407.118-.809.262-1.223.347-.6.122-1.2.22-1.81.294a28.14 28.14 0 01-2.186.205c-.455.02-.915-.059-1.372-.085a.749.749 0 00-.215.055.521.521 0 00.095.193 1.926 1.926 0 01.785 1.332 1.552 1.552 0 01-1.019 1.608c-.17.044-.225.09-.115.257a.855.855 0 01.091.762c-.093.306-.125.631-.212.94a.419.419 0 00.251.5c.46.336.906.694 1.344 1.058.121.1.2.119.3 0a3.125 3.125 0 00.349-.4c.633-1.039 1.3-2.062 1.871-3.133a12.084 12.084 0 012.42-3.147c.245-.228.456-.492.681-.74zm-3.418-1.593c0 .027.008.055.011.082a1.7 1.7 0 00.191.062 9.828 9.828 0 002.553.016 8.859 8.859 0 011.465-.1.912.912 0 00.945-.411c.065-.092.143-.175.205-.269.53-.809 1.061-1.617 1.578-2.434a.316.316 0 00-.016-.294.952.952 0 00-.788-.342 3.282 3.282 0 01-1.446-.342.34.34 0 00-.466.09c-.443.5-.9.985-1.336 1.494a11.709 11.709 0 01-2.51 2.218c-.125.082-.257.151-.386.226zm7.342-3.826a11.533 11.533 0 00.761-1.68.989.989 0 00-.362.127c-.33.2-.648.424-.984.616-.228.131-.28.33-.078.484s.422.286.663.449z" transform="translate(-130 -278)" fill-rule="evenodd" fill="url(#a)"/></svg>