<svg xmlns="http://www.w3.org/2000/svg" width="40" height="40"><defs><linearGradient id="a" x1="272" y1="549" x2="272" y2="509" gradientUnits="userSpaceOnUse"><stop offset="0" stop-color="#b69c59"/><stop offset=".522" stop-color="#fcf2c2"/><stop offset="1" stop-color="#c29b5c"/></linearGradient></defs><path d="M272 509a20 20 0 1020 20 20 20 0 00-20-20zm-.032 38.532a18.5 18.5 0 1118.5-18.5 18.5 18.5 0 01-18.5 18.5zm8.753-4.32a1.718 1.718 0 01-1.03-1.246 1.8 1.8 0 00-.338-.226 2.452 2.452 0 01-.546-.735c-.49-1.475-.285-3.024-.446-4.532a8.151 8.151 0 00-1.881-4.623 9.657 9.657 0 00-2.371 5.59 4.357 4.357 0 01-.722 2.756 2.442 2.442 0 00-.115.552 6.716 6.716 0 01-.385.725 2.045 2.045 0 00-.3.537 1.225 1.225 0 01-1.453 1.016c-.34-.08-.595-.28-.413-.656a16.272 16.272 0 00.9-3.625c.314-1.381.741-2.736 1.119-4.1a1.032 1.032 0 00.046-.188c.083-1.122.12-2.249.257-3.364a14.1 14.1 0 01.536-2.647 8.866 8.866 0 00-.247-5.136c-.157-.605-.225-1.235-.412-1.83a3.147 3.147 0 00-.573-.955c-.323-.41-.741-.75-1.034-1.179-.408-.6-.741-1.247-1.1-1.877a.735.735 0 01.227-1.166 8.494 8.494 0 011.794-.786c.871-.281 1.775-.462 2.652-.726a1.542 1.542 0 011.779.51 1.805 1.805 0 001.148.714 1.339 1.339 0 01.913.581c.148.423-.386.552-.693.724a1.625 1.625 0 00-.146 2.7c.385.265.787.506 1.187.748a1.923 1.923 0 011.055 2.08 7.073 7.073 0 00.241 2 5.1 5.1 0 01-.294 3.127.282.282 0 00-.029.092 4.684 4.684 0 01-.51 1.816.942.942 0 00.028.7 13.154 13.154 0 01.758 3.973c.133 1.346.131 2.7.234 4.054a6.821 6.821 0 00.328 1.179.726.726 0 01.03.4 1.117 1.117 0 00.236 1.169 7.506 7.506 0 01.545.738c.359.573.327.718-.194 1.122h-.775zm-8.276-25.918l.07.144c.42-.145.846-.275 1.258-.439.448-.178.484-.314.23-.892zm2.183 1.52a.94.94 0 00-1.3-.978 1.643 1.643 0 001.3.978zm4.189 9.361v-2.958a4.582 4.582 0 000 2.958zm-11.351-5.293h4.555v4.532c-.016.014-.033.027-.048.042l-1.209 1.208-.047.044-.017-.008v-3.409l-3.314 3.22.018.025a3.294 3.294 0 01.662 1.167 5.8 5.8 0 01.275 1.348 6.366 6.366 0 01.013 1.28 4.477 4.477 0 01-.465 1.583 5.171 5.171 0 01-1.654 1.88 4.95 4.95 0 01-2.515.906l-.262.023H263c-.034 0-.069-.01-.1-.012a5.25 5.25 0 01-1.107-.172 5.279 5.279 0 01-3.547-3.343 5.219 5.219 0 01-.256-1.587.467.467 0 00-.021-.1v-.234c0-.023.008-.046.01-.069.013-.136.021-.272.037-.408a4.778 4.778 0 01.455-1.545 5.455 5.455 0 011.682-1.986 4.485 4.485 0 012.664-.9c.238 0 .476.009.713.024a5.978 5.978 0 011.3.224 3.572 3.572 0 011.424.755.136.136 0 00.025.016l3.31-3.189a.109.109 0 01-.008-.015l-3.391-.018c.023-.024.037-.04.052-.054l1.184-1.184c.014-.01.026-.026.04-.044zm-4.232 12.271v.014c.228-.025.459-.039.685-.078a3.373 3.373 0 001.706-.846 3.3 3.3 0 001.151-2.2 3.729 3.729 0 00-.22-1.667 3.869 3.869 0 00-3.077-2.393 3.562 3.562 0 00-1.289.079 3.551 3.551 0 00-2.6 3.257 3.74 3.74 0 00.219 1.494 3.623 3.623 0 003.425 2.34z" transform="translate(-252 -509)" fill-rule="evenodd" fill="url(#a)"/></svg>