<svg xmlns="http://www.w3.org/2000/svg" width="40" height="40"><defs><linearGradient id="a" x1="280" y1="317" x2="280" y2="277" gradientUnits="userSpaceOnUse"><stop offset="0" stop-color="#b69c59"/><stop offset=".522" stop-color="#fcf2c2"/><stop offset="1" stop-color="#c29b5c"/></linearGradient></defs><path d="M280 277a20 20 0 1020 20 20 20 0 00-20-20zm-.032 38.532a18.5 18.5 0 1118.5-18.5 18.5 18.5 0 01-18.5 18.5zm9.764-31.174a2.228 2.228 0 011.435.485 6.293 6.293 0 011.057 1.07 2.54 2.54 0 01-.239 3.232c-.333.351-.68.688-1.023 1.029a.556.556 0 01-.659.125.155.155 0 00-.14.017 26.034 26.034 0 00-2.611 2.823 14.3 14.3 0 00-2.021 3.97c-.328.958-.649 1.919-1.016 2.863a11.544 11.544 0 01-2.761 4.06c-1.588 1.559-3.152 3.143-4.725 4.716a2.225 2.225 0 01-3.257 0l-5.52-5.52a2.213 2.213 0 01-.031-3.137q2.613-2.637 5.254-5.246a11.088 11.088 0 014.05-2.5c.932-.34 1.873-.655 2.811-.979a13.674 13.674 0 005.338-3.422q.514-.524 1.038-1.037a.132.132 0 00.036-.181.518.518 0 01.108-.631c.355-.359.706-.722 1.075-1.065a2.547 2.547 0 011.801-.672zm-5.451 13.016c-.056-.021-.1-.039-.151-.055-.989-.33-1.978-.664-2.969-.99a.657.657 0 01-.451-.453c-.243-.75-.5-1.5-.745-2.246-.1-.288-.194-.575-.293-.87-.049.014-.083.021-.115.032-.4.135-.8.272-1.2.406a11 11 0 00-4.466 2.752c-1.59 1.622-3.207 3.216-4.814 4.821a1.139 1.139 0 000 1.737q2.743 2.745 5.487 5.487a1.126 1.126 0 001.672.007q2.121-2.113 4.233-4.235c.5-.5 1.008-1.01 1.473-1.549a13.039 13.039 0 002.339-4.844zm-1.162-6.045l-2.4 1.095c.01.034.022.077.037.12.3.887.6 1.774.889 2.663a.279.279 0 00.2.2c.686.225 1.37.456 2.056.684l.747.248c.017-.034.028-.052.035-.07a15.008 15.008 0 011.006-2.2.145.145 0 00-.041-.207c-.47-.465-.937-.934-1.4-1.4l-1.129-1.133zm3.23 1.662a21.107 21.107 0 013.074-3.486l-1.882-1.891a21.091 21.091 0 01-3.484 3.08zm1.695-6.522l2.517 2.536c.222-.216.464-.421.672-.657a1.469 1.469 0 00-.013-1.966 6.853 6.853 0 00-.536-.542 1.476 1.476 0 00-1.979-.039c-.24.211-.452.454-.661.668zm4.115 8.8a.545.545 0 01-.006 1.09.545.545 0 11.006-1.09zm-9.291-7.65a.545.545 0 11.532.556.548.548 0 01-.532-.556zm7.637 6.555a.54.54 0 01-.542-.541.545.545 0 11.542.541zm-10.363-7.638a.546.546 0 11.541-.544.544.544 0 01-.541.544zm9.279 10.911a.542.542 0 11.54-.548.545.545 0 01-.54.548zm-9.595 4.772a.6.6 0 01-.22.417q-1.211 1.207-2.418 2.418-.432.432-.862.866a.583.583 0 01-.959 0l-4.2-4.2c-.04-.039-.08-.078-.118-.119a.549.549 0 01.008-.816q1.681-1.687 3.368-3.37a.554.554 0 01.87.007l4.33 4.33a.607.607 0 01.201.467zm-1.359-.026l-3.612-3.613-2.626 2.61 3.62 3.627zm1.67-4.2a1.09 1.09 0 11-1.091-1.085 1.095 1.095 0 011.091 1.082z" transform="translate(-260 -277)" fill-rule="evenodd" fill="url(#a)"/></svg>