<svg xmlns="http://www.w3.org/2000/svg" width="40" height="40"><defs><linearGradient id="a" x1="261" y1="142" x2="261" y2="102" gradientUnits="userSpaceOnUse"><stop offset="0" stop-color="#b69c59"/><stop offset=".522" stop-color="#fcf2c2"/><stop offset="1" stop-color="#c29b5c"/></linearGradient></defs><path d="M261 102a20 20 0 1020 20 20 20 0 00-20-20zm-.032 38.532a18.5 18.5 0 1118.5-18.5 18.5 18.5 0 01-18.5 18.5zm6.441-11.082a6.731 6.731 0 00-.065 4.27.173.173 0 00.047.147 2.119 2.119 0 00.26.628 5.32 5.32 0 00.839 1.285 5.057 5.057 0 01-1.55-.829l-.006-.015h-.016l-.075-.066-.044-.036-.165-.152-.221-.23-.012-.013-.068-.068a6.2 6.2 0 01-1.382-4.215.963.963 0 00.027-.15 7.553 7.553 0 01.512-2.365 12.556 12.556 0 01.99-2.02 18.865 18.865 0 001.037-2.183c.012-.022.027-.043.037-.066a10.577 10.577 0 00.634-2.676 6.294 6.294 0 00-.044-1.467 3.466 3.466 0 00-.7-1.629l.038-.038c.107.083.22.161.321.252a6.505 6.505 0 011.683 2.45c.022.074.041.149.064.222a6.481 6.481 0 01.243 2.862 11.009 11.009 0 01-1.462 4.021 8.694 8.694 0 00-.922 2.081zm-13.4 3.565a7.221 7.221 0 01-.866-1.3 9.992 9.992 0 01-.838-2.292.27.27 0 00-.057-.082c0-.034.007-.069.01-.1s-.007-.068-.011-.1l-.113-.713c-.012-.153-.028-.3-.033-.457a12.774 12.774 0 010-1.856 11.658 11.658 0 01.189-1.313c.1-.453.232-.905.36-1.354l.364-.957a27.433 27.433 0 011.612-3.147 14.443 14.443 0 00.924-1.912.034.034 0 000-.031 1.688 1.688 0 00.248-.584.091.091 0 00.006-.04l.043-.061a.455.455 0 00.119-.4.143.143 0 00.136-.162 12.875 12.875 0 00.582-1.719 10.306 10.306 0 00.342-4.854 4.961 4.961 0 00-.859-2.06.387.387 0 00-.154-.218c-.052-.158-.251-.206-.31-.4a1.452 1.452 0 01.507.317.635.635 0 00.241.185l.479.48.05.051.155.154c.269.359.572.69.832 1.057a9.447 9.447 0 011.387 2.947 15.713 15.713 0 01.336 1.888l.012.832-.006.306v.106l-.03.31a13.678 13.678 0 01-.819 3.577c-.2.533-.423 1.06-.636 1.589a.618.618 0 00-.142.324.228.228 0 00-.058.151 1.368 1.368 0 00-.258.51.11.11 0 00-.1.109.2.2 0 00-.07.16.025.025 0 00-.025.027l-.01.007a.142.142 0 00-.057.136l-.061.076a.248.248 0 00-.09.157l-.057.1c-.048.071-.1.139-.141.213a13.851 13.851 0 00-1.783 5.429 6.28 6.28 0 00-.024 1.655 8.725 8.725 0 00.78 3.389 8 8 0 001.508 2.34 7.755 7.755 0 01-3.019-1.825l-.075-.072-.039-.041-.06-.058v.013-.012l-.047-.052-.013.016.012-.017a.274.274 0 00-.12-.136l-.048-.053-.065-.077-.01-.01a2.492 2.492 0 00-.068-.077zm7.736-.2a6.41 6.41 0 001.308 2.525c.054.066.11.13.167.2a.179.179 0 01-.191-.026 6.218 6.218 0 01-2.093-1.309 6.9 6.9 0 01-1.571-2.335.418.418 0 00-.121-.213l-.308-1.234c-.035-.356-.083-.713-.1-1.07a9.985 9.985 0 01.862-4.465c.554-1.29 1.371-2.444 1.92-3.737a15.748 15.748 0 00.7-1.813l.015-.073a1.917 1.917 0 00.178-.542l.02-.1a.92.92 0 00.093-.363 2.236 2.236 0 00.136-.57 7.084 7.084 0 00.014-2.971l-.017-.059-.08-.3-.051-.153-.042-.108a4.544 4.544 0 00-.862-1.436 1.618 1.618 0 01.5.31.1.1 0 00.095.06h-.007l.211.2c.067.065.134.13.2.2l.36.364.412.579a7.833 7.833 0 011.048 2.037c.147.437.226.89.335 1.336a.953.953 0 00.04.348l.021.41.006.31a10.992 10.992 0 01-.724 3.746 19.2 19.2 0 01-1.4 2.873 11.175 11.175 0 00-1.172 3.044 7.99 7.99 0 00-.223 2.055 6.211 6.211 0 00.132 1.527.193.193 0 00.036.156c0 .033.01.067.016.1a1.446 1.446 0 00.138.493z" transform="translate(-241 -102)" fill-rule="evenodd" fill="url(#a)"/></svg>