<svg xmlns="http://www.w3.org/2000/svg" width="40" height="40"><defs><linearGradient id="a" x1="266" y1="228" x2="266" y2="188" gradientUnits="userSpaceOnUse"><stop offset="0" stop-color="#b69c59"/><stop offset=".522" stop-color="#fcf2c2"/><stop offset="1" stop-color="#c29b5c"/></linearGradient></defs><path d="M266 188a20 20 0 1020 20 20 20 0 00-20-20zm-.032 38.532a18.5 18.5 0 1118.5-18.5 18.5 18.5 0 01-18.5 18.5zm-10.528-7.37a.414.414 0 00.042-.064.428.428 0 01.447-.294h19.665a.516.516 0 01.559.327v.226a.584.584 0 01-.29.355H255.73a.873.873 0 01-.29-.355v-.193zm10.087-24.462c.164.062.345.072.507.143a1.987 1.987 0 011.219 1.481 2.048 2.048 0 01-.646 2.059 1.886 1.886 0 01-2.782-.247 2.132 2.132 0 01.047-2.742 1.832 1.832 0 011.22-.665.238.238 0 00.063-.029h.372zm5.19 14.319a6.4 6.4 0 01-1.248-.282 11.492 11.492 0 01-3.755-1.742.211.211 0 00-.289.03 11.594 11.594 0 01-2.1 1.163 7 7 0 01-1.75.535 1.784 1.784 0 01-.683-.018c-.33-.081-.407-.331-.17-.551a3.3 3.3 0 01.973-.575 13.39 13.39 0 002.482-1.485c.134-.1.161-.152.014-.269a8.931 8.931 0 01-2.359-2.778 14.418 14.418 0 01-1.044-2.4 5.383 5.383 0 01-.205-1.18 1.123 1.123 0 012.225-.059c.081.354.1.714.166 1.07a6.84 6.84 0 00.623 1.823 8.51 8.51 0 001.839 2.506.181.181 0 00.305-.006 8.3 8.3 0 002.451-4.263c.09-.4.081-.818.2-1.215a1.057 1.057 0 01.54-.746 1.172 1.172 0 011.162.06.972.972 0 01.479 1.021 10.431 10.431 0 01-2.224 4.843 7.8 7.8 0 01-1.347 1.306c-.188.148-.182.142 0 .281a20.487 20.487 0 002.951 1.788 4.758 4.758 0 01.952.635l.04.036a.318.318 0 01.147.367.389.389 0 01-.375.104zm-11.841 6.681c.237 0 .471.014.7 0 1.013-.074 2.024-.16 3.037-.235a25.138 25.138 0 014.268-.06 4.326 4.326 0 011.682.47c-.276.012-.538.013-.8.036a14.665 14.665 0 00-3 .676c-.987.3-1.967.63-2.958.919a11.348 11.348 0 01-3.976.336 13.027 13.027 0 01-2.479-.352 2.835 2.835 0 01-.887-.37.432.432 0 01-.144-.706 3.94 3.94 0 01.985-.951 35.279 35.279 0 013.876-2.373 22.571 22.571 0 013.21-1.392 1.282 1.282 0 01.126-.033 4.412 4.412 0 00-.06.876 1.914 1.914 0 00.428 1.069 4.6 4.6 0 01.437.6c.07.126.061.181-.094.226-1.395.4-2.788.816-4.19 1.2a.292.292 0 00-.161.064zm5.33 1.823a6.172 6.172 0 011.57-.77 17.107 17.107 0 013.61-.753 31.434 31.434 0 012.766-.195.163.163 0 00-.144-.078 28.952 28.952 0 00-3.947-.88c-.146-.023-.292-.057-.44-.067s-.127-.07-.086-.166a1.92 1.92 0 01.281-.48 2.629 2.629 0 00.481-2.316l-.058-.319c.256.112.488.221.725.317 1.308.533 2.526 1.249 3.8 1.855a28.74 28.74 0 013.143 1.673 4.007 4.007 0 01.9.717.528.528 0 01-.044.89 2.967 2.967 0 01-1.691.689 11.291 11.291 0 01-2.41-.047 50.916 50.916 0 00-3.173-.146 88.81 88.81 0 00-3.757.014c-.493.011-.981.039-1.526.062zm1.34-7.973a2.181 2.181 0 011.607.526 1.6 1.6 0 01.484 1.134 4.9 4.9 0 01-.731 2.85 1.975 1.975 0 01-.375.435 1.171 1.171 0 01-1.233.219 2.808 2.808 0 01-1.429-1.219 2.767 2.767 0 01-.449-2.348 2.121 2.121 0 012.126-1.597z" transform="translate(-246 -188)" fill-rule="evenodd" fill="url(#a)"/></svg>