<svg xmlns="http://www.w3.org/2000/svg" width="40" height="40"><defs><linearGradient id="a" x1="150" y1="232" x2="150" y2="192" gradientUnits="userSpaceOnUse"><stop offset="0" stop-color="#b69c59"/><stop offset=".522" stop-color="#fcf2c2"/><stop offset="1" stop-color="#c29b5c"/></linearGradient></defs><path d="M150 192a20 20 0 1020 20 20 20 0 00-20-20zm-.032 38.532a18.5 18.5 0 1118.5-18.5 18.5 18.5 0 01-18.5 18.5zM163.81 214.1c0-.31 0-.31-.354-.31h-12.75q.285-.027.568-.063a1.13 1.13 0 00.369-.13.27.27 0 00.029-.4c-.179-.095-.366-.176-.549-.265a1.1 1.1 0 01-.132-.079c-.172-.121-.349-.235-.51-.369a.351.351 0 01-.14-.235c.016-.187-.028-.372-.022-.559.012-.4.1-.788.142-1.183a1.335 1.335 0 00-.056-.45c-.019-.081-.121-.144-.131-.222-.063-.489-.134-.978-.158-1.468a32.345 32.345 0 01.175-4.821c.04-.392.049-.4.455-.446.04 0 .082-.006.122-.013.607-.1 1.221-.162 1.82-.3a1.373 1.373 0 001.112-1.452 8.747 8.747 0 00-.6-2.653 16.115 16.115 0 00-.767-2 .256.256 0 00-.235-.148l-3.925.067a.254.254 0 00-.249.264 30.022 30.022 0 00.483 4.593c-.429.269-.858.535-1.283.807-.586.373-1.161.764-1.757 1.122-.411.247-.423.228-.769-.085a6 6 0 00-.112-.1.887.887 0 00-1.182.028 4.851 4.851 0 01-.764.5c-.595.307-1.206.583-1.813.866-.128.059-.219.113-.084.263.6-.251 1.195-.5 1.795-.746a2 2 0 01.359-.074l.047.083c-.13.15-.252.307-.391.449-.3.311-.625.606-.924.922a.745.745 0 00-.239.827c.231.522.5 1.026.762 1.536a.186.186 0 00.311.052.419.419 0 00.068-.231.6.6 0 010-.136.458.458 0 00.142-.46 5.5 5.5 0 01.094-.646.268.268 0 01.055-.134 1.537 1.537 0 01.828-.415c.329-.063.672-.065 1-.143a.732.732 0 00.474-.295.525.525 0 01.265-.277c.222-.125.437-.263.667-.37.622-.289 1.251-.563 1.919-.863a7.086 7.086 0 00.009 1.069c.136.842.323 1.675.474 2.514.1.572.184 1.148.263 1.724a.209.209 0 01-.135.294.962.962 0 00-.73 1.414 1.337 1.337 0 01.092.331c.08.774.151 1.55.231 2.325a.461.461 0 00.071.166H136.2v1.073a1.758 1.758 0 00.375.093c.517.01 1.035 0 1.566 0v1.151c0 .407 0 .409.448.409h10.763v5.069c-.08.011-.15.022-.221.03a3.016 3.016 0 00-2.914 2.829 1.8 1.8 0 01-1.912 1.836.614.614 0 00-.586.4.6.6 0 00.656.772 3.039 3.039 0 002.927-1.9 5.212 5.212 0 00.216-1.219 1.761 1.761 0 011.845-1.539v4.037a.608.608 0 00.742.613.587.587 0 00.55-.642v-4.017c.187.025.339.034.485.068a1.849 1.849 0 011.551 1.814 3.141 3.141 0 003.223 2.8.64.64 0 00.721-.577.625.625 0 00-.676-.593 1.89 1.89 0 01-1.981-1.806 3.126 3.126 0 00-2.655-2.8c-.216-.042-.437-.062-.651-.091v-5.067h10.773c.43 0 .43 0 .431-.392s0-.772 0-1.168h1.684c.186 0 .262-.062.257-.228-.017-.204-.007-.415-.007-.63zm-12.881-13.86l.485.682-.619.05.134-.732zm-2.643 13.553a.414.414 0 00.072-.18c-.006-.558-.026-1.116-.036-1.675a2.642 2.642 0 01.029-.3l.078-.023a1.7 1.7 0 01.23.3c.214.443.422.889.615 1.341a.96.96 0 00.609.543h-1.6z" transform="translate(-130 -192)" fill-rule="evenodd" fill="url(#a)"/></svg>