<svg xmlns="http://www.w3.org/2000/svg" width="40" height="40"><defs><linearGradient id="a" x1="267" y1="464" x2="267" y2="424" gradientUnits="userSpaceOnUse"><stop offset="0" stop-color="#b69c59"/><stop offset=".522" stop-color="#fcf2c2"/><stop offset="1" stop-color="#c29b5c"/></linearGradient></defs><path d="M267 424a20 20 0 1020 20 20 20 0 00-20-20zm-.032 38.532a18.5 18.5 0 1118.5-18.5 18.5 18.5 0 01-18.5 18.5zm6.043-23.888v-5.877a.416.416 0 00.279-.4.42.42 0 00-.279-.4v-1.287a.425.425 0 00-.423-.423h-3.378a.425.425 0 00-.424.423v1.292a.413.413 0 00-.279.4.422.422 0 00.279.4v5.877a4.637 4.637 0 00-2.53 4.137v6.751a.425.425 0 00.423.423h8.021v4.64a1.268 1.268 0 01-1.266 1.266h-5.061a1.267 1.267 0 01-1.273-1.266v-3.377a.424.424 0 10-.847 0v3.377a2.115 2.115 0 002.112 2.113h5.061a2.115 2.115 0 002.113-2.113v-11.819a4.654 4.654 0 00-2.528-4.137zm-3.378-7.54h2.531v.842h-2.531v-.846zm0 1.689h2.531v3.517h-2.531v-3.517zm-.253 6.507a.418.418 0 00.253-.387v-1.761h2.531v1.761a.423.423 0 00.253.387 3.8 3.8 0 012.257 3.058h-7.551a3.8 3.8 0 012.257-3.058zm5.315 9.808H267.1v-5.9h7.6v5.9zm-10.211 6.756a1.634 1.634 0 01-1.172-.475 2.589 2.589 0 00-1.276-.62v-4.839a3.808 3.808 0 003.378-3.776 3.613 3.613 0 00-.021-.4l-.139-1.332-.352-3.378a.415.415 0 00-.418-.377h-5.738a.421.421 0 00-.419.377l-.485 4.71a3.274 3.274 0 00-.021.4 3.8 3.8 0 003.378 3.776v4.839a2.634 2.634 0 00-1.276.62 1.664 1.664 0 01-1.172.475.424.424 0 100 .847h5.738a.426.426 0 00.424-.424.43.43 0 00-.429-.423zm-5.821-9.71a2.926 2.926 0 01.016-.31l.449-4.333h4.979l.263 2.531h-4.287a.424.424 0 000 .847h4.37l.1.955c.01.1.016.207.016.31a2.952 2.952 0 11-5.906 0zm2.03 9.71a1.655 1.655 0 011.839 0h-1.839z" transform="translate(-247 -424)" fill-rule="evenodd" fill="url(#a)"/></svg>