<svg xmlns="http://www.w3.org/2000/svg" width="40" height="40"><defs><linearGradient id="a" x1="171" y1="555" x2="171" y2="515" gradientUnits="userSpaceOnUse"><stop offset="0" stop-color="#b69c59"/><stop offset=".522" stop-color="#fcf2c2"/><stop offset="1" stop-color="#c29b5c"/></linearGradient></defs><path d="M171 515a20 20 0 1020 20 20 20 0 00-20-20zm-.032 38.532a18.5 18.5 0 1118.5-18.5 18.5 18.5 0 01-18.5 18.5zm1.9-20.675c-.114-.106-.231-.2-.332-.31-.226-.245-.442-.5-.664-.746a.066.066 0 010-.1 3.435 3.435 0 00.6-.9 4.569 4.569 0 00.4-1.316 3.929 3.929 0 00.039-.832 2.657 2.657 0 00-.463-1.306 2.868 2.868 0 00-1.38-1.121 2.377 2.377 0 00-1-.144 3.462 3.462 0 00-1.088.235 3.8 3.8 0 00-1.176.774c-.352.331-.689.678-1.031 1.019a.362.362 0 00-.044.064h-.033a.37.37 0 00-.042-.066c-.35-.348-.694-.7-1.055-1.04a3.639 3.639 0 00-1.372-.833 3.6 3.6 0 00-.862-.153 2.571 2.571 0 00-2.174.979 2.771 2.771 0 00-.624 1.226 2.868 2.868 0 00-.05.822 4.506 4.506 0 00.208 1.117 5.6 5.6 0 00.818 1.558 12.707 12.707 0 001.276 1.483q1.912 1.94 3.831 3.87c.019.02.04.038.066.062 1.23-1.242 2.293-2.153 3.516-3.388l1.024 1.138c-.014.016-.031.037-.051.056-1.28 1.268-2.4 2.21-3.679 3.476a.227.227 0 00-.075.176v3.18c0 .1 0 .1.1.1h3.407c.095 0 .095 0 .095.1v1.3c0 .084 0 .084-.087.084h-3.414c-.1 0-.1 0-.1.105v3.4c0 .117.009.1-.107.1h-1.285c-.088 0-.088 0-.088-.09v-3.416c0-.1 0-.1-.1-.1h-3.407c-.094 0-.094 0-.094-.095v-1.306a.065.065 0 01.081-.08h3.42c.1 0 .1 0 .1-.1v-3.193a.183.183 0 00-.06-.142q-1.89-1.867-3.777-3.738a17.124 17.124 0 01-1.464-1.64 8.411 8.411 0 01-1.26-2.17 6.073 6.073 0 01-.336-1.328 5.385 5.385 0 01-.045-1.061 4.2 4.2 0 01.916-2.37 4.117 4.117 0 012.176-1.462 4.183 4.183 0 011.356-.13 5 5 0 011.377.253 4.158 4.158 0 011.379.814c.142.124.277.258.414.388.065.061.064.063.125 0a5.634 5.634 0 01.952-.791 4.134 4.134 0 011.578-.6 5.543 5.543 0 011.143-.073 3.8 3.8 0 011.72.484 4.285 4.285 0 012.1 2.711 4.053 4.053 0 01.129 1.064 6.254 6.254 0 01-1.056 3.42c-.207.323-.226.248-.449.561a.156.156 0 01-.021.021zm-1.825-6.059a.486.486 0 00-.085.1 2.843 2.843 0 00-.8 1.5 3.18 3.18 0 00-.02.78 4.291 4.291 0 00.149.865 5.12 5.12 0 00.661 1.427 9.465 9.465 0 001.185 1.472c1.323 1.35 2.708 2.746 4.144 4.2.036.036.06.052.1.007q1.985-2.01 3.97-4.017a11.454 11.454 0 001.184-1.4 5.347 5.347 0 00.866-1.786 5 5 0 00.131-.855 2.577 2.577 0 00-.162-1.177 2.893 2.893 0 00-1.8-1.743 2.292 2.292 0 00-.907-.1 3.334 3.334 0 00-1.207.3 3.7 3.7 0 00-.989.672c-.366.345-.718.7-1.074 1.058a.289.289 0 00-.04.063c-.128-.124-.241-.229-.349-.339a10.349 10.349 0 00-1.122-1.043 2.74 2.74 0 00-1.036-.6.135.135 0 01-.068-.044 3.8 3.8 0 00-1.666-1.344l-.025-.017c.109-.023.316-.1.414-.12a1.169 1.169 0 01.459-.064 4.761 4.761 0 011.866.4 4.355 4.355 0 011.067.708c.132.117.258.24.383.365a.063.063 0 00.109 0 5.288 5.288 0 011.076-.874 4.137 4.137 0 011.464-.526 5.423 5.423 0 011.116-.074 3.838 3.838 0 011.9.576 4.278 4.278 0 012.012 2.919 4.142 4.142 0 01.062 1 6.378 6.378 0 01-.995 3.093 11.378 11.378 0 01-1.15 1.542c-.847.96-1.766 1.851-2.674 2.752-.682.676-1.372 1.343-2.06 2.013a.2.2 0 00-.066.153v3.193c0 .1 0 .1.1.1h3.407c.092 0 .092 0 .092.093v1.293c0 .09 0 .091-.089.091h-3.413c-.1 0-.1 0-.1.1v3.416c0 .09 0 .09-.089.09h-1.305a.069.069 0 01-.084-.085v-3.415c0-.106 0-.106-.108-.106h-3.4c-.093 0-.093 0-.093-.092v-1.306a.066.066 0 01.081-.081h3.42c.1 0 .1 0 .1-.105v-3.194a.184.184 0 00-.062-.142c-.879-.859-1.761-1.716-2.633-2.583-.5-.5-1.054-1.056-1.7-1.74a11.685 11.685 0 01-1.676-2.194 6.5 6.5 0 01-.791-2.122 5.5 5.5 0 01-.078-1.318 3.278 3.278 0 01.746-1.923.169.169 0 01.091-.054 3.315 3.315 0 01.75-.068 1.327 1.327 0 01.812.312z" transform="translate(-151 -515)" fill-rule="evenodd" fill="url(#a)"/></svg>