<svg xmlns="http://www.w3.org/2000/svg" width="40" height="40"><defs><linearGradient id="a" x1="171" y1="634" x2="171" y2="594" gradientUnits="userSpaceOnUse"><stop offset="0" stop-color="#b69c59"/><stop offset=".522" stop-color="#fcf2c2"/><stop offset="1" stop-color="#c29b5c"/></linearGradient></defs><path d="M171 594a20 20 0 1020 20 20 20 0 00-20-20zm-.032 38.532a18.5 18.5 0 1118.5-18.5 18.5 18.5 0 01-18.5 18.5zm5.012-11.186l-.341-.04a4.56 4.56 0 01-2.025-.765 4.77 4.77 0 01-1.641-1.883c-.1-.211-.175-.437-.261-.657a.3.3 0 01-.011-.047h.162a4.9 4.9 0 001.191-.067.062.062 0 01.079.047 3.373 3.373 0 005.556 1 3.129 3.129 0 00.9-1.865 3.3 3.3 0 00-1.29-3.127 3.11 3.11 0 00-1.723-.688 3.3 3.3 0 00-2.963 1.251c-.115.139-.2.3-.3.454a.187.187 0 01-.081.072 2.828 2.828 0 01-1.464.178c-.013 0-.025-.007-.038-.01a4.714 4.714 0 017.312-2.376l3.643-3.643h-3.06v-3.067l-3.648 3.648a4.849 4.849 0 01.638 1.134c.038.1.069.2.1.3a.127.127 0 010 .032c-.109-.006-.214-.013-.319-.016a5.014 5.014 0 00-1.023.073.068.068 0 01-.09-.048 3.286 3.286 0 00-2.518-2 3.351 3.351 0 00-3.86 2.506 3.26 3.26 0 00.939 3.252 3.159 3.159 0 001.791.9 3.307 3.307 0 002.848-.866 3.068 3.068 0 00.615-.791.208.208 0 01.116-.1 2.855 2.855 0 011.452-.166.129.129 0 01.026.008 4.789 4.789 0 01-3.5 3.206 4.733 4.733 0 01-2.406-9.144 4.579 4.579 0 012.2-.142 4.721 4.721 0 012.017.884l3.656-3.657h-3.769v-1.351h6.078v4.053h4.059v6.086h-1.354v-3.736l-3.632 3.632c.141.238.3.472.424.722a4.628 4.628 0 01.077 4.04 4.778 4.778 0 01-1.94 2.136 4.536 4.536 0 01-1.767.6l-.341.04h-.514zm-4.286-1.436c-.914.833-1.831 1.662-2.752 2.5-1.71-1.582-3.437-3.161-5.143-4.764a21.107 21.107 0 01-3.11-3.549 7 7 0 01-1.364-4.348 4.943 4.943 0 014.259-4.608 5.373 5.373 0 014.774 1.764.7.7 0 001.2 0 5.462 5.462 0 014.42-1.791 8.257 8.257 0 01.022-1.325 6.429 6.429 0 00-3.284.671c-.622.309-1.185.735-1.814 1.131-.016-.014-.091-.076-.164-.14a6.552 6.552 0 00-8.4-.277 6.152 6.152 0 00-2.267 4.044 1.549 1.549 0 01-.056.2v1.368a.3.3 0 01.045.091 8.64 8.64 0 001.452 3.789 25.882 25.882 0 004.13 4.645c1.572 1.478 3.163 2.937 4.74 4.411a.7.7 0 001.15 0c.938-.89 1.876-1.781 2.83-2.654l.24-.219a6.252 6.252 0 01-.908-.939z" transform="translate(-151 -594)" fill-rule="evenodd" fill="url(#a)"/></svg>