<svg xmlns="http://www.w3.org/2000/svg" width="40" height="40"><defs><linearGradient id="a" x1="157" y1="460" x2="157" y2="420" gradientUnits="userSpaceOnUse"><stop offset="0" stop-color="#b69c59"/><stop offset=".522" stop-color="#fcf2c2"/><stop offset="1" stop-color="#c29b5c"/></linearGradient></defs><path d="M157 420a20 20 0 1020 20 20 20 0 00-20-20zm-.032 38.532a18.5 18.5 0 1118.5-18.5 18.5 18.5 0 01-18.5 18.5zm4.966-8.828l.217-8.333 3.025-.308a.638.638 0 01.013.113q-.126 2.97-.255 5.939c-.031.713-.062 1.426-.087 2.139a.149.149 0 01-.146.183c-.869.087-1.737.178-2.606.267-.047.005-.095-.004-.161-.004zm-13.242-8.642l3.036.309.217 8.326c-.117 0-.22.009-.321 0-.813-.084-1.626-.173-2.44-.258a.141.141 0 01-.151-.159q-.169-4.067-.345-8.134c-.001-.025.002-.046.004-.084zm6.4.453l.076 8.357-2.891-.119-.218-8.366zm6.51 8.237l-2.891.121.075-8.358 3.034-.128c-.073 2.786-.145 5.562-.22 8.365zm-3.221.12H155.5l-.076-8.346h3.035c-.027 2.774-.053 5.546-.078 8.346zm-9.67-.473c-.576-.15-1.111-.286-1.643-.432a1.912 1.912 0 01-.353-.157.458.458 0 01-.263-.426q-.2-3.7-.419-7.393c-.012-.214-.026-.429-.041-.668a7.844 7.844 0 002.356.671l.363 8.406zM165.53 441a7.9 7.9 0 002.337-.664c0 .132.007.256 0 .38l-.328 5.676c-.038.645-.085 1.289-.107 1.935a.5.5 0 01-.35.525c-.508.161-1.023.3-1.536.443a3.691 3.691 0 01-.377.067l.361-8.362zm-19.109 7.861a3.22 3.22 0 001.531.62 26.262 26.262 0 003.82.512c1.971.152 3.947.207 5.924.184 1.884-.021 3.766-.1 5.641-.3a17.261 17.261 0 003.283-.583 1.784 1.784 0 00.835-.447.517.517 0 01-.346.7 6.572 6.572 0 01-1.716.486 35.353 35.353 0 01-5.343.514c-1.772.045-3.546.061-5.318.033a38.768 38.768 0 01-6.046-.515c-.549-.1-1.087-.258-1.628-.4a1.458 1.458 0 01-.305-.13.508.508 0 01-.332-.678zm12.3-11.533a1.415 1.415 0 111.4-1.42 1.418 1.418 0 01-1.401 1.416zm9.221 2.108a1.318 1.318 0 00-.42-.257 60.681 60.681 0 00-11.126-1.006 2.235 2.235 0 11-.356-.016c-1.739.076-3.48.141-5.218.244a20.412 20.412 0 00-3.486.485 8.8 8.8 0 00-1.216.414.316.316 0 00-.237.4.578.578 0 00.579.275c.275-.087.55-.179.831-.242a30.612 30.612 0 014.663-.587 77.296 77.296 0 016.127-.15h.4c0-.011 3.177.229 4.218.29s2.042.184 2.924.258a7.163 7.163 0 011.7.4.549.549 0 00.615-.167.217.217 0 00.001-.345zm-12.1-5.057a1.129 1.129 0 111.129-1.136 1.12 1.12 0 01-1.13 1.132zm2.653-5.07a.885.885 0 01.867.89.877.877 0 01-1.754-.02.886.886 0 01.886-.874zm-3.792 7.246a.875.875 0 01-.883.868.894.894 0 01-.87-.89.877.877 0 01.891-.861.862.862 0 01.859.879zm3.45 3.727a.561.561 0 01-.574.572.574.574 0 01-.565-.586.58.58 0 01.563-.558.566.566 0 01.575.568zm-2.307-12.787a.56.56 0 01.551.593.568.568 0 01-.565.551.581.581 0 01-.574-.581.573.573 0 01.587-.567z" transform="translate(-137 -420)" fill-rule="evenodd" fill="url(#a)"/></svg>