<svg xmlns="http://www.w3.org/2000/svg" width="40" height="40"><defs><linearGradient id="a" x1="277" y1="697" x2="277" y2="657" gradientUnits="userSpaceOnUse"><stop offset="0" stop-color="#b69c59"/><stop offset=".522" stop-color="#fcf2c2"/><stop offset="1" stop-color="#c29b5c"/></linearGradient></defs><path d="M277 657a20 20 0 1020 20 20 20 0 00-20-20zm-.032 38.532a18.5 18.5 0 1118.5-18.5 18.5 18.5 0 01-18.5 18.5zm5.022-9.772c.166.09.325.176.484.26a.445.445 0 00.656-.195q.923-1.678 1.844-3.357a.444.444 0 00-.19-.656l-.179-.1.061-.113 1.644-2.926a6.219 6.219 0 00.725-2.194 1.07 1.07 0 000-.15v-6.879c.037.04.06.062.079.087a12.389 12.389 0 012.33 4.939 12.143 12.143 0 01.274 3.555 12.523 12.523 0 01-9.317 11.274 12.138 12.138 0 01-3.762.389 12.514 12.514 0 01-11.594-9.728 12.034 12.034 0 01-.292-3.4 12.518 12.518 0 019.366-11.464 12.069 12.069 0 013.8-.377 12.441 12.441 0 017.3 2.85.573.573 0 01.24.5q-.024 3.89-.021 7.78A3.963 3.963 0 01285 677.7c-.333.649-.7 1.279-1.053 1.917q-.336.607-.675 1.214c-.02.037-.043.072-.067.114l-.1-.055a.457.457 0 00-.7.2l-1.046 1.894q-.388.7-.778 1.408a.448.448 0 00.2.672l.5.273c-.035.064-.066.125-.1.184-.155.28-.312.559-.465.84a.409.409 0 10.711.4c.171-.3.339-.6.508-.9a.436.436 0 01.055-.101zm-4.79-13.16a4.642 4.642 0 104.643 4.634 4.633 4.633 0 00-4.643-4.634zm-9.917.749a.848.848 0 00.122-.03.5.5 0 00.266-.317 10.3 10.3 0 014.431-4.921c.4-.227.822-.4 1.237-.6a.414.414 0 00.246-.52.406.406 0 00-.557-.237 11.2 11.2 0 00-5.085 4.1 11.038 11.038 0 00-1.058 1.935.413.413 0 00.4.585zm1.707.695a.437.437 0 00.351-.32 8.551 8.551 0 012.659-3.4 8.417 8.417 0 012.012-1.15.417.417 0 00.293-.327.387.387 0 00-.145-.392.422.422 0 00-.456-.043 9.444 9.444 0 00-3.771 2.781 9.328 9.328 0 00-1.373 2.269.413.413 0 00.432.577zm5.592-4.006c-.073.022-.148.039-.218.068a7.584 7.584 0 00-3.265 2.543 7.438 7.438 0 00-.871 1.523.411.411 0 00.3.581.436.436 0 00.485-.319 6.727 6.727 0 012.738-3.1c.316-.189.659-.334.992-.494a.424.424 0 00.253-.45.431.431 0 00-.412-.357zm3.874 7.209a1.224 1.224 0 01-1.233 1.223 1.228 1.228 0 11.023-2.456 1.224 1.224 0 011.212 1.228zm-1.231-.447a.443.443 0 000 .886.433.433 0 00.449-.441.437.437 0 00-.447-.445z" transform="translate(-257 -657)" fill-rule="evenodd" fill="url(#a)"/></svg>