<svg xmlns="http://www.w3.org/2000/svg" width="20.219" height="6.625"><path data-name="***" d="M.784 5.844l.976.711 1.407-2.2 1.453 2.25.968-.734-1.544-2.109 2.4-.711-.359-1.186-2.321.859L3.842 0h-1.2l.07 2.685L.353 1.81l-.359 1.179 2.359.7zm6.89 0l.977.711 1.406-2.2 1.453 2.25.969-.734-1.547-2.117 2.4-.711-.36-1.186-2.32.859.078-2.724H9.534l.07 2.685-2.359-.875-.36 1.179 2.36.7zm6.891 0l.977.711 1.406-2.2 1.453 2.25.969-.734-1.547-2.117 2.4-.711-.359-1.186-2.32.859.078-2.724h-1.2l.071 2.685-2.36-.875-.359 1.179 2.359.7z" fill="#fbefbf" fill-rule="evenodd"/></svg>