<svg xmlns="http://www.w3.org/2000/svg" width="33.53" height="33.531"><defs><linearGradient id="a" x1="1735.13" y1="92.469" x2="1717.81" y2="62.469" gradientUnits="userSpaceOnUse"><stop offset="0" stop-color="#b69c59"/><stop offset=".522" stop-color="#fcf2c2"/><stop offset="1" stop-color="#c29b5c"/></linearGradient><filter id="b" x="1711.47" y="62.469" width="33.53" height="33.531" filterUnits="userSpaceOnUse"><feOffset result="offset" dx=".5" dy=".866" in="SourceAlpha"/><feGaussianBlur result="blur" stdDeviation="1"/><feFlood result="flood" flood-color="#000001" flood-opacity=".2"/><feComposite result="composite" operator="in" in2="blur"/><feBlend result="blend" in="SourceGraphic"/></filter></defs><path d="M1741.47 76.769V78.2a1.1 1.1 0 00-.03.179 14.232 14.232 0 01-.65 3.545 14.963 14.963 0 01-6.81 8.507 14.32 14.32 0 01-5.64 1.913c-.39.048-.78.081-1.17.122h-1.43a1.294 1.294 0 00-.15-.028 14.4 14.4 0 01-4.28-.9 14.968 14.968 0 01-7.75-6.468 14.529 14.529 0 01-2-6l-.09-.875v-1.46l.03-.178a14.6 14.6 0 01.66-3.591 15.023 15.023 0 015.9-7.9 14.6 14.6 0 016.78-2.509c.3-.033.6-.061.9-.092h1.46c.06.01.12.022.18.03.73.1 1.46.146 2.17.3a15.062 15.062 0 0111.79 12.782c.06.398.09.795.13 1.192zm-4.5 9.1a13.484 13.484 0 10-20.99 0 12.343 12.343 0 017.64-5.97.667.667 0 01-.06-.047 5.753 5.753 0 01.2-10.109 5.869 5.869 0 016.96.972 5.455 5.455 0 011.69 4.77 5.912 5.912 0 01-2.78 4.325c-.04.025-.07.053-.12.087a11.612 11.612 0 017.46 5.976z" transform="translate(-1711.47 -62.469)" fill-rule="evenodd" fill="url(#a)" filter="url(#b)"/></svg>