<svg xmlns="http://www.w3.org/2000/svg" width="47" height="34"><path data-name="american express" d="M23.485 33.99H4.952a4.666 4.666 0 01-4.446-2.62 4.588 4.588 0 01-.5-2.18q-.009-12.2 0-24.39A4.684 4.684 0 014.815 0c2.875-.02 5.75 0 8.625 0h20.139c2.86 0 5.719-.01 8.579 0a4.709 4.709 0 014.832 4.87q.009 12.135 0 24.26a4.684 4.684 0 01-4.878 4.86q-9.314.015-18.627 0zm-.032-1.87c6.148 0 12.3.01 18.445-.01a4.126 4.126 0 001.6-.31 2.823 2.823 0 001.615-2.86c-.006-3.92 0-7.84 0-11.76V5.05a3.247 3.247 0 00-.591-2.04 3.051 3.051 0 00-2.627-1.13H5.054a2.9 2.9 0 00-3.17 3.17c-.008.99 0 1.97 0 2.95q0 10.5.013 20.99a3.744 3.744 0 00.322 1.55 2.807 2.807 0 002.784 1.58h18.445zm-11.71-16.39a.914.914 0 01-1.077.62c-.523-.02-1.047-.01-1.571-.01a.741.741 0 01-.814-.55.474.474 0 00-.6-.4 1.143 1.143 0 01-.32 0 .469.469 0 00-.6.39.732.732 0 01-.808.56h-.75a.752.752 0 01-.8-1.16c.3-.76.627-1.5.943-2.25.223-.52.452-1.05.671-1.58a.911.911 0 011.053-.71h.967a.9.9 0 011.025.7c.049.13.1.25.177.45.251-1.11.3-1.15 1.371-1.15.333 0 .666 0 1 .01a.736.736 0 01.713.44c.205.45.417.89.661 1.4.175-.41.333-.76.473-1.12a.879.879 0 011.038-.72c.6.02 1.2.1 1.8.1 1.1-.01 2.2-.08 3.3-.1.281-.01.565.08.846.07.889-.01 1.779-.08 2.667-.06a14.621 14.621 0 011.784.25 1.644 1.644 0 012.295.31 3.371 3.371 0 012.439-.56c.815.08 1.618-.03 2.427-.03a1.008 1.008 0 011.112.74 3.54 3.54 0 00.221.46c.123-1.1.219-1.19 1.277-1.19a3.592 3.592 0 00.464 0 1.224 1.224 0 011.43.85.985.985 0 00.075.12.5.5 0 01.061.03l.038-.23a.792.792 0 01.895-.77c.25 0 .5 0 .75.01a.743.743 0 01.815.8c.011 1.36.011 2.73 0 4.09a.722.722 0 01-.8.8c-.4.01-.809-.01-1.214 0a.787.787 0 01-.77-.41 3.323 3.323 0 00-.573-.77c-.007.16-.009.32-.023.48a.646.646 0 01-.644.68c-.724.03-1.451.02-2.176 0a.687.687 0 01-.645-.58.432.432 0 00-.547-.35.384.384 0 01-.107 0 .688.688 0 00-.894.5.745.745 0 01-.55.42 15.179 15.179 0 01-2.132-.08 3.953 3.953 0 01-.974-.4c-.214.61-.759.51-1.266.52-.639 0-1.279 0-1.918-.01a.76.76 0 01-.887-.9v-.62h-.591c0 .23.009.46 0 .69a.727.727 0 01-.84.83c-1.6.01-3.2.01-4.8.01-.6 0-1.2 0-1.8-.01a.77.77 0 01-.868-.56 1.468 1.468 0 01-2.429-.05zm22.381-.57a.225.225 0 00-.078.02c-.052-.1-.111-.19-.155-.29-.433-1.03-.876-2.04-1.29-3.07a.555.555 0 00-.672-.46 2.045 2.045 0 01-.605 0 .54.54 0 00-.642.45c-.367.9-.766 1.8-1.154 2.7a.412.412 0 01-.125.2 1.056 1.056 0 01-1.317-.59 2.95 2.95 0 01-.067-.88.9.9 0 01.987-.95c.329-.02.659 0 .992 0v-.96a12.457 12.457 0 00-1.657.14 1.754 1.754 0 00-.891.52 2.576 2.576 0 00-.379 2.32 1.543 1.543 0 001.435 1.28c.343.03.689.03 1.034.03.637.01.649.01.863-.6a.428.428 0 01.489-.35c.331.03.665.01 1 .01.769 0 .764 0 1.075.7a.391.391 0 00.253.23c.616.02 1.233.01 1.92.01v-2.99a.232.232 0 01.168.1c.537.89 1.069 1.78 1.611 2.66a.393.393 0 00.244.22c.433.02.868.01 1.3.01v-4.23h-1.026v2.78a1.46 1.46 0 01-.339-.41c-.437-.72-.868-1.45-1.31-2.17a.413.413 0 00-.249-.21c-.459-.03-.919-.01-1.414-.01v3.79zm-24.106 0c-.035 0-.07.01-.105.01l-1.228-2.89c-.386-.92-.384-.92-1.358-.92a2.709 2.709 0 01-.285 0 .317.317 0 00-.363.26c-.334.8-.688 1.6-1.029 2.4-.218.51-.427 1.03-.664 1.6.352 0 .647.02.939-.01a.3.3 0 00.212-.18.89.89 0 011.185-.76 1.389 1.389 0 00.5 0 .772.772 0 011.026.66.366.366 0 00.448.3c.439-.02.881-.02 1.32 0 .314.02.438-.06.426-.41-.027-.79-.009-1.58-.007-2.37 0-.11.012-.22.022-.4a.928.928 0 01.122.17c.352.79.713 1.58 1.049 2.39.266.63.315.68.989.61a.388.388 0 00.258-.18c.258-.55.5-1.11.743-1.67.184-.41.37-.82.555-1.24l.107.03v3.04h1v-4.24c-.464 0-.9.02-1.34 0a.368.368 0 00-.438.3c-.113.33-.259.64-.4.96-.219.51-.442 1.02-.706 1.63-.286-.62-.526-1.15-.771-1.67a2.712 2.712 0 00-.581-1.12 2.638 2.638 0 00-1.245-.1.175.175 0 01-.072 0c-.255-.03-.323.09-.32.33.012.86 0 1.72 0 2.58v.89zm10.775.47c.263 0 .488-.01.713 0a.222.222 0 00.272-.27c-.011-.32.008-.65 0-.97-.009-.22.049-.33.3-.32.32.02.642 0 .963.02a.641.641 0 01.745.74c.047.84.047.84.9.79a.311.311 0 00.121-.05c-.051-.68.247-1.46-.6-1.91a1.127 1.127 0 01.092-.09 1.3 1.3 0 00.487-1.46 1.106 1.106 0 00-1.137-.71c-.8-.01-1.592-.02-2.389-.04h-.455v4.27zm-.74-.87H17.72v-.87h1.583c.756 0 .756 0 .688-.76a.365.365 0 00-.062-.1h-1.607c-.666 0-.666 0-.615-.67a.741.741 0 01.058-.14h2.284v-.83h-3.338v4.21h3.342v-.84zm6.387-3.4c-.247 0-.449.02-.647 0-.289-.03-.36.09-.357.36.015 1.06.006 2.13.006 3.19v.69h1v-4.24zm2.935 1.69c-.022-.03-.045-.07-.067-.1a1.12 1.12 0 00-.54.22 1.5 1.5 0 00-.023.69.179.179 0 00.134.13.189.189 0 00.156-.1c.121-.27.228-.56.34-.84zm12.343 7.22a2.056 2.056 0 01-.424 3.04 3.792 3.792 0 01-1.427.38c-.54.06-1.093 0-1.64.01a.99.99 0 01-.97-.4 7.233 7.233 0 01-3.653.36c-.247-.01-.494.04-.741.04h-4.519a.78.78 0 01-.92-.91 2.62 2.62 0 010-.32.257.257 0 00-.312-.34c-.249 0-.29.11-.294.33-.022 1.14-.128 1.24-1.26 1.24-.119 0-.239.01-.357 0a.733.733 0 01-.791-.82c-.009-.3 0-.61 0-.85-.713.1-1.385.2-2.1.31v.53a.757.757 0 01-.786.83c-.606.01-1.214 0-1.821 0a1.706 1.706 0 01-1.09-.79 2.813 2.813 0 01-.238-.29c-.21.23-.411.42-.587.64a1.167 1.167 0 01-.964.45c-1.178-.01-2.356-.01-3.534-.01a.8.8 0 01-.941-.93v-3.84a.782.782 0 01.931-.93c1.178 0 2.357.01 3.535-.01a1.222 1.222 0 011.079.5c.139.19.316.35.5.56a7.224 7.224 0 01.727-.75 1.287 1.287 0 01.656-.29 58.62 58.62 0 013.248.01 11.383 11.383 0 011.512.27.91.91 0 01.885-.29c.714.01 1.43-.02 2.141.02.533.03 1.061.15 1.655.24a.922.922 0 01.817-.26c.976.01 1.952-.01 2.928.01a3.038 3.038 0 01.686.22.538.538 0 00.277.04c.475-.08.944-.22 1.421-.26.508-.05 1.023 0 1.534-.01a.85.85 0 01.891.45c1.08-.71 2.274-.39 3.422-.44a.715.715 0 01.788.78 2.229 2.229 0 01-.264 1.48zm-23.344 1.3c.383.43.721.83 1.084 1.21a.671.671 0 00.419.19c.463.03.929 0 1.392.02.28.01.347-.1.335-.36-.016-.35 0-.71 0-1.13.642 0 1.226.04 1.8-.01a1.255 1.255 0 001.221-1.4 1.269 1.269 0 00-1.322-1.34c-1.13-.02-2.26-.02-3.391-.02a.61.61 0 00-.394.18c-.378.37-.736.77-1.133 1.19-.355-.39-.7-.75-1.016-1.13a.635.635 0 00-.552-.25c-1.13.01-2.261 0-3.391 0-.115 0-.229.02-.336.03a.948.948 0 00-.035.13c0 1.28 0 2.56-.008 3.84 0 .25.13.27.318.26 1.154 0 2.308.01 3.462-.01a.689.689 0 00.423-.19c.377-.38.73-.78 1.124-1.21zm10.164-.56c.118-.11.226-.2.322-.3a1.227 1.227 0 00.264-1.24.918.918 0 00-.871-.69c-1.029-.05-2.061-.02-3.106-.02v4.22c.258 0 .493-.01.727 0a.2.2 0 00.25-.25c-.007-.33.007-.67 0-1-.007-.21.056-.32.281-.31.356.02.714.01 1.069.03a.621.621 0 01.665.71c.012.26 0 .52 0 .79h1.011c-.074-.71.226-1.48-.613-1.94zm1.254-2.28v4.25h2.651c.782 0 .79-.01.674-.8 0-.01-.015-.01-.06-.07-.589 0-1.217-.02-1.842.01-.36.02-.462-.08-.467-.45 0-.4.158-.45.487-.44.6.02 1.208 0 1.823 0v-.88h-2.245c-.137-.74-.124-.76.55-.76h1.744v-.86h-3.315zm4 4.19c.863 0 1.683.03 2.5-.02a1.054 1.054 0 001.009-.91 1.183 1.183 0 00-1.185-1.59 7.059 7.059 0 01-1.03-.08.963.963 0 01-.367-.3 1.951 1.951 0 01.347-.38.8.8 0 01.385-.03h1.655v-.87c-.751 0-1.485-.02-2.218 0a1.165 1.165 0 00-1.222 1.22 1.127 1.127 0 001.116 1.27c.141.02.284.03.426.04a2.756 2.756 0 01.707.06.506.506 0 01.316.34.613.613 0 01-.331.37 1.329 1.329 0 01-.493.03h-1.62v.85zm7.472-4.18c-.786 0-1.546-.02-2.3.01a1.177 1.177 0 00-1.162 1.21 1.13 1.13 0 001.023 1.25c.186.03.378.04.567.06a4.088 4.088 0 01.707.06.481.481 0 01.3.33.527.527 0 01-.27.36.963.963 0 01-.453.05h-1.712v.91c.647 0 1.264.01 1.88 0a2.68 2.68 0 00.566-.06 1.834 1.834 0 00.561-.22 1.291 1.291 0 00.468-1.43.894.894 0 00-.836-.8 12.129 12.129 0 00-1.348-.13.334.334 0 01-.377-.34.355.355 0 01.387-.38c.273-.01.547-.01.821-.01h1.183v-.87zm-10.327-4.98c.221-.54.424-1.04.627-1.54a.3.3 0 01.093-.01l.661 1.55h-1.381zm-24.1-.01c.222-.54.43-1.05.679-1.65l.681 1.65h-1.36zm15.735-.54h-.142c-.694 0-.762-.07-.646-.77a.285.285 0 01.184-.2c.438 0 .877.01 1.314.03a.422.422 0 01.429.44.442.442 0 01-.429.48c-.235.02-.473 0-.71 0v.02zm-4.846 7.64c-.389.41-.769.81-1.163 1.2a.393.393 0 01-.269.06c-.643.01-1.286-.01-1.928.01-.355.01-.3-.22-.3-.43s-.084-.47.3-.46c.5.02 1 .01 1.5.01.127 0 .254-.01.361-.02a.506.506 0 00.034-.07c.09-.78.09-.78-.695-.78h-1.428a.564.564 0 01-.061-.11c-.056-.67-.056-.67.6-.67.548 0 1.1-.01 1.642.01a.777.777 0 01.457.2c.328.32.615.67.95 1.05zm2.84-1.66v3.37c-.523-.57-.991-1.09-1.448-1.6a.236.236 0 01.018-.22c.45-.5.91-.99 1.43-1.55zm1.062 1.48v-1.06c.489 0 .951-.02 1.411 0a.465.465 0 01.5.5.5.5 0 01-.484.56c-.466.02-.929 0-1.427 0zm5.334-1.06c.225 0 .449-.01.673 0a.43.43 0 01.424.41.406.406 0 01-.357.49 13.313 13.313 0 01-1.413.04.328.328 0 01-.159-.23c-.093-.72-.083-.72.832-.71z" fill="#faf0bf" fill-rule="evenodd"/></svg>