<svg xmlns="http://www.w3.org/2000/svg" width="26" height="27"><defs><linearGradient id="a" x1="1238" y1="471.75" x2="1238" y2="444.75" gradientUnits="userSpaceOnUse"><stop offset="0" stop-color="#b69c59"/><stop offset=".522" stop-color="#fcf2c2"/><stop offset="1" stop-color="#c29b5c"/></linearGradient></defs><path d="M1225 470.5v-22.8a4.469 4.469 0 01.25-.5 1.465 1.465 0 011.24-.747c1.34-.018 2.68-.024 4.03-.03a.124.124 0 00.15-.152l.03-.811a1.023 1.023 0 01.06-.251.8.8 0 01.85-.451.787.787 0 01.66.706c.02.15.02.3.03.453v.5h11.4v-.168c.01-.275.01-.551.03-.824a.75.75 0 01.69-.664.764.764 0 01.85.565 3.319 3.319 0 01.05.448c.01.21 0 .42 0 .637.07 0 .11.009.16.009 1.31.009 2.62.025 3.93.022a1.567 1.567 0 01.78.209 1.454 1.454 0 01.6.622l.21.426v22.8a4.352 4.352 0 01-.35.625 1.491 1.491 0 01-1.21.624q-11.4-.012-22.81 0a1.626 1.626 0 01-.84-.221 1.44 1.44 0 01-.61-.662zm1.61-17.312c0 .057-.01.1-.01.146l.03 14.151c0 .647.02 1.294.04 1.94a.68.68 0 00.64.633h21.37a.56.56 0 00.39-.154.715.715 0 00.27-.553c-.01-.2.01-.4.01-.605q.03-7.709.05-15.417c0-.047-.01-.1-.01-.145h-22.78zm18.71-5.066c0 .151.01.293 0 .434a3.363 3.363 0 01-.03.549.786.786 0 01-1.56 0c-.03-.258-.02-.521-.03-.782v-.2h-11.4v.182c-.01.266 0 .533-.03.8a.785.785 0 01-.79.691.775.775 0 01-.77-.7 7.547 7.547 0 01-.03-.824.713.713 0 01-.01-.146c-.04 0-.07-.006-.09-.006q-1.56.012-3.12.027a.751.751 0 00-.71.34 1.13 1.13 0 00-.13.6c-.01.761-.01 1.523-.02 2.284 0 .04.01.081.01.123h22.8l-.06-2.734a.757.757 0 00-.6-.59c-.65 0-1.31-.03-1.96-.04-.48-.014-.96-.008-1.47-.008zm-1.63 14.374c-.32-.02-.65-.02-.97-.065a.818.818 0 01-.48-1.282.76.76 0 01.63-.342h1.63a.776.776 0 01.59.235.868.868 0 01.16.908.719.719 0 01-.72.5h-.84v.05zm-5.7-1.723c.33.02.66.025.99.064a.732.732 0 01.62.72.782.782 0 01-.79.9c-.6 0-1.19 0-1.79-.024a.771.771 0 01-.63-.72.82.82 0 01.45-.839 1.057 1.057 0 01.35-.062c.27-.008.53 0 .8 0v-.037zm-5.69 1.723c-.33-.02-.66-.02-.99-.066a.825.825 0 01-.47-1.287.791.791 0 01.64-.337h1.61a.768.768 0 01.57.212.847.847 0 01.2.925.733.733 0 01-.72.508c-.28.006-.56 0-.84 0v.049zm5.7 4.178c-.3 0-.59.008-.89 0a.717.717 0 01-.68-.555.8.8 0 01.21-.877.673.673 0 01.39-.182c.62-.02 1.24-.015 1.87-.011a.821.821 0 01-.01 1.628c-.09 0-.17.019-.25.02h-.64v-.022zm-.12-10.081c.33 0 .66-.01.99 0a.745.745 0 01.7.533.866.866 0 01-.27.941.687.687 0 01-.37.144c-.62.014-1.24.02-1.86 0a.749.749 0 01-.68-.692.821.821 0 01.44-.865.643.643 0 01.26-.06c.27-.008.53 0 .79 0zm-5.59 1.67c-.3-.014-.6-.018-.91-.044a.821.821 0 01.01-1.622c.61-.019 1.21-.018 1.82 0a.75.75 0 01.7.809.777.777 0 01-.7.813c-.08 0-.15.019-.23.02h-.68a.018.018 0 01-.01.024zm-.02 6.782c.31 0 .62-.016.93 0a.818.818 0 01-.01 1.62c-.59.019-1.19.018-1.78 0a.761.761 0 01-.72-.8.789.789 0 01.69-.826c.3-.023.59 0 .89 0zm11.43-6.781c-.3-.015-.61-.019-.92-.045a.821.821 0 01.01-1.622c.61-.019 1.21-.009 1.82 0a.821.821 0 01-.01 1.625c-.07 0-.15.019-.22.02h-.68v.02z" transform="translate(-1225 -444.75)" fill-rule="evenodd" fill="url(#a)"/></svg>