<svg xmlns="http://www.w3.org/2000/svg" width="43.38" height="40.032"><defs><linearGradient id="a" x1="1859" y1="856.938" x2="1859" y2="816.906" gradientUnits="userSpaceOnUse"><stop offset="0" stop-color="#b69c59"/><stop offset=".522" stop-color="#fcf2c2"/><stop offset="1" stop-color="#c29b5c"/></linearGradient></defs><path d="M1837.32 829.371c.06-.435.12-.874.21-1.3a11.52 11.52 0 013.34-5.925 17.548 17.548 0 016.99-4.139 22.712 22.712 0 018.07-1.1 21.033 21.033 0 019.46 2.51 14.369 14.369 0 015.72 5.4 10.8 10.8 0 011.42 6.241 12.5 12.5 0 01-6.32 10.125 19.014 19.014 0 01-7.57 2.621 30.583 30.583 0 01-4.71.228c-.44-.007-.88-.07-1.32-.1a.352.352 0 00-.24.058 25.852 25.852 0 01-5.21 3.716 13.845 13.845 0 01-3.57 1.491 4.125 4.125 0 01-.66.1.953.953 0 01-.94-.472 1 1 0 010-1.055c.43-.784.87-1.561 1.27-2.361a8.971 8.971 0 00.93-2.858c0-.024.01-.047.01-.071.06-.484.05-.48-.37-.723a12.522 12.522 0 01-5.75-7.034 13.965 13.965 0 01-.72-3.563c-.01-.062-.03-.124-.04-.186v-1.6zm8.64 16.023c.11-.068.18-.1.24-.149.52-.369 1.06-.713 1.55-1.116 1.15-.951 2.28-1.934 3.42-2.895a.586.586 0 01.37-.117c.6.036 1.2.089 1.8.147a21.182 21.182 0 004.25-.039 16.7 16.7 0 006.18-1.82 11.4 11.4 0 004.94-4.769 9.185 9.185 0 001.05-5.607 8.6 8.6 0 00-2.51-4.9 14.455 14.455 0 00-6.61-3.762 20.581 20.581 0 00-10.65-.165 15.605 15.605 0 00-6.72 3.365 9.248 9.248 0 00-3 4.632 9.615 9.615 0 00.27 5.289 9.875 9.875 0 005.21 6.215c.35.17.69.345 1.03.532a.291.291 0 01.14.21 16.917 16.917 0 01-.18 2.021c-.17.881-.45 1.742-.69 2.611-.02.09-.05.179-.09.317zm34.74-3.548c-.07.468-.13.94-.22 1.4a9.093 9.093 0 01-3.88 5.783c-.52.367-1.07.678-1.62 1a.306.306 0 00-.18.339 14.588 14.588 0 001.36 5.226.924.924 0 010 .962.859.859 0 01-.88.382 6.23 6.23 0 01-2.16-.722 19.4 19.4 0 01-5.03-3.846.6.6 0 00-.52-.195c-1.1.036-2.2.084-3.29.04a17.351 17.351 0 01-5.3-1.039 14.188 14.188 0 01-5.87-3.923c-.1-.107-.19-.217-.31-.363.19 0 .33-.005.47 0a29.81 29.81 0 009.79-1.094 19.456 19.456 0 007.36-3.89 16.691 16.691 0 004.59-6.473 10.439 10.439 0 00.63-2.647c.01-.086.03-.172.05-.3.21.136.4.251.59.373a8.965 8.965 0 013.98 5.094 18.276 18.276 0 01.39 2.085c.02.085.03.171.05.256v1.548zm-33-8.171a2.93 2.93 0 113.02-2.921 2.943 2.943 0 01-3.02 2.921zm18.63-2.936a2.91 2.91 0 11-2.93-2.911 2.928 2.928 0 012.93 2.911zm-10.68-2.912a2.923 2.923 0 11-2.93 2.891 2.929 2.929 0 012.93-2.891z" transform="translate(-1837.31 -816.906)" fill-rule="evenodd" fill="url(#a)"/></svg>