<svg xmlns="http://www.w3.org/2000/svg" width="20.19" height="20.157"><path d="M12.39 10.018c.65.631 1.25 1.212 1.84 1.8 1.8 1.8 3.59 3.6 5.39 5.4a1.673 1.673 0 11-2.29 2.439c-1.3-1.282-2.58-2.585-3.88-3.875-1.13-1.127-2.26-2.248-3.44-3.42-.36.373-.72.765-1.1 1.138q-3 2.973-6.01 5.937a1.674 1.674 0 01-2.69-.316 1.65 1.65 0 01.31-2.038q1.575-1.561 3.15-3.113 1.935-1.918 3.88-3.838c.04-.038.07-.08.18-.193a1.008 1.008 0 01-.25-.152Q4.045 6.352.61 2.909A1.676 1.676 0 112.94.501c.81.8 1.61 1.613 2.42 2.42L9.89 7.46c.06.055.12.106.22.2.24-.256.47-.512.71-.752q3.225-3.2 6.47-6.394a1.664 1.664 0 012.81.65 1.626 1.626 0 01-.45 1.729c-1.3 1.28-2.59 2.558-3.89 3.836q-1.545 1.539-3.11 3.078a3.06 3.06 0 01-.26.211z" fill="#11161c" fill-rule="evenodd"/></svg>