<svg xmlns="http://www.w3.org/2000/svg" width="30" height="30"><defs><linearGradient id="a" x1="1092" y1="651" x2="1092" y2="621" gradientUnits="userSpaceOnUse"><stop offset="0" stop-color="#b69c59"/><stop offset=".522" stop-color="#fcf2c2"/><stop offset="1" stop-color="#c29b5c"/></linearGradient></defs><path d="M1102.6 625.388a14.913 14.913 0 00-10.61-4.394 15 15 0 1010.61 4.394zm.98 17.014h-4.39a19.589 19.589 0 001.02-5.527h4.99a13.127 13.127 0 01-1.62 5.527zm-11.59 6.708a12.475 12.475 0 01-4.54-4.95h9.08a12.475 12.475 0 01-4.54 4.95zm-5.33-6.708a17.747 17.747 0 01-1.13-5.527h12.92a17.747 17.747 0 01-1.13 5.527h-10.66zm-7.88-5.527h4.99a19.589 19.589 0 001.02 5.527h-4.39a13.127 13.127 0 01-1.62-5.527zm1.62-7.285h4.39a19.589 19.589 0 00-1.02 5.527h-4.99a13.127 13.127 0 011.62-5.527zm11.59-6.708a12.475 12.475 0 014.54 4.95h-9.08a12.475 12.475 0 014.54-4.95zm5.33 6.708a17.753 17.753 0 011.13 5.527h-12.92a17.753 17.753 0 011.13-5.527h10.66zm7.88 5.527h-4.99a19.589 19.589 0 00-1.02-5.527h4.39a13.127 13.127 0 011.62 5.527zm-6.72-7.285a15.356 15.356 0 00-3.28-4.685 13.258 13.258 0 017.21 4.685h-3.93zm-9.7-4.685a15.356 15.356 0 00-3.28 4.685h-3.93a13.258 13.258 0 017.21-4.685zm-3.28 21.013a15.373 15.373 0 003.28 4.686 13.265 13.265 0 01-7.21-4.686h3.93zm9.7 4.686a15.373 15.373 0 003.28-4.686h3.93a13.265 13.265 0 01-7.21 4.686zm0 0" transform="translate(-1077 -621)" fill-rule="evenodd" fill="url(#a)"/></svg>