<svg xmlns="http://www.w3.org/2000/svg" width="30" height="20"><defs><linearGradient id="a" x1="952" y1="528.938" x2="952" y2="508.938" gradientUnits="userSpaceOnUse"><stop offset="0" stop-color="#b69c59"/><stop offset=".522" stop-color="#fcf2c2"/><stop offset="1" stop-color="#c29b5c"/></linearGradient></defs><path d="M961.715 512.826L952 521.207l-9.716-8.381a.947.947 0 00-1.317.081.9.9 0 00.082 1.29l10.335 8.913a.946.946 0 001.234 0l10.331-8.913a.9.9 0 00.083-1.29.947.947 0 00-1.317-.081zm0 0l2.484-3.883H939.8a2.774 2.774 0 00-2.8 2.741v14.5a2.774 2.774 0 002.8 2.741h24.4a2.774 2.774 0 002.8-2.741v-14.5a2.774 2.774 0 00-2.8-2.741zm.933 17.24a.926.926 0 01-.933.914H939.8a.925.925 0 01-.933-.914v-14.5a.924.924 0 01.933-.914h24.4a.925.925 0 01.933.914v14.5zm0 0" transform="translate(-937 -508.938)" fill-rule="evenodd" fill="url(#a)"/></svg>