<svg xmlns="http://www.w3.org/2000/svg" width="21" height="21"><defs><linearGradient id="a" x1="482.438" y1="2249.94" x2="482.438" y2="2228.94" gradientUnits="userSpaceOnUse"><stop offset="0" stop-color="#b69c59"/><stop offset=".522" stop-color="#fcf2c2"/><stop offset="1" stop-color="#c29b5c"/></linearGradient></defs><path d="M482.431 2230.83c2.8 0 3.134.01 4.241.06a6.011 6.011 0 011.949.36 3.227 3.227 0 011.206.79 3.271 3.271 0 01.785 1.21 5.758 5.758 0 01.362 1.94c.05 1.11.061 1.44.061 4.25s-.011 3.13-.061 4.24a5.758 5.758 0 01-.362 1.94 3.271 3.271 0 01-.785 1.21 3.227 3.227 0 01-1.206.79 6.011 6.011 0 01-1.949.36c-1.107.05-1.438.06-4.241.06s-3.134-.01-4.24-.06a6.011 6.011 0 01-1.949-.36 3.231 3.231 0 01-1.207-.79 3.3 3.3 0 01-.785-1.21 5.791 5.791 0 01-.361-1.94c-.05-1.11-.061-1.44-.061-4.24s.011-3.14.061-4.25a5.791 5.791 0 01.361-1.94 3.3 3.3 0 01.785-1.21 3.231 3.231 0 011.207-.79 6.011 6.011 0 011.949-.36c1.106-.05 1.438-.06 4.24-.06m0-1.89c-2.85 0-3.207.01-4.327.06a7.657 7.657 0 00-2.547.49 5.358 5.358 0 00-3.069 3.07 7.7 7.7 0 00-.488 2.55c-.051 1.12-.063 1.47-.063 4.33s.012 3.2.063 4.32a7.7 7.7 0 00.488 2.55 5.358 5.358 0 003.069 3.07 7.657 7.657 0 002.547.49c1.12.05 1.477.06 4.327.06s3.208-.01 4.327-.06a7.652 7.652 0 002.547-.49 5.364 5.364 0 003.07-3.07 7.705 7.705 0 00.487-2.55c.052-1.12.063-1.47.063-4.32s-.011-3.21-.063-4.33a7.705 7.705 0 00-.487-2.55 5.364 5.364 0 00-3.07-3.07 7.652 7.652 0 00-2.547-.49c-1.119-.05-1.477-.06-4.327-.06m0 5.11a5.385 5.385 0 105.389 5.39 5.388 5.388 0 00-5.389-5.39m0 8.88a3.5 3.5 0 113.5-3.49 3.492 3.492 0 01-3.5 3.49m6.861-9.1a1.259 1.259 0 11-1.259-1.26 1.256 1.256 0 011.259 1.26" transform="translate(-471.938 -2228.94)" fill-rule="evenodd" fill="url(#a)"/></svg>