<svg xmlns="http://www.w3.org/2000/svg" width="47" height="34"><path d="M23.485 33.99H4.952a4.666 4.666 0 01-4.446-2.62 4.588 4.588 0 01-.5-2.18q-.009-12.2 0-24.39A4.684 4.684 0 014.815 0c2.875-.02 5.75 0 8.625 0h20.139c2.86 0 5.719-.01 8.579 0a4.71 4.71 0 014.832 4.87q.009 12.135 0 24.26a4.685 4.685 0 01-4.879 4.86q-9.313.015-18.626 0zm-.032-1.87c6.148 0 12.3.01 18.445-.01a4.126 4.126 0 001.6-.31 2.822 2.822 0 001.615-2.86c-.006-3.92 0-7.84 0-11.76V5.05a3.247 3.247 0 00-.591-2.04 3.051 3.051 0 00-2.627-1.13H5.054a2.9 2.9 0 00-3.17 3.17c-.008.99 0 1.97 0 2.95q0 10.5.014 20.99a3.744 3.744 0 00.322 1.55 2.807 2.807 0 002.784 1.58h18.445zm.755-8a10.233 10.233 0 002.664-4.37.526.526 0 00-.116-.01h-.658a9.4 9.4 0 01-2.464 3.89 9.41 9.41 0 01-2.445-3.88.46.46 0 00-.111-.01h-.636a6.177 6.177 0 00.6 1.6 9.684 9.684 0 00.894 1.47 9.877 9.877 0 001.119 1.3 9.26 9.26 0 01-12.348-.48 9.443 9.443 0 01-.343-13.28 9.256 9.256 0 0112.678-.85c-.281.32-.577.63-.84.97a10.775 10.775 0 00-.737 1.06c-.221.36-.41.75-.594 1.13a7.187 7.187 0 00-.45 1.22h.772a9.53 9.53 0 012.445-3.89 9.457 9.457 0 012.46 3.89h.774a9.18 9.18 0 00-.631-1.6 10.184 10.184 0 00-.893-1.46 9.972 9.972 0 00-1.132-1.3 9.269 9.269 0 0112.042.18 9.445 9.445 0 01.635 13.62 9.309 9.309 0 01-12.685.8zm-14.094-8.01h.033l.245 2.92h.157c.193 0 .386-.01.578 0a.213.213 0 00.226-.15c.378-.86.764-1.72 1.148-2.59.019-.04.042-.08.063-.13-.154.96-.341 1.9-.511 2.86h.975c.263-1.4.524-2.79.784-4.2h-1.546c-.381.83-.746 1.67-1.153 2.49l-.178-2.48H9.422c-.268 1.39-.537 2.78-.807 4.19h.942c.186-.98.372-1.94.557-2.91zm27.285-.17c-.076-.08-.135-.13-.192-.19a.649.649 0 00-.444-.22 2.39 2.39 0 00-.706.03 1.268 1.268 0 00-.794.56 3.073 3.073 0 00-.409.96 1.816 1.816 0 00-.028.83 1.5 1.5 0 00.529.93.817.817 0 00.623.17 1.531 1.531 0 00.586-.19c.037-.02.074-.04.12-.07a1.153 1.153 0 01.076.17.141.141 0 00.158.11c.265-.01.531 0 .8-.01a.436.436 0 00.112-.01l.818-4.4h-.991c-.088.44-.171.87-.258 1.33zm-5.186 3.08c.013-.04.026-.08.034-.11l.314-1.58a3.3 3.3 0 00.092-.78.967.967 0 00-.721-.95 2.463 2.463 0 00-.468-.08 6.362 6.362 0 00-1.154.06l-.278.06c-.041.25-.108.49-.13.74.291-.03.563-.07.837-.09a5.115 5.115 0 01.678.01.26.26 0 01.246.3.922.922 0 01-.026.16h-.227a3.34 3.34 0 00-.834.07 1.351 1.351 0 00-1.119 1.09 1.037 1.037 0 000 .43.875.875 0 00.687.66 1.456 1.456 0 00.688-.02 3.309 3.309 0 00.4-.14.717.717 0 00.075.12.175.175 0 00.092.05c.269.01.538 0 .814 0zm-16.536-2.26h-.231a3.452 3.452 0 00-.848.07 1.361 1.361 0 00-1.126 1.19.835.835 0 00.3.79 1 1 0 00.641.23 1.516 1.516 0 00.831-.2.642.642 0 01.055.07.19.19 0 00.209.12c.115-.01.231 0 .347 0h.394c.015-.07.028-.13.039-.19.074-.37.15-.74.219-1.11.061-.32.132-.64.166-.97a1.011 1.011 0 00-.884-1.2c-.023-.01-.047-.01-.071-.02a4.908 4.908 0 00-1.211.02c-.147.02-.293.05-.443.07-.049.25-.1.5-.143.74a.2.2 0 00.069.01c.263-.03.526-.07.79-.09a4.673 4.673 0 01.648.01.261.261 0 01.259.32c.004.04-.004.08-.01.14zm14.277-1.61l-.046-.05a1.65 1.65 0 00-1.5-.47 2.089 2.089 0 00-1.416.85 2.722 2.722 0 00-.522 2.13 1.562 1.562 0 001.2 1.35 2.407 2.407 0 001.542-.13c.016-.01.028-.03.042-.04l-.135-.42c-.045-.14-.091-.27-.138-.41a1.744 1.744 0 01-.671.09.844.844 0 01-.8-.63 1.454 1.454 0 01.365-1.44 1.149 1.149 0 01.914-.36 1.39 1.39 0 01.547.16c.213-.22.412-.42.618-.63zm-5.826 2.31a2.622 2.622 0 00.066-.96 1.009 1.009 0 00-.767-.9 1.993 1.993 0 00-.686-.08 1.548 1.548 0 00-1.213.61 2.143 2.143 0 00-.425 1.63A1.386 1.386 0 0022.332 19a3.684 3.684 0 001-.01c.139-.01.275-.05.412-.07a.18.18 0 00.152-.17c.022-.16.064-.32.1-.48a1.1 1.1 0 00.009-.11.585.585 0 01-.125.01l-1.053.06a1.833 1.833 0 01-.33-.03.539.539 0 01-.4-.74h2.034zm-7.542 1.44a.384.384 0 00.083.02 4.483 4.483 0 001.265.1 2.016 2.016 0 00.345-.04 1.1 1.1 0 00.942-1.19.671.671 0 00-.33-.59c-.211-.13-.428-.25-.642-.37a.728.728 0 01-.144-.09.266.266 0 01-.088-.28.234.234 0 01.237-.16c.245 0 .49.01.736.02a.982.982 0 01.161.02c.073-.24.142-.46.214-.7-.08-.02-.147-.05-.216-.06a2.933 2.933 0 00-1.064-.05 1.694 1.694 0 00-.62.19.887.887 0 00-.442.52 1.373 1.373 0 00-.059.57.633.633 0 00.389.55c.249.12.489.26.729.39a.281.281 0 01.147.32.259.259 0 01-.267.2 4.754 4.754 0 01-.924-.01 13 13 0 00-.322-.06l-.13.7zm3.467-4.25a.338.338 0 00-.02.05c-.213 1.08-.428 2.16-.637 3.24a1.542 1.542 0 00-.028.4.677.677 0 00.444.63 1.209 1.209 0 00.967-.07.124.124 0 00.061-.07c.023-.22.041-.43.061-.66a2.761 2.761 0 01-.288 0 .239.239 0 01-.243-.27 1.116 1.116 0 01.018-.2c.055-.3.112-.6.169-.9l.094-.47h.48c.056-.26.111-.5.169-.76h-.5l.188-.92h-.931zm13.486 4.36c.012-.05.024-.09.032-.13.081-.44.161-.89.243-1.33a2.052 2.052 0 01.307-.79.663.663 0 01.57-.32.35.35 0 00.1-.01c.082-.29.176-.58.243-.89a1.208 1.208 0 00-.893.32c-.031-.11-.059-.22-.084-.31a3.672 3.672 0 00-.824.01q-.319 1.71-.641 3.45h.945zM24.8 15.58l-.215 1.14c-.071.39-.143.77-.213 1.16s-.15.75-.2 1.14h.929c.011-.05.021-.08.028-.12.087-.47.169-.94.26-1.4a1.775 1.775 0 01.3-.73.657.657 0 01.542-.29.52.52 0 00.12-.01l.236-.9a1.215 1.215 0 00-.893.33c-.031-.12-.057-.22-.085-.32H24.8zm12.328 1.41a1.388 1.388 0 01-.352.86.878.878 0 01-.166.14.5.5 0 01-.716-.21.693.693 0 01-.078-.46 1.3 1.3 0 01.395-.77.639.639 0 01.378-.2.388.388 0 01.46.26 3.192 3.192 0 01.079.38zm-5.644.48a3.653 3.653 0 01-.087.42.644.644 0 01-.832.34.274.274 0 01-.148-.33.63.63 0 01.4-.42 1.068 1.068 0 01.667-.01zm-15.966.01c-.028.14-.045.27-.084.4a.644.644 0 01-.838.35.276.276 0 01-.132-.37.664.664 0 01.519-.42 1.1 1.1 0 01.535.04zm7.777-.65h-1.136a.676.676 0 01.582-.61.34.34 0 01.1-.01.434.434 0 01.454.62z" fill="#faf0bf" fill-rule="evenodd"/></svg>