<svg xmlns="http://www.w3.org/2000/svg" width="29" height="30"><defs><linearGradient id="a" x1="951.406" y1="413.563" x2="951.406" y2="383.563" gradientUnits="userSpaceOnUse"><stop offset="0" stop-color="#b69c59"/><stop offset=".522" stop-color="#fcf2c2"/><stop offset="1" stop-color="#c29b5c"/></linearGradient></defs><path d="M961.688 402.946a14.435 14.435 0 00-5.529-3.575 8.789 8.789 0 003.561-8.443 8.4 8.4 0 00-16.735 1.3 8.752 8.752 0 003.653 7.148 14.446 14.446 0 00-5.53 3.575 15.088 15.088 0 00-4.208 9.349 1.138 1.138 0 102.267.186 12.253 12.253 0 0124.469 0 1.138 1.138 0 102.267-.186 15.09 15.09 0 00-4.215-9.354zm-10.29-4.394a6.332 6.332 0 116.14-6.329 6.243 6.243 0 01-6.138 6.329z" transform="translate(-936.906 -383.563)" fill-rule="evenodd" fill="url(#a)"/></svg>