<svg xmlns="http://www.w3.org/2000/svg" width="22" height="30"><defs><linearGradient id="a" x1="951.25" y1="591.625" x2="951.25" y2="561.625" gradientUnits="userSpaceOnUse"><stop offset="0" stop-color="#b69c59"/><stop offset=".522" stop-color="#fcf2c2"/><stop offset="1" stop-color="#c29b5c"/></linearGradient></defs><path d="M951.743 561.635c.282.038.567.064.847.117a8.157 8.157 0 016.669 7.9c.014.7.008 1.408 0 2.112a1.02 1.02 0 01-.711 1.007.993.993 0 01-1.123-.412 1.1 1.1 0 01-.17-.623c0-.694.015-1.389-.008-2.082a6.023 6.023 0 00-2.469-4.811 5.717 5.717 0 00-4.065-1.154 6.077 6.077 0 00-5.3 4.713 7.756 7.756 0 00-.154 1.746c.015 1.179.021 2.357.032 3.536 0 .045 0 .09.008.152h12.874a4 4 0 013.992 3.226 4.326 4.326 0 01.086.91q.009 4.767 0 9.535a4.044 4.044 0 01-3.226 4.049c-.142.029-.284.051-.426.077h-14.684c-.033-.009-.066-.019-.1-.027a7.974 7.974 0 01-.974-.245 4.04 4.04 0 01-2.585-3.881v-9.121a8.734 8.734 0 01.023-.887 4.029 4.029 0 012.852-3.454.183.183 0 00.158-.219q-.021-1.944-.033-3.887a8.048 8.048 0 01.964-3.978 7.912 7.912 0 015.7-4.182c.285-.055.574-.081.862-.12h.963zm-.482 27.965h6.91a2.016 2.016 0 002.092-2.126v-9.551a2.017 2.017 0 00-2.014-2.051h-13.985a2.01 2.01 0 00-2 2.018q-.008 4.844 0 9.688a1.884 1.884 0 00.2.87 2 2 0 001.919 1.154l6.878-.002zm-1-7.631v-2.051a1 1 0 01.8-.978.983.983 0 011.107.591 1.058 1.058 0 01.083.383q.009 2.05 0 4.1a1 1 0 11-1.99 0c-.002-.676.004-1.359.004-2.043z" transform="translate(-940.25 -561.625)" fill-rule="evenodd" fill="url(#a)"/></svg>