<svg xmlns="http://www.w3.org/2000/svg" width="47" height="34"><path d="M23.485 33.99H4.952a4.666 4.666 0 01-4.446-2.62 4.588 4.588 0 01-.5-2.18q-.009-12.2 0-24.39A4.684 4.684 0 014.815 0c2.875-.02 5.75 0 8.625 0h20.139c2.86 0 5.719-.01 8.579 0a4.71 4.71 0 014.832 4.87q.01 12.135 0 24.26a4.685 4.685 0 01-4.879 4.86q-9.313.015-18.626 0zm-.032-1.87c6.148 0 12.3.01 18.445-.01a4.126 4.126 0 001.6-.31 2.822 2.822 0 001.615-2.86c-.006-3.92 0-7.84 0-11.76V5.05a3.247 3.247 0 00-.591-2.04 3.049 3.049 0 00-2.627-1.13H5.054a2.9 2.9 0 00-3.17 3.17c-.008.99 0 1.97 0 2.95q0 10.5.013 20.99a3.744 3.744 0 00.322 1.55 2.807 2.807 0 002.784 1.58h18.445zm7.37-19.88a2.314 2.314 0 00.371.05 2.385 2.385 0 011.237.55 1.618 1.618 0 01.535 1.1 3.776 3.776 0 01-.565 2.39 2.609 2.609 0 01-1.715 1.15 5.324 5.324 0 01-1.2.11h-.7a.4.4 0 00-.441.37c-.084.52-.164 1.04-.246 1.56-.026.17-.05.33-.076.49a.277.277 0 01-.285.25q-.732.015-1.463 0a.243.243 0 01-.243-.31c.122-.76.241-1.53.362-2.29l.325-2.06c.108-.68.215-1.37.323-2.06l.15-.96a.431.431 0 01.313-.34h3.317zm-1.661 3.74a4.222 4.222 0 00.71-.04 1.019 1.019 0 00.889-.79 1.854 1.854 0 00.064-.5.71.71 0 00-.624-.76 5.641 5.641 0 00-1.006-.05.238.238 0 00-.229.21c-.018.08-.029.17-.043.25-.084.54-.167 1.08-.254 1.61-.01.06.006.07.058.07h.435zm-18.889-3.74a2.317 2.317 0 00.37.05 2.385 2.385 0 011.237.55 1.612 1.612 0 01.536 1.11 3.805 3.805 0 01-.566 2.38 2.645 2.645 0 01-1.714 1.15 4.689 4.689 0 01-1.056.11h-.862a.4.4 0 00-.422.36q-.153.96-.3 1.92a.411.411 0 01-.452.39c-.42.01-.84 0-1.26.01a.3.3 0 01-.309-.19v-.13a.135.135 0 00.014-.03c.094-.6.188-1.19.281-1.79.139-.88.277-1.76.415-2.65.147-.93.3-1.86.437-2.79a.485.485 0 01.335-.45h3.317zm-1.665 3.74a4.222 4.222 0 00.711-.04 1 1 0 00.846-.66 1.776 1.776 0 00.108-.65.686.686 0 00-.562-.72 3.955 3.955 0 00-1.086-.06.228.228 0 00-.22.22c-.1.62-.191 1.23-.29 1.84-.009.06.008.07.058.07h.435zm33.741-3.74a.3.3 0 01.154.36c-.178 1.1-.348 2.2-.521 3.29-.181 1.16-.362 2.32-.543 3.47-.029.19-.059.37-.089.55a.39.39 0 01-.392.35q-.592.015-1.186 0a.228.228 0 01-.24-.28c.041-.31.092-.61.14-.92l.306-1.95.3-1.94c.1-.65.2-1.31.306-1.96.039-.25.078-.49.115-.74a.3.3 0 01.181-.23h1.464zM16.855 15.5l.053-.35a.249.249 0 01.275-.24h1.325a.242.242 0 01.255.31l-.424 2.69c-.106.67-.209 1.34-.317 2.01a.393.393 0 01-.413.34h-1.2a.242.242 0 01-.262-.31c.018-.11.035-.22.056-.34a2.985 2.985 0 01-.454.36 2.739 2.739 0 01-2.346.28 1.9 1.9 0 01-1.295-1.43 3.2 3.2 0 01.724-2.97 2.93 2.93 0 011.869-1.04 3.082 3.082 0 011.445.12 1.22 1.22 0 01.651.5.442.442 0 01.058.07zm-1.394.75a1.6 1.6 0 00-.681.15 1.575 1.575 0 00-.891 1.54.994.994 0 00.741.93 1.56 1.56 0 001.943-1.1 1.335 1.335 0 00-.033-.87 1.075 1.075 0 00-1.079-.65zm21.3 3.36a2.515 2.515 0 01-.916.59 2.666 2.666 0 01-1.964.02 1.952 1.952 0 01-1.218-1.41 3.065 3.065 0 01.166-2.05 3.1 3.1 0 011.989-1.85 3.028 3.028 0 011.971.06 1.078 1.078 0 01.557.44.167.167 0 00.065.07c.016-.1.035-.2.047-.29a.263.263 0 01.31-.28h1.27a.248.248 0 01.277.33l-.555 3.51-.172 1.12a.413.413 0 01-.454.39h-1.131a.25.25 0 01-.29-.33c.014-.1.024-.2.046-.32zm-1.16-.68a1.793 1.793 0 00.782-.2 1.549 1.549 0 00.778-1.58.94.94 0 00-.6-.79 1.462 1.462 0 00-1.478.19 1.541 1.541 0 00-.635 1.37.957.957 0 00.456.82 1.407 1.407 0 00.695.19zM22.253 17.9c.024-.03.045-.06.063-.08l1.8-2.67a.5.5 0 01.446-.24q.639.015 1.278 0a.251.251 0 01.249.13.246.246 0 01-.035.28c-1.524 2.21-3.048 4.41-4.571 6.62a.382.382 0 01-.333.17c-.472-.01-.945 0-1.417 0a.216.216 0 01-.192-.33c.014-.03.034-.05.051-.08.444-.63.888-1.26 1.334-1.88a.2.2 0 00.032-.2c-.494-1.44-.983-2.89-1.473-4.33a.322.322 0 01-.028-.19.221.221 0 01.221-.18q.705-.015 1.408 0a.384.384 0 01.36.31l.388 1.29.39 1.31c.008.02.013.04.027.07z" fill="#faf0bf" fill-rule="evenodd"/></svg>