<svg xmlns="http://www.w3.org/2000/svg" width="27.97" height="30"><defs><linearGradient id="a" x1="1237.825" y1="534" x2="1237.825" y2="504" gradientUnits="userSpaceOnUse"><stop offset="0" stop-color="#b69c59"/><stop offset=".522" stop-color="#fcf2c2"/><stop offset="1" stop-color="#c29b5c"/></linearGradient></defs><path d="M1235.73 517.411l12.32-9.49a12.538 12.538 0 00-9.11-3.932 1.064 1.064 0 000 2.127 10.563 10.563 0 017.67 3.308 11.5 11.5 0 013.17 7.987 1.021 1.021 0 102.04 0 13.63 13.63 0 00-3.77-9.49zm-4.2 9.49a1.021 1.021 0 102.04 0 7.1 7.1 0 00-6.95-7.242 1.064 1.064 0 000 2.127 5.021 5.021 0 0117.23-4.375zm-2.26 5.423a3.068 3.068 0 00-2.72 1.7 1.093 1.093 0 00.26 1.478 1 1 0 001.42-.276c.45-.684.65-.792.93-.779.88.109 4.36 2.765 4.71 3.6a1.153 1.153 0 01-.01.777 3.657 3.657 0 01-1.75 2.3 3.145 3.145 0 01-2.62-.093 28.736 28.736 0 01-9.46-6.419 30.112 30.112 0 01-6.15-9.847 3.53 3.53 0 01-.09-2.734 3.569 3.569 0 012.2-1.822 1.034 1.034 0 01.75-.011c.8.365 3.34 3.99 3.45 4.9a1.15 1.15 0 01-.75.977 1.106 1.106 0 00-.27 1.478 1 1 0 001.42.278 3.211 3.211 0 001.63-2.846c-.08-1.7-3.25-6.2-4.77-6.779a2.97 2.97 0 00-2.11-.012 5.527 5.527 0 00-3.4 2.951 5.7 5.7 0 00.05 4.422 32.4 32.4 0 006.6 10.552.039.039 0 00.02.021 30.7 30.7 0 0010.11 6.865 5.83 5.83 0 002.28.5 4.49 4.49 0 001.96-.44 5.676 5.676 0 002.83-3.551 3.358 3.358 0 00-.01-2.192c11.76-11.091 7.45-14.396 5.81-14.488z" transform="translate(-1223.84 -504)" fill-rule="evenodd" fill="url(#a)"/></svg>