<svg xmlns="http://www.w3.org/2000/svg" width="47" height="34"><path data-name="visa electron" d="M23.485 33.99H4.952a4.666 4.666 0 01-4.446-2.62 4.588 4.588 0 01-.5-2.18q-.009-12.2 0-24.39A4.684 4.684 0 014.815 0c2.875-.02 5.75 0 8.625 0h20.139c2.86 0 5.719-.01 8.579 0a4.709 4.709 0 014.832 4.87q.009 12.135 0 24.26a4.685 4.685 0 01-4.879 4.86q-9.313.015-18.626 0zm-.032-1.87c6.148 0 12.3.01 18.445-.02a3.943 3.943 0 001.6-.3 2.822 2.822 0 001.615-2.86c-.006-3.92 0-7.84 0-11.76V5.05a3.247 3.247 0 00-.591-2.04 3.051 3.051 0 00-2.627-1.13H5.054a2.9 2.9 0 00-3.17 3.17c-.008.99 0 1.97 0 2.95q0 10.5.014 20.99a3.744 3.744 0 00.322 1.55 2.807 2.807 0 002.784 1.58h18.445zm3.185-18.61a1.761 1.761 0 01.091-.2q1.554-2.925 3.111-5.85a.229.229 0 01.214-.17c.671.01 1.341.01 2.012.01a.555.555 0 01.115.01l.558 6.18a1.466 1.466 0 01-.19.02c-.449 0-.9-.01-1.348 0a.171.171 0 01-.213-.21v-.71c-.7 0-1.345-.01-1.991 0a.209.209 0 00-.141.11c-.114.22-.211.46-.325.68a.222.222 0 01-.136.12c-.57.01-1.142.01-1.758.01zm4.137-4.97c-.421.94-.845 1.88-1.273 2.83h1.378l-.105-2.83zm-14.911 2.58c.675-1.19 1.386-2.44 2.1-3.69a.294.294 0 01.2-.15c.5-.01 1.009 0 1.514 0a.983.983 0 01.131.02c-.067.12-.123.23-.182.33q-1.619 2.865-3.234 5.73a.249.249 0 01-.243.15q-.711-.015-1.423 0a.161.161 0 01-.2-.17c-.128-1.19-.263-2.38-.4-3.56-.051-.45-.083-.9-.162-1.34a1.072 1.072 0 00-1.073-.94c-.072-.01-.172 0-.137-.11a.194.194 0 01.148-.11c.85-.01 1.7 0 2.549-.01.136 0 .157.07.164.19.091 1.25.173 2.5.248 3.66zm-1.387 8.09a.157.157 0 01.1-.25c.806-.37 1.607-.75 2.42-1.11a33.793 33.793 0 015.721-1.91 26.543 26.543 0 014.061-.65c.938-.06 1.879-.13 2.819-.12 1.044.01 2.087.11 3.131.16a.128.128 0 01.14.15l-.083 1.89a29.381 29.381 0 00-18.309 1.84zm7.072-6.26c.273-.42.536-.82.81-1.24.147.08.287.16.422.24a2.6 2.6 0 001.467.36.705.705 0 00.642-.36.35.35 0 00-.065-.49 5.021 5.021 0 00-.507-.37c-.3-.2-.614-.39-.891-.62a1.775 1.775 0 01.3-2.97 3.048 3.048 0 011.824-.34 3.592 3.592 0 011.751.63 1.878 1.878 0 00.154.12l-.927 1.1a5.71 5.71 0 00-.386-.27 1.486 1.486 0 00-1.153-.27.923.923 0 00-.32.13.4.4 0 00-.075.63 3.433 3.433 0 00.445.35c.335.24.69.46 1.01.72a1.608 1.608 0 01.666 1.07 1.674 1.674 0 01-.069.71 2.252 2.252 0 01-2.023 1.57 4.655 4.655 0 01-2.98-.64.719.719 0 01-.095-.06zM6.628 20.73h4.075v1.24a1.71 1.71 0 01-.222.01c-.69 0-1.38.01-2.069 0a.181.181 0 00-.222.23c.013.28 0 .55 0 .86h.22c.689 0 1.379 0 2.068-.01.156 0 .222.04.214.21-.013.28-.009.56 0 .84a.157.157 0 01-.191.19c-.7-.01-1.391-.01-2.087-.01h-.236v1.1h.208c.7 0 1.392.01 2.087 0a.161.161 0 01.2.2c-.01.3-.007.59 0 .89a.143.143 0 01-.167.18c-1.243 0-2.487-.01-3.731 0-.18 0-.156-.11-.156-.22v-5.48c-.002-.07.005-.15.009-.23zm26.819 1.43a2.207 2.207 0 011.788.79 2.44 2.44 0 01.356 2.45 2.028 2.028 0 01-1.772 1.37 2.968 2.968 0 01-1.561-.15 2.2 2.2 0 01-1.333-2.32 2.128 2.128 0 01.954-1.75 2.721 2.721 0 011.568-.39zm-1.038 2.36a5.216 5.216 0 00.161.63.754.754 0 00.788.49.777.777 0 00.766-.53 1.743 1.743 0 00.037-1.14.8.8 0 00-.821-.64.791.791 0 00-.825.63c-.049.17-.066.35-.106.56zm5.6 2.12h-1.5v-4.31h1.506l.028.4c.077-.06.133-.1.189-.14a1.978 1.978 0 011.213-.43 1.248 1.248 0 011.337 1.22c.039.46.037.92.039 1.37 0 .57-.016 1.14-.015 1.71a.163.163 0 01-.2.2c-.369-.01-.739-.01-1.108 0a.169.169 0 01-.209-.21c.012-.73.01-1.46.013-2.19v-.2a.51.51 0 00-.794-.51 1.038 1.038 0 00-.15.08.523.523 0 00-.334.56c.023.77 0 1.54 0 2.3-.004.05-.01.09-.014.15zm-19.455-1.81h-2.947a.785.785 0 00.617.82 1.662 1.662 0 001.214-.17c.117-.06.231-.13.364-.21.158.27.316.54.458.81a.207.207 0 01-.074.17 2.818 2.818 0 01-1.11.48 2.986 2.986 0 01-1.425-.01 2.032 2.032 0 01-1.578-1.88 2.359 2.359 0 011.779-2.61 2.067 2.067 0 012.094.54 2.427 2.427 0 01.559 1.41c.032.2.032.41.05.65zm-1.4-.92a.675.675 0 00-.61-.79.925.925 0 00-.9.79h1.514zm6.391-1.6h.666v-1.45h1.349c.124 0 .115.09.113.17l-.03 1.02v.27h.814c.407 0 .4 0 .383.42-.01.22 0 .44 0 .68h-1.2a.854.854 0 00-.026.09c-.014.49-.033.98-.04 1.47-.007.54.27.7.76.46l.2-.1c.108.33.214.65.311.97a.146.146 0 01-.07.11 2.6 2.6 0 01-1.825.34.9.9 0 01-.789-.9c-.037-.65-.015-1.32-.018-1.98v-.45h-.6v-1.12zm-.528.24c-.169.34-.329.67-.485.98a5.21 5.21 0 00-.609-.14 1.124 1.124 0 00-1.261.74 1.087 1.087 0 00.259 1.15 1.057 1.057 0 001.145.24c.14-.04.274-.11.434-.17.177.33.354.65.538 1a2.826 2.826 0 01-.946.37 2.757 2.757 0 01-1.633-.07 1.938 1.938 0 01-1.3-1.45 2.652 2.652 0 01.1-1.58 2.154 2.154 0 011.719-1.41 3.107 3.107 0 011.805.21c.066.03.134.08.231.13zm-4.239-9.04c.146-.49.281-.93.416-1.38.468-1.55.938-3.09 1.4-4.64a.243.243 0 01.275-.22c.425.01.85 0 1.275.01a1.767 1.767 0 01.218.01l-.411 1.37c-.468 1.54-.939 3.09-1.4 4.64a.245.245 0 01-.3.21c-.477-.01-.957 0-1.476 0zm-7.066 6.7h.625c.234 0 .468.01.7 0a.148.148 0 01.182.18v6.04a.187.187 0 01-.24.23c-.363-.01-.727-.01-1.09 0a.165.165 0 01-.2-.2c.005-1.15 0-2.29 0-3.44v-2.63c.007-.05.014-.1.02-.18zm15.862 6.44v-4.32h1.494v.52c.012 0 .024.01.035.01.037-.05.076-.1.112-.15a1.221 1.221 0 011.335-.48.187.187 0 01.112.12c-.053.46-.118.92-.182 1.39-.12-.02-.222-.03-.322-.05a1.043 1.043 0 00-1 .35.4.4 0 00-.079.23c-.012.72-.022 1.44-.02 2.16 0 .17-.039.24-.223.23-.357-.01-.714 0-1.071 0-.067 0-.128-.01-.194-.01z" fill="#faf0bf" fill-rule="evenodd"/></svg>