<svg xmlns="http://www.w3.org/2000/svg" width="47.406" height="34"><path d="M23.679 33.99H4.986a4.714 4.714 0 01-4.484-2.62 4.506 4.506 0 01-.5-2.17q-.009-12.2 0-24.37A4.7 4.7 0 014.853.03c2.9-.02 5.8 0 8.7 0h20.313c2.884 0 5.768-.01 8.652 0a4.729 4.729 0 014.874 4.87q.01 12.12 0 24.23a4.711 4.711 0 01-4.921 4.86q-9.399.015-18.792 0zm-.032-1.87c6.2 0 12.4.01 18.6-.02a4.006 4.006 0 001.613-.3 2.813 2.813 0 001.629-2.85c-.006-3.92 0-7.84 0-11.75V5.08a3.209 3.209 0 00-.6-2.04 3.1 3.1 0 00-2.65-1.14q-12.841.015-25.683.01H5.09a2.909 2.909 0 00-3.2 3.17c-.008.98 0 1.96 0 2.95q0 10.485.014 20.96a3.7 3.7 0 00.324 1.55 2.836 2.836 0 002.808 1.58h18.6zm14.176-20.17c.724 3.51 1.44 6.97 2.167 10.49-.8 0-1.569.01-2.333-.01a.445.445 0 01-.261-.28 2.668 2.668 0 00-.368-1.13 2.209 2.209 0 00-1.166-.06c-.617-.01-1.234 0-1.85-.01a.44.44 0 00-.509.34 2.252 2.252 0 01-.509 1.09 2.679 2.679 0 01-1.218.07h-1.458c.065-.19.106-.32.164-.46 1.408-3.21 2.823-6.43 4.22-9.65a.556.556 0 01.614-.4c.834.02 1.658.01 2.507.01zm-1.089 6.97l-.76-3.76c-.032-.01-.063-.01-.095-.02-.477 1.25-.954 2.5-1.445 3.78h2.3zm-13.695 1.03a6.322 6.322 0 003.025.57.656.656 0 00.139-.01 1.272 1.272 0 001.322-.8 1.2 1.2 0 00-.839-1.24c-.494-.28-1-.54-1.49-.83a2.808 2.808 0 01-1.5-2.79 2.944 2.944 0 011.813-2.58 6.658 6.658 0 015.235.03l-.427 2.24c-.372-.17-.713-.33-1.064-.46a3.027 3.027 0 00-1.993-.03.965.965 0 00-.743.74.753.753 0 00.465.82c.668.41 1.37.77 2.034 1.18a2.52 2.52 0 011.3 2.72 3.6 3.6 0 01-1.654 2.24 6.13 6.13 0 01-5.78.55.493.493 0 01-.274-.37c.116-.65.275-1.28.431-1.98zm-9.957-.67c.219-.63.42-1.2.615-1.77.592-1.72 1.188-3.44 1.765-5.17a.475.475 0 01.551-.4c.83.03 1.662.01 2.565.01-.074.2-.127.37-.193.53-1.29 3.18-2.587 6.36-3.867 9.55a.558.558 0 01-.64.42c-.77-.03-1.542.01-2.312-.02a.476.476 0 01-.366-.27c-.722-2.67-1.424-5.33-2.128-8a.83.83 0 01.031-.19 9.433 9.433 0 013.979 5.31zm4.959 3.14c.556-3.51 1.1-6.98 1.654-10.45h2.831L20.84 22.42h-2.8zM6.176 11.97c1.367 0 2.734-.03 4.1.01a1.586 1.586 0 011.576 1.46c.227 1.16.461 2.32.691 3.47a1.24 1.24 0 01.017.33c-1.323-2.73-3.736-4.11-6.384-5.27z" fill="#faf0bf" fill-rule="evenodd"/></svg>