<svg xmlns="http://www.w3.org/2000/svg" width="24" height="24"><defs><linearGradient id="a" x1="545" y1="2251.5" x2="545" y2="2227.5" gradientUnits="userSpaceOnUse"><stop offset="0" stop-color="#b69c59"/><stop offset=".522" stop-color="#fcf2c2"/><stop offset="1" stop-color="#c29b5c"/></linearGradient></defs><path d="M557 2238.89a11.785 11.785 0 00-23.548-.21c-.006.17-.011.34-.011.51a11.623 11.623 0 001.687 6.04L533 2251.5l6.525-2.07a11.871 11.871 0 005.693 1.45A11.733 11.733 0 00557 2239.19v-.3zm-11.777 10.13a9.881 9.881 0 01-5.45-1.63l-3.806 1.21 1.235-3.65a9.717 9.717 0 01-1.886-5.76 9.3 9.3 0 01.049-.95 9.911 9.911 0 0119.732.18c.022.26.033.51.033.77a9.881 9.881 0 01-9.912 9.83zm5.4-7.47c-.292-.14-1.71-.84-1.975-.93a.455.455 0 00-.651.14c-.193.29-.75.93-.915 1.12a.443.443 0 01-.629.07 7.726 7.726 0 01-2.322-1.42 8.613 8.613 0 01-1.606-1.98.413.413 0 01.127-.58c.133-.14.287-.34.436-.51.039-.05.072-.09.105-.13a3.741 3.741 0 00.182-.35.515.515 0 00-.022-.5c-.072-.14-.651-1.55-.894-2.13s-.479-.47-.651-.47-.358-.03-.551-.03a1.057 1.057 0 00-.772.36 3.209 3.209 0 00-1.01 2.39 3.656 3.656 0 00.149.98 6.6 6.6 0 001.032 1.99 11.889 11.889 0 004.931 4.32c2.94 1.15 2.94.77 3.47.72a2.889 2.889 0 001.947-1.37 2.357 2.357 0 00.171-1.36 1.559 1.559 0 00-.557-.33z" transform="translate(-533 -2227.5)" fill-rule="evenodd" fill="url(#a)"/></svg>