<svg xmlns="http://www.w3.org/2000/svg" xmlns:xlink="http://www.w3.org/1999/xlink" width="29" height="30" viewBox="0 0 29 30">
  <defs>
    <style>
      .cls-1 {
        fill-rule: evenodd;
        fill: url(#linear-gradient);
      }
    </style>
    <linearGradient id="linear-gradient" x1="951.406" y1="413.563" x2="951.406" y2="383.563" gradientUnits="userSpaceOnUse">
      <stop offset="0" stop-color="#b69c59"/>
      <stop offset="0.522" stop-color="#fcf2c2"/>
      <stop offset="1" stop-color="#c29b5c"/>
    </linearGradient>
  </defs>
  <path id="name" class="cls-1" d="M961.688,402.946a14.435,14.435,0,0,0-5.529-3.575,8.789,8.789,0,0,0,3.561-8.443,8.4,8.4,0,0,0-16.735,1.3,8.752,8.752,0,0,0,3.653,7.148,14.446,14.446,0,0,0-5.53,3.575A15.088,15.088,0,0,0,936.9,412.3a1.138,1.138,0,1,0,2.267.186,12.253,12.253,0,0,1,24.469,0,1.138,1.138,0,1,0,2.267-.186A15.09,15.09,0,0,0,961.688,402.946Zm-10.29-4.394a6.332,6.332,0,1,1,6.14-6.329A6.243,6.243,0,0,1,951.4,398.552Z" transform="translate(-936.906 -383.563)"/>
</svg>
