<svg width="200" height="200" viewBox="0 0 200 200" xmlns="http://www.w3.org/2000/svg" xmlns:xlink="http://www.w3.org/1999/xlink"><view id="icon-1" viewBox="0 0 50 50"/><svg width="50" height="50" viewBox="-5 -5 50 50" xmlns="http://www.w3.org/2000/svg"><defs><linearGradient id="alinear-gradient" x1="162" y1="141" x2="162" y2="101" gradientUnits="userSpaceOnUse"><stop offset="0" stop-color="#b69c59"/><stop offset=".522" stop-color="#fcf2c2"/><stop offset="1" stop-color="#c29b5c"/></linearGradient><style>.acls-1{fill-rule:evenodd;fill:url(#alinear-gradient)}</style></defs><path id="aicon-1" class="acls-1" d="M162 101a20 20 0 1020 20 20 20 0 00-20-20zm-.032 38.532a18.5 18.5 0 1118.5-18.5 18.5 18.5 0 01-18.5 18.5zm4.7-29.459c.586.59 1.163 1.163 1.728 1.748a.377.377 0 00.433.112 6.426 6.426 0 018.119 5.235 6.234 6.234 0 01-.231 2.9c-.018.055-.042.107-.076.192a2.816 2.816 0 00-1.505-.928c.029-.493.1-.964.079-1.431a4.644 4.644 0 00-9.224-.534 4.455 4.455 0 001.7 4.4 4.537 4.537 0 004.63.677.286.286 0 00.224-.339 1.961 1.961 0 112 1.9 2.166 2.166 0 01-.682-.107.589.589 0 00-.486.027 6.431 6.431 0 01-9.187-4.981 6.224 6.224 0 01.2-2.589.337.337 0 00-.1-.39c-.59-.571-1.172-1.152-1.808-1.781zm-.012 3.712a1.026 1.026 0 00-.116-.271 15.71 15.71 0 00-.805-.807.412.412 0 00-.571.585 7.325 7.325 0 00.794.782.537.537 0 00.451.025.848.848 0 00.251-.314zM152 129.084a3.091 3.091 0 00-.445 1.815c-.437-.289-.841-.517-1.2-.8a6.433 6.433 0 01.786-10.635.471.471 0 00.287-.479c-.016-.788-.006-1.577-.006-2.388h5.838c0 .074.009.153.01.233 0 .748.007 1.5 0 2.243a.345.345 0 00.2.348 6.347 6.347 0 013.222 4.534 6.436 6.436 0 01-4.261 7.184.469.469 0 00-.311.28 1.944 1.944 0 01-2.082 1.118 1.982 1.982 0 01-1.636-1.628 1.962 1.962 0 011.069-2.067 1.931 1.931 0 012.286.406.314.314 0 00.424.084 4.665 4.665 0 10-4.545-.5c.11.082.227.16.364.252zm2.768-10.734c0-.165.01-.331 0-.5a.426.426 0 00-.433-.421.421.421 0 00-.4.448v.944a.406.406 0 00.39.452.421.421 0 00.448-.43c0-.161-.009-.327-.009-.493zm.163-2.412a.88.88 0 01-.872-.895.882.882 0 011.763.018.884.884 0 01-.895.877zm6.573-5a.885.885 0 11-1.77.014.885.885 0 011.766-.014zm2.379.129a.881.881 0 01-1.761.033.881.881 0 011.757-.033zm-5.627 1.284a.879.879 0 11.878-.885.873.873 0 01-.882.885zm-1.936-.176a.88.88 0 01.012 1.76.891.891 0 01-.9-.876.88.88 0 01.884-.884z" transform="translate(-142 -101)"/></svg><view id="icon-10" viewBox="50 0 50 50"/><svg width="50" height="50" viewBox="-5 -5 50 50" x="50" xmlns="http://www.w3.org/2000/svg"><defs><linearGradient id="blinear-gradient" x1="267" y1="464" x2="267" y2="424" gradientUnits="userSpaceOnUse"><stop offset="0" stop-color="#b69c59"/><stop offset=".522" stop-color="#fcf2c2"/><stop offset="1" stop-color="#c29b5c"/></linearGradient><style>.bcls-1{fill-rule:evenodd;fill:url(#blinear-gradient)}</style></defs><path id="bicon-10" class="bcls-1" d="M267 424a20 20 0 1020 20 20 20 0 00-20-20zm-.032 38.532a18.5 18.5 0 1118.5-18.5 18.5 18.5 0 01-18.5 18.5zm6.043-23.888v-5.877a.416.416 0 00.279-.4.42.42 0 00-.279-.4v-1.287a.425.425 0 00-.423-.423h-3.378a.425.425 0 00-.424.423v1.292a.413.413 0 00-.279.4.422.422 0 00.279.4v5.877a4.637 4.637 0 00-2.53 4.137v6.751a.425.425 0 00.423.423h8.021v4.64a1.268 1.268 0 01-1.266 1.266h-5.061a1.267 1.267 0 01-1.273-1.266v-3.377a.424.424 0 10-.847 0v3.377a2.115 2.115 0 002.112 2.113h5.061a2.115 2.115 0 002.113-2.113v-11.819a4.654 4.654 0 00-2.528-4.137zm-3.378-7.54h2.531v.842h-2.531v-.846zm0 1.689h2.531v3.517h-2.531v-3.517zm-.253 6.507a.418.418 0 00.253-.387v-1.761h2.531v1.761a.423.423 0 00.253.387 3.8 3.8 0 012.257 3.058h-7.551a3.8 3.8 0 012.257-3.058zm5.315 9.808H267.1v-5.9h7.6v5.9zm-10.211 6.756a1.634 1.634 0 01-1.172-.475 2.589 2.589 0 00-1.276-.62v-4.839a3.808 3.808 0 003.378-3.776 3.613 3.613 0 00-.021-.4l-.139-1.332-.352-3.378a.415.415 0 00-.418-.377h-5.738a.421.421 0 00-.419.377l-.485 4.71a3.274 3.274 0 00-.021.4 3.8 3.8 0 003.378 3.776v4.839a2.634 2.634 0 00-1.276.62 1.664 1.664 0 01-1.172.475.424.424 0 100 .847h5.738a.426.426 0 00.424-.424.43.43 0 00-.429-.423zm-5.821-9.71a2.926 2.926 0 01.016-.31l.449-4.333h4.979l.263 2.531h-4.287a.424.424 0 000 .847h4.37l.1.955c.01.1.016.207.016.31a2.952 2.952 0 11-5.906 0zm2.03 9.71a1.655 1.655 0 011.839 0h-1.839z" transform="translate(-247 -424)"/></svg><view id="icon-11" viewBox="0 50 50 50"/><svg width="50" height="50" viewBox="-5 -5 50 50" y="50" xmlns="http://www.w3.org/2000/svg"><defs><linearGradient id="clinear-gradient" x1="171" y1="555" x2="171" y2="515" gradientUnits="userSpaceOnUse"><stop offset="0" stop-color="#b69c59"/><stop offset=".522" stop-color="#fcf2c2"/><stop offset="1" stop-color="#c29b5c"/></linearGradient><style>.ccls-1{fill-rule:evenodd;fill:url(#clinear-gradient)}</style></defs><path id="cicon-11" class="ccls-1" d="M171 515a20 20 0 1020 20 20 20 0 00-20-20zm-.032 38.532a18.5 18.5 0 1118.5-18.5 18.5 18.5 0 01-18.5 18.5zm1.9-20.675c-.114-.106-.231-.2-.332-.31-.226-.245-.442-.5-.664-.746a.066.066 0 010-.1 3.435 3.435 0 00.6-.9 4.569 4.569 0 00.4-1.316 3.929 3.929 0 00.039-.832 2.657 2.657 0 00-.463-1.306 2.868 2.868 0 00-1.38-1.121 2.377 2.377 0 00-1-.144 3.462 3.462 0 00-1.088.235 3.8 3.8 0 00-1.176.774c-.352.331-.689.678-1.031 1.019a.362.362 0 00-.044.064h-.033a.37.37 0 00-.042-.066c-.35-.348-.694-.7-1.055-1.04a3.639 3.639 0 00-1.372-.833 3.6 3.6 0 00-.862-.153 2.571 2.571 0 00-2.174.979 2.771 2.771 0 00-.624 1.226 2.868 2.868 0 00-.05.822 4.506 4.506 0 00.208 1.117 5.6 5.6 0 00.818 1.558 12.707 12.707 0 001.276 1.483q1.912 1.94 3.831 3.87c.019.02.04.038.066.062 1.23-1.242 2.293-2.153 3.516-3.388l1.024 1.138c-.014.016-.031.037-.051.056-1.28 1.268-2.4 2.21-3.679 3.476a.227.227 0 00-.075.176v3.18c0 .1 0 .1.1.1h3.407c.095 0 .095 0 .095.1v1.3c0 .084 0 .084-.087.084h-3.414c-.1 0-.1 0-.1.105v3.4c0 .117.009.1-.107.1h-1.285c-.088 0-.088 0-.088-.09v-3.416c0-.1 0-.1-.1-.1h-3.407c-.094 0-.094 0-.094-.095v-1.306a.065.065 0 01.081-.08h3.42c.1 0 .1 0 .1-.1v-3.193a.183.183 0 00-.06-.142q-1.89-1.867-3.777-3.738a17.124 17.124 0 01-1.464-1.64 8.411 8.411 0 01-1.26-2.17 6.073 6.073 0 01-.336-1.328 5.385 5.385 0 01-.045-1.061 4.2 4.2 0 01.916-2.37 4.117 4.117 0 012.176-1.462 4.183 4.183 0 011.356-.13 5 5 0 011.377.253 4.158 4.158 0 011.379.814c.142.124.277.258.414.388.065.061.064.063.125 0a5.634 5.634 0 01.952-.791 4.134 4.134 0 011.578-.6 5.543 5.543 0 011.143-.073 3.8 3.8 0 011.72.484 4.285 4.285 0 012.1 2.711 4.053 4.053 0 01.129 1.064 6.254 6.254 0 01-1.056 3.42c-.207.323-.226.248-.449.561a.156.156 0 01-.021.021zm-1.825-6.059a.486.486 0 00-.085.1 2.843 2.843 0 00-.8 1.5 3.18 3.18 0 00-.02.78 4.291 4.291 0 00.149.865 5.12 5.12 0 00.661 1.427 9.465 9.465 0 001.185 1.472c1.323 1.35 2.708 2.746 4.144 4.2.036.036.06.052.1.007q1.985-2.01 3.97-4.017a11.454 11.454 0 001.184-1.4 5.347 5.347 0 00.866-1.786 5 5 0 00.131-.855 2.577 2.577 0 00-.162-1.177 2.893 2.893 0 00-1.8-1.743 2.292 2.292 0 00-.907-.1 3.334 3.334 0 00-1.207.3 3.7 3.7 0 00-.989.672c-.366.345-.718.7-1.074 1.058a.289.289 0 00-.04.063c-.128-.124-.241-.229-.349-.339a10.349 10.349 0 00-1.122-1.043 2.74 2.74 0 00-1.036-.6.135.135 0 01-.068-.044 3.8 3.8 0 00-1.666-1.344l-.025-.017c.109-.023.316-.1.414-.12a1.169 1.169 0 01.459-.064 4.761 4.761 0 011.866.4 4.355 4.355 0 011.067.708c.132.117.258.24.383.365a.063.063 0 00.109 0 5.288 5.288 0 011.076-.874 4.137 4.137 0 011.464-.526 5.423 5.423 0 011.116-.074 3.838 3.838 0 011.9.576 4.278 4.278 0 012.012 2.919 4.142 4.142 0 01.062 1 6.378 6.378 0 01-.995 3.093 11.378 11.378 0 01-1.15 1.542c-.847.96-1.766 1.851-2.674 2.752-.682.676-1.372 1.343-2.06 2.013a.2.2 0 00-.066.153v3.193c0 .1 0 .1.1.1h3.407c.092 0 .092 0 .092.093v1.293c0 .09 0 .091-.089.091h-3.413c-.1 0-.1 0-.1.1v3.416c0 .09 0 .09-.089.09h-1.305a.069.069 0 01-.084-.085v-3.415c0-.106 0-.106-.108-.106h-3.4c-.093 0-.093 0-.093-.092v-1.306a.066.066 0 01.081-.081h3.42c.1 0 .1 0 .1-.105v-3.194a.184.184 0 00-.062-.142c-.879-.859-1.761-1.716-2.633-2.583-.5-.5-1.054-1.056-1.7-1.74a11.685 11.685 0 01-1.676-2.194 6.5 6.5 0 01-.791-2.122 5.5 5.5 0 01-.078-1.318 3.278 3.278 0 01.746-1.923.169.169 0 01.091-.054 3.315 3.315 0 01.75-.068 1.327 1.327 0 01.812.312z" transform="translate(-151 -515)"/></svg><view id="icon-12" viewBox="50 50 50 50"/><svg width="50" height="50" viewBox="-5 -5 50 50" x="50" y="50" xmlns="http://www.w3.org/2000/svg"><defs><linearGradient id="dlinear-gradient" x1="272" y1="549" x2="272" y2="509" gradientUnits="userSpaceOnUse"><stop offset="0" stop-color="#b69c59"/><stop offset=".522" stop-color="#fcf2c2"/><stop offset="1" stop-color="#c29b5c"/></linearGradient><style>.dcls-1{fill-rule:evenodd;fill:url(#dlinear-gradient)}</style></defs><path id="dicon-12" class="dcls-1" d="M272 509a20 20 0 1020 20 20 20 0 00-20-20zm-.032 38.532a18.5 18.5 0 1118.5-18.5 18.5 18.5 0 01-18.5 18.5zm8.753-4.32a1.718 1.718 0 01-1.03-1.246 1.8 1.8 0 00-.338-.226 2.452 2.452 0 01-.546-.735c-.49-1.475-.285-3.024-.446-4.532a8.151 8.151 0 00-1.881-4.623 9.657 9.657 0 00-2.371 5.59 4.357 4.357 0 01-.722 2.756 2.442 2.442 0 00-.115.552 6.716 6.716 0 01-.385.725 2.045 2.045 0 00-.3.537 1.225 1.225 0 01-1.453 1.016c-.34-.08-.595-.28-.413-.656a16.272 16.272 0 00.9-3.625c.314-1.381.741-2.736 1.119-4.1a1.032 1.032 0 00.046-.188c.083-1.122.12-2.249.257-3.364a14.1 14.1 0 01.536-2.647 8.866 8.866 0 00-.247-5.136c-.157-.605-.225-1.235-.412-1.83a3.147 3.147 0 00-.573-.955c-.323-.41-.741-.75-1.034-1.179-.408-.6-.741-1.247-1.1-1.877a.735.735 0 01.227-1.166 8.494 8.494 0 011.794-.786c.871-.281 1.775-.462 2.652-.726a1.542 1.542 0 011.779.51 1.805 1.805 0 001.148.714 1.339 1.339 0 01.913.581c.148.423-.386.552-.693.724a1.625 1.625 0 00-.146 2.7c.385.265.787.506 1.187.748a1.923 1.923 0 011.055 2.08 7.073 7.073 0 00.241 2 5.1 5.1 0 01-.294 3.127.282.282 0 00-.029.092 4.684 4.684 0 01-.51 1.816.942.942 0 00.028.7 13.154 13.154 0 01.758 3.973c.133 1.346.131 2.7.234 4.054a6.821 6.821 0 00.328 1.179.726.726 0 01.03.4 1.117 1.117 0 00.236 1.169 7.506 7.506 0 01.545.738c.359.573.327.718-.194 1.122h-.775zm-8.276-25.918l.07.144c.42-.145.846-.275 1.258-.439.448-.178.484-.314.23-.892zm2.183 1.52a.94.94 0 00-1.3-.978 1.643 1.643 0 001.3.978zm4.189 9.361v-2.958a4.582 4.582 0 000 2.958zm-11.351-5.293h4.555v4.532c-.016.014-.033.027-.048.042l-1.209 1.208-.047.044-.017-.008v-3.409l-3.314 3.22.018.025a3.294 3.294 0 01.662 1.167 5.8 5.8 0 01.275 1.348 6.366 6.366 0 01.013 1.28 4.477 4.477 0 01-.465 1.583 5.171 5.171 0 01-1.654 1.88 4.95 4.95 0 01-2.515.906l-.262.023H263c-.034 0-.069-.01-.1-.012a5.25 5.25 0 01-1.107-.172 5.279 5.279 0 01-3.547-3.343 5.219 5.219 0 01-.256-1.587.467.467 0 00-.021-.1v-.234c0-.023.008-.046.01-.069.013-.136.021-.272.037-.408a4.778 4.778 0 01.455-1.545 5.455 5.455 0 011.682-1.986 4.485 4.485 0 012.664-.9c.238 0 .476.009.713.024a5.978 5.978 0 011.3.224 3.572 3.572 0 011.424.755.136.136 0 00.025.016l3.31-3.189a.109.109 0 01-.008-.015l-3.391-.018c.023-.024.037-.04.052-.054l1.184-1.184c.014-.01.026-.026.04-.044zm-4.232 12.271v.014c.228-.025.459-.039.685-.078a3.373 3.373 0 001.706-.846 3.3 3.3 0 001.151-2.2 3.729 3.729 0 00-.22-1.667 3.869 3.869 0 00-3.077-2.393 3.562 3.562 0 00-1.289.079 3.551 3.551 0 00-2.6 3.257 3.74 3.74 0 00.219 1.494 3.623 3.623 0 003.425 2.34z" transform="translate(-252 -509)"/></svg><view id="icon-13" viewBox="100 0 50 50"/><svg width="50" height="50" viewBox="-5 -5 50 50" x="100" xmlns="http://www.w3.org/2000/svg"><defs><linearGradient id="elinear-gradient" x1="171" y1="634" x2="171" y2="594" gradientUnits="userSpaceOnUse"><stop offset="0" stop-color="#b69c59"/><stop offset=".522" stop-color="#fcf2c2"/><stop offset="1" stop-color="#c29b5c"/></linearGradient><style>.ecls-1{fill-rule:evenodd;fill:url(#elinear-gradient)}</style></defs><path id="eicon-13" class="ecls-1" d="M171 594a20 20 0 1020 20 20 20 0 00-20-20zm-.032 38.532a18.5 18.5 0 1118.5-18.5 18.5 18.5 0 01-18.5 18.5zm5.012-11.186l-.341-.04a4.56 4.56 0 01-2.025-.765 4.77 4.77 0 01-1.641-1.883c-.1-.211-.175-.437-.261-.657a.3.3 0 01-.011-.047h.162a4.9 4.9 0 001.191-.067.062.062 0 01.079.047 3.373 3.373 0 005.556 1 3.129 3.129 0 00.9-1.865 3.3 3.3 0 00-1.29-3.127 3.11 3.11 0 00-1.723-.688 3.3 3.3 0 00-2.963 1.251c-.115.139-.2.3-.3.454a.187.187 0 01-.081.072 2.828 2.828 0 01-1.464.178c-.013 0-.025-.007-.038-.01a4.714 4.714 0 017.312-2.376l3.643-3.643h-3.06v-3.067l-3.648 3.648a4.849 4.849 0 01.638 1.134c.038.1.069.2.1.3a.127.127 0 010 .032c-.109-.006-.214-.013-.319-.016a5.014 5.014 0 00-1.023.073.068.068 0 01-.09-.048 3.286 3.286 0 00-2.518-2 3.351 3.351 0 00-3.86 2.506 3.26 3.26 0 00.939 3.252 3.159 3.159 0 001.791.9 3.307 3.307 0 002.848-.866 3.068 3.068 0 00.615-.791.208.208 0 01.116-.1 2.855 2.855 0 011.452-.166.129.129 0 01.026.008 4.789 4.789 0 01-3.5 3.206 4.733 4.733 0 01-2.406-9.144 4.579 4.579 0 012.2-.142 4.721 4.721 0 012.017.884l3.656-3.657h-3.769v-1.351h6.078v4.053h4.059v6.086h-1.354v-3.736l-3.632 3.632c.141.238.3.472.424.722a4.628 4.628 0 01.077 4.04 4.778 4.778 0 01-1.94 2.136 4.536 4.536 0 01-1.767.6l-.341.04h-.514zm-4.286-1.436c-.914.833-1.831 1.662-2.752 2.5-1.71-1.582-3.437-3.161-5.143-4.764a21.107 21.107 0 01-3.11-3.549 7 7 0 01-1.364-4.348 4.943 4.943 0 014.259-4.608 5.373 5.373 0 014.774 1.764.7.7 0 001.2 0 5.462 5.462 0 014.42-1.791 8.257 8.257 0 01.022-1.325 6.429 6.429 0 00-3.284.671c-.622.309-1.185.735-1.814 1.131-.016-.014-.091-.076-.164-.14a6.552 6.552 0 00-8.4-.277 6.152 6.152 0 00-2.267 4.044 1.549 1.549 0 01-.056.2v1.368a.3.3 0 01.045.091 8.64 8.64 0 001.452 3.789 25.882 25.882 0 004.13 4.645c1.572 1.478 3.163 2.937 4.74 4.411a.7.7 0 001.15 0c.938-.89 1.876-1.781 2.83-2.654l.24-.219a6.252 6.252 0 01-.908-.939z" transform="translate(-151 -594)"/></svg><view id="icon-14" viewBox="100 50 50 50"/><svg width="50" height="50" viewBox="-5 -5 50 50" x="100" y="50" xmlns="http://www.w3.org/2000/svg"><defs><linearGradient id="flinear-gradient" x1="272" y1="624" x2="272" y2="584" gradientUnits="userSpaceOnUse"><stop offset="0" stop-color="#b69c59"/><stop offset=".522" stop-color="#fcf2c2"/><stop offset="1" stop-color="#c29b5c"/></linearGradient><style>.fcls-1{fill-rule:evenodd;fill:url(#flinear-gradient)}</style></defs><path id="ficon-14" class="fcls-1" d="M272 584a20 20 0 1020 20 20 20 0 00-20-20zm-.032 38.532a18.5 18.5 0 1118.5-18.5 18.5 18.5 0 01-18.5 18.5zm-6.474-12.222a.694.694 0 01-.642.473h-1.682a.658.658 0 01-.642-.473l-3.948-12.562h1.72l3.079 10.334c.132.471.265.944.378 1.417h.51c.113-.473.245-.964.4-1.437l3.06-10.314h1.719zm5.912.473v-13.035h1.662v13.035h-1.662zm4.95-13.035a37.419 37.419 0 014.477-.17c3.136 0 4.194.887 4.194 4.081 0 3.211-1.058 4.08-4 4.08a26.839 26.839 0 01-3-.17v5.214h-1.662v-13.035zm4.458 6.555c1.89-.019 2.532-.547 2.532-2.644s-.642-2.646-2.532-2.646c-1.1 0-2.059 0-2.8.02v5.27h2.8z" transform="translate(-252 -584)"/></svg><view id="icon-15" viewBox="0 100 50 50"/><svg width="50" height="50" viewBox="-5 -5 50 50" y="100" xmlns="http://www.w3.org/2000/svg"><defs><linearGradient id="glinear-gradient" x1="163" y1="710" x2="163" y2="670" gradientUnits="userSpaceOnUse"><stop offset="0" stop-color="#b69c59"/><stop offset=".522" stop-color="#fcf2c2"/><stop offset="1" stop-color="#c29b5c"/></linearGradient><style>.gcls-1{fill-rule:evenodd;fill:url(#glinear-gradient)}</style></defs><path id="gicon-15" class="gcls-1" d="M163 670a20 20 0 1020 20 20 20 0 00-20-20zm-.032 38.532a18.5 18.5 0 1118.5-18.5 18.5 18.5 0 01-18.5 18.5zm-9.95-22.124h20.1v6.328a1.871 1.871 0 01-1.98 1.887H155a1.869 1.869 0 01-1.983-1.9v-6.319zm11 1.374h-7.641v.892h7.641v-.892zm9.083-3.668h-20.062a.091.091 0 01-.017-.027c.006-.532-.03-1.068.028-1.6a1.832 1.832 0 011.832-1.568c.744-.013 1.488 0 2.232 0H171.121A1.889 1.889 0 01172.94 682a1.382 1.382 0 01.154.546c.021.515.006 1.035.006 1.568zm1 5.652l.128.68.767 4.12a1.839 1.839 0 01-1.576 2.165l-8.018 1.361-7.939 1.346a1.907 1.907 0 01-2.252-1.494c-.147-.765-.285-1.532-.427-2.3-.006-.032-.006-.065-.011-.11h11.886c1.533 0 3.066.01 4.6-.006a2.787 2.787 0 002.811-2.658c.022-.98 0-1.962 0-2.943v-.161z" transform="translate(-143 -670)"/></svg><view id="icon-16" viewBox="50 100 50 50"/><svg width="50" height="50" viewBox="-5 -5 50 50" x="50" y="100" xmlns="http://www.w3.org/2000/svg"><defs><linearGradient id="hlinear-gradient" x1="277" y1="697" x2="277" y2="657" gradientUnits="userSpaceOnUse"><stop offset="0" stop-color="#b69c59"/><stop offset=".522" stop-color="#fcf2c2"/><stop offset="1" stop-color="#c29b5c"/></linearGradient><style>.hcls-1{fill-rule:evenodd;fill:url(#hlinear-gradient)}</style></defs><path id="hicon-16" class="hcls-1" d="M277 657a20 20 0 1020 20 20 20 0 00-20-20zm-.032 38.532a18.5 18.5 0 1118.5-18.5 18.5 18.5 0 01-18.5 18.5zm5.022-9.772c.166.09.325.176.484.26a.445.445 0 00.656-.195q.923-1.678 1.844-3.357a.444.444 0 00-.19-.656l-.179-.1.061-.113 1.644-2.926a6.219 6.219 0 00.725-2.194 1.07 1.07 0 000-.15v-6.879c.037.04.06.062.079.087a12.389 12.389 0 012.33 4.939 12.143 12.143 0 01.274 3.555 12.523 12.523 0 01-9.317 11.274 12.138 12.138 0 01-3.762.389 12.514 12.514 0 01-11.594-9.728 12.034 12.034 0 01-.292-3.4 12.518 12.518 0 019.366-11.464 12.069 12.069 0 013.8-.377 12.441 12.441 0 017.3 2.85.573.573 0 01.24.5q-.024 3.89-.021 7.78A3.963 3.963 0 01285 677.7c-.333.649-.7 1.279-1.053 1.917q-.336.607-.675 1.214c-.02.037-.043.072-.067.114l-.1-.055a.457.457 0 00-.7.2l-1.046 1.894q-.388.7-.778 1.408a.448.448 0 00.2.672l.5.273c-.035.064-.066.125-.1.184-.155.28-.312.559-.465.84a.409.409 0 10.711.4c.171-.3.339-.6.508-.9a.436.436 0 01.055-.101zm-4.79-13.16a4.642 4.642 0 104.643 4.634 4.633 4.633 0 00-4.643-4.634zm-9.917.749a.848.848 0 00.122-.03.5.5 0 00.266-.317 10.3 10.3 0 014.431-4.921c.4-.227.822-.4 1.237-.6a.414.414 0 00.246-.52.406.406 0 00-.557-.237 11.2 11.2 0 00-5.085 4.1 11.038 11.038 0 00-1.058 1.935.413.413 0 00.4.585zm1.707.695a.437.437 0 00.351-.32 8.551 8.551 0 012.659-3.4 8.417 8.417 0 012.012-1.15.417.417 0 00.293-.327.387.387 0 00-.145-.392.422.422 0 00-.456-.043 9.444 9.444 0 00-3.771 2.781 9.328 9.328 0 00-1.373 2.269.413.413 0 00.432.577zm5.592-4.006c-.073.022-.148.039-.218.068a7.584 7.584 0 00-3.265 2.543 7.438 7.438 0 00-.871 1.523.411.411 0 00.3.581.436.436 0 00.485-.319 6.727 6.727 0 012.738-3.1c.316-.189.659-.334.992-.494a.424.424 0 00.253-.45.431.431 0 00-.412-.357zm3.874 7.209a1.224 1.224 0 01-1.233 1.223 1.228 1.228 0 11.023-2.456 1.224 1.224 0 011.212 1.228zm-1.231-.447a.443.443 0 000 .886.433.433 0 00.449-.441.437.437 0 00-.447-.445z" transform="translate(-257 -657)"/></svg><view id="icon-2" viewBox="100 100 50 50"/><svg width="50" height="50" viewBox="-5 -5 50 50" x="100" y="100" xmlns="http://www.w3.org/2000/svg"><defs><linearGradient id="ilinear-gradient" x1="261" y1="142" x2="261" y2="102" gradientUnits="userSpaceOnUse"><stop offset="0" stop-color="#b69c59"/><stop offset=".522" stop-color="#fcf2c2"/><stop offset="1" stop-color="#c29b5c"/></linearGradient><style>.icls-1{fill-rule:evenodd;fill:url(#ilinear-gradient)}</style></defs><path id="iicon-2" class="icls-1" d="M261 102a20 20 0 1020 20 20 20 0 00-20-20zm-.032 38.532a18.5 18.5 0 1118.5-18.5 18.5 18.5 0 01-18.5 18.5zm6.441-11.082a6.731 6.731 0 00-.065 4.27.173.173 0 00.047.147 2.119 2.119 0 00.26.628 5.32 5.32 0 00.839 1.285 5.057 5.057 0 01-1.55-.829l-.006-.015h-.016l-.075-.066-.044-.036-.165-.152-.221-.23-.012-.013-.068-.068a6.2 6.2 0 01-1.382-4.215.963.963 0 00.027-.15 7.553 7.553 0 01.512-2.365 12.556 12.556 0 01.99-2.02 18.865 18.865 0 001.037-2.183c.012-.022.027-.043.037-.066a10.577 10.577 0 00.634-2.676 6.294 6.294 0 00-.044-1.467 3.466 3.466 0 00-.7-1.629l.038-.038c.107.083.22.161.321.252a6.505 6.505 0 011.683 2.45c.022.074.041.149.064.222a6.481 6.481 0 01.243 2.862 11.009 11.009 0 01-1.462 4.021 8.694 8.694 0 00-.922 2.081zm-13.4 3.565a7.221 7.221 0 01-.866-1.3 9.992 9.992 0 01-.838-2.292.27.27 0 00-.057-.082c0-.034.007-.069.01-.1s-.007-.068-.011-.1l-.113-.713c-.012-.153-.028-.3-.033-.457a12.774 12.774 0 010-1.856 11.658 11.658 0 01.189-1.313c.1-.453.232-.905.36-1.354l.364-.957a27.433 27.433 0 011.612-3.147 14.443 14.443 0 00.924-1.912.034.034 0 000-.031 1.688 1.688 0 00.248-.584.091.091 0 00.006-.04l.043-.061a.455.455 0 00.119-.4.143.143 0 00.136-.162 12.875 12.875 0 00.582-1.719 10.306 10.306 0 00.342-4.854 4.961 4.961 0 00-.859-2.06.387.387 0 00-.154-.218c-.052-.158-.251-.206-.31-.4a1.452 1.452 0 01.507.317.635.635 0 00.241.185l.479.48.05.051.155.154c.269.359.572.69.832 1.057a9.447 9.447 0 011.387 2.947 15.713 15.713 0 01.336 1.888l.012.832-.006.306v.106l-.03.31a13.678 13.678 0 01-.819 3.577c-.2.533-.423 1.06-.636 1.589a.618.618 0 00-.142.324.228.228 0 00-.058.151 1.368 1.368 0 00-.258.51.11.11 0 00-.1.109.2.2 0 00-.07.16.025.025 0 00-.025.027l-.01.007a.142.142 0 00-.057.136l-.061.076a.248.248 0 00-.09.157l-.057.1c-.048.071-.1.139-.141.213a13.851 13.851 0 00-1.783 5.429 6.28 6.28 0 00-.024 1.655 8.725 8.725 0 00.78 3.389 8 8 0 001.508 2.34 7.755 7.755 0 01-3.019-1.825l-.075-.072-.039-.041-.06-.058v.013-.012l-.047-.052-.013.016.012-.017a.274.274 0 00-.12-.136l-.048-.053-.065-.077-.01-.01a2.492 2.492 0 00-.068-.077zm7.736-.2a6.41 6.41 0 001.308 2.525c.054.066.11.13.167.2a.179.179 0 01-.191-.026 6.218 6.218 0 01-2.093-1.309 6.9 6.9 0 01-1.571-2.335.418.418 0 00-.121-.213l-.308-1.234c-.035-.356-.083-.713-.1-1.07a9.985 9.985 0 01.862-4.465c.554-1.29 1.371-2.444 1.92-3.737a15.748 15.748 0 00.7-1.813l.015-.073a1.917 1.917 0 00.178-.542l.02-.1a.92.92 0 00.093-.363 2.236 2.236 0 00.136-.57 7.084 7.084 0 00.014-2.971l-.017-.059-.08-.3-.051-.153-.042-.108a4.544 4.544 0 00-.862-1.436 1.618 1.618 0 01.5.31.1.1 0 00.095.06h-.007l.211.2c.067.065.134.13.2.2l.36.364.412.579a7.833 7.833 0 011.048 2.037c.147.437.226.89.335 1.336a.953.953 0 00.04.348l.021.41.006.31a10.992 10.992 0 01-.724 3.746 19.2 19.2 0 01-1.4 2.873 11.175 11.175 0 00-1.172 3.044 7.99 7.99 0 00-.223 2.055 6.211 6.211 0 00.132 1.527.193.193 0 00.036.156c0 .033.01.067.016.1a1.446 1.446 0 00.138.493z" transform="translate(-241 -102)"/></svg><view id="icon-3" viewBox="150 0 50 50"/><svg width="50" height="50" viewBox="-5 -5 50 50" x="150" xmlns="http://www.w3.org/2000/svg"><defs><linearGradient id="jlinear-gradient" x1="150" y1="232" x2="150" y2="192" gradientUnits="userSpaceOnUse"><stop offset="0" stop-color="#b69c59"/><stop offset=".522" stop-color="#fcf2c2"/><stop offset="1" stop-color="#c29b5c"/></linearGradient><style>.jcls-1{fill-rule:evenodd;fill:url(#jlinear-gradient)}</style></defs><path id="jicon-3" class="jcls-1" d="M150 192a20 20 0 1020 20 20 20 0 00-20-20zm-.032 38.532a18.5 18.5 0 1118.5-18.5 18.5 18.5 0 01-18.5 18.5zM163.81 214.1c0-.31 0-.31-.354-.31h-12.75q.285-.027.568-.063a1.13 1.13 0 00.369-.13.27.27 0 00.029-.4c-.179-.095-.366-.176-.549-.265a1.1 1.1 0 01-.132-.079c-.172-.121-.349-.235-.51-.369a.351.351 0 01-.14-.235c.016-.187-.028-.372-.022-.559.012-.4.1-.788.142-1.183a1.335 1.335 0 00-.056-.45c-.019-.081-.121-.144-.131-.222-.063-.489-.134-.978-.158-1.468a32.345 32.345 0 01.175-4.821c.04-.392.049-.4.455-.446.04 0 .082-.006.122-.013.607-.1 1.221-.162 1.82-.3a1.373 1.373 0 001.112-1.452 8.747 8.747 0 00-.6-2.653 16.115 16.115 0 00-.767-2 .256.256 0 00-.235-.148l-3.925.067a.254.254 0 00-.249.264 30.022 30.022 0 00.483 4.593c-.429.269-.858.535-1.283.807-.586.373-1.161.764-1.757 1.122-.411.247-.423.228-.769-.085a6 6 0 00-.112-.1.887.887 0 00-1.182.028 4.851 4.851 0 01-.764.5c-.595.307-1.206.583-1.813.866-.128.059-.219.113-.084.263.6-.251 1.195-.5 1.795-.746a2 2 0 01.359-.074l.047.083c-.13.15-.252.307-.391.449-.3.311-.625.606-.924.922a.745.745 0 00-.239.827c.231.522.5 1.026.762 1.536a.186.186 0 00.311.052.419.419 0 00.068-.231.6.6 0 010-.136.458.458 0 00.142-.46 5.5 5.5 0 01.094-.646.268.268 0 01.055-.134 1.537 1.537 0 01.828-.415c.329-.063.672-.065 1-.143a.732.732 0 00.474-.295.525.525 0 01.265-.277c.222-.125.437-.263.667-.37.622-.289 1.251-.563 1.919-.863a7.086 7.086 0 00.009 1.069c.136.842.323 1.675.474 2.514.1.572.184 1.148.263 1.724a.209.209 0 01-.135.294.962.962 0 00-.73 1.414 1.337 1.337 0 01.092.331c.08.774.151 1.55.231 2.325a.461.461 0 00.071.166H136.2v1.073a1.758 1.758 0 00.375.093c.517.01 1.035 0 1.566 0v1.151c0 .407 0 .409.448.409h10.763v5.069c-.08.011-.15.022-.221.03a3.016 3.016 0 00-2.914 2.829 1.8 1.8 0 01-1.912 1.836.614.614 0 00-.586.4.6.6 0 00.656.772 3.039 3.039 0 002.927-1.9 5.212 5.212 0 00.216-1.219 1.761 1.761 0 011.845-1.539v4.037a.608.608 0 00.742.613.587.587 0 00.55-.642v-4.017c.187.025.339.034.485.068a1.849 1.849 0 011.551 1.814 3.141 3.141 0 003.223 2.8.64.64 0 00.721-.577.625.625 0 00-.676-.593 1.89 1.89 0 01-1.981-1.806 3.126 3.126 0 00-2.655-2.8c-.216-.042-.437-.062-.651-.091v-5.067h10.773c.43 0 .43 0 .431-.392s0-.772 0-1.168h1.684c.186 0 .262-.062.257-.228-.017-.204-.007-.415-.007-.63zm-12.881-13.86l.485.682-.619.05.134-.732zm-2.643 13.553a.414.414 0 00.072-.18c-.006-.558-.026-1.116-.036-1.675a2.642 2.642 0 01.029-.3l.078-.023a1.7 1.7 0 01.23.3c.214.443.422.889.615 1.341a.96.96 0 00.609.543h-1.6z" transform="translate(-130 -192)"/></svg><view id="icon-4" viewBox="150 50 50 50"/><svg width="50" height="50" viewBox="-5 -5 50 50" x="150" y="50" xmlns="http://www.w3.org/2000/svg"><defs><linearGradient id="klinear-gradient" x1="266" y1="228" x2="266" y2="188" gradientUnits="userSpaceOnUse"><stop offset="0" stop-color="#b69c59"/><stop offset=".522" stop-color="#fcf2c2"/><stop offset="1" stop-color="#c29b5c"/></linearGradient><style>.kcls-1{fill-rule:evenodd;fill:url(#klinear-gradient)}</style></defs><path id="kicon-4" class="kcls-1" d="M266 188a20 20 0 1020 20 20 20 0 00-20-20zm-.032 38.532a18.5 18.5 0 1118.5-18.5 18.5 18.5 0 01-18.5 18.5zm-10.528-7.37a.414.414 0 00.042-.064.428.428 0 01.447-.294h19.665a.516.516 0 01.559.327v.226a.584.584 0 01-.29.355H255.73a.873.873 0 01-.29-.355v-.193zm10.087-24.462c.164.062.345.072.507.143a1.987 1.987 0 011.219 1.481 2.048 2.048 0 01-.646 2.059 1.886 1.886 0 01-2.782-.247 2.132 2.132 0 01.047-2.742 1.832 1.832 0 011.22-.665.238.238 0 00.063-.029h.372zm5.19 14.319a6.4 6.4 0 01-1.248-.282 11.492 11.492 0 01-3.755-1.742.211.211 0 00-.289.03 11.594 11.594 0 01-2.1 1.163 7 7 0 01-1.75.535 1.784 1.784 0 01-.683-.018c-.33-.081-.407-.331-.17-.551a3.3 3.3 0 01.973-.575 13.39 13.39 0 002.482-1.485c.134-.1.161-.152.014-.269a8.931 8.931 0 01-2.359-2.778 14.418 14.418 0 01-1.044-2.4 5.383 5.383 0 01-.205-1.18 1.123 1.123 0 012.225-.059c.081.354.1.714.166 1.07a6.84 6.84 0 00.623 1.823 8.51 8.51 0 001.839 2.506.181.181 0 00.305-.006 8.3 8.3 0 002.451-4.263c.09-.4.081-.818.2-1.215a1.057 1.057 0 01.54-.746 1.172 1.172 0 011.162.06.972.972 0 01.479 1.021 10.431 10.431 0 01-2.224 4.843 7.8 7.8 0 01-1.347 1.306c-.188.148-.182.142 0 .281a20.487 20.487 0 002.951 1.788 4.758 4.758 0 01.952.635l.04.036a.318.318 0 01.147.367.389.389 0 01-.375.104zm-11.841 6.681c.237 0 .471.014.7 0 1.013-.074 2.024-.16 3.037-.235a25.138 25.138 0 014.268-.06 4.326 4.326 0 011.682.47c-.276.012-.538.013-.8.036a14.665 14.665 0 00-3 .676c-.987.3-1.967.63-2.958.919a11.348 11.348 0 01-3.976.336 13.027 13.027 0 01-2.479-.352 2.835 2.835 0 01-.887-.37.432.432 0 01-.144-.706 3.94 3.94 0 01.985-.951 35.279 35.279 0 013.876-2.373 22.571 22.571 0 013.21-1.392 1.282 1.282 0 01.126-.033 4.412 4.412 0 00-.06.876 1.914 1.914 0 00.428 1.069 4.6 4.6 0 01.437.6c.07.126.061.181-.094.226-1.395.4-2.788.816-4.19 1.2a.292.292 0 00-.161.064zm5.33 1.823a6.172 6.172 0 011.57-.77 17.107 17.107 0 013.61-.753 31.434 31.434 0 012.766-.195.163.163 0 00-.144-.078 28.952 28.952 0 00-3.947-.88c-.146-.023-.292-.057-.44-.067s-.127-.07-.086-.166a1.92 1.92 0 01.281-.48 2.629 2.629 0 00.481-2.316l-.058-.319c.256.112.488.221.725.317 1.308.533 2.526 1.249 3.8 1.855a28.74 28.74 0 013.143 1.673 4.007 4.007 0 01.9.717.528.528 0 01-.044.89 2.967 2.967 0 01-1.691.689 11.291 11.291 0 01-2.41-.047 50.916 50.916 0 00-3.173-.146 88.81 88.81 0 00-3.757.014c-.493.011-.981.039-1.526.062zm1.34-7.973a2.181 2.181 0 011.607.526 1.6 1.6 0 01.484 1.134 4.9 4.9 0 01-.731 2.85 1.975 1.975 0 01-.375.435 1.171 1.171 0 01-1.233.219 2.808 2.808 0 01-1.429-1.219 2.767 2.767 0 01-.449-2.348 2.121 2.121 0 012.126-1.597z" transform="translate(-246 -188)"/></svg><view id="icon-5" viewBox="150 100 50 50"/><svg width="50" height="50" viewBox="-5 -5 50 50" x="150" y="100" xmlns="http://www.w3.org/2000/svg"><defs><linearGradient id="llinear-gradient" x1="150" y1="318" x2="150" y2="278" gradientUnits="userSpaceOnUse"><stop offset="0" stop-color="#b69c59"/><stop offset=".522" stop-color="#fcf2c2"/><stop offset="1" stop-color="#c29b5c"/></linearGradient><style>.lcls-1{fill-rule:evenodd;fill:url(#llinear-gradient)}</style></defs><path id="licon-5" class="lcls-1" d="M150 278a20 20 0 1020 20 20 20 0 00-20-20zm-.032 38.532a18.5 18.5 0 1118.5-18.5 18.5 18.5 0 01-18.5 18.5zm-9.646-11.132a2.266 2.266 0 01-.662 1.448 1.429 1.429 0 00-.054-.927c-.289.519-.811.926-.487 1.619a.759.759 0 01-.053.758 8.022 8.022 0 00-.271-.875 7.557 7.557 0 00-.432-.762l-.095.031c.066.313.127.628.2.941s.185.637.235.962a.972.972 0 01-.759 1.108.514.514 0 01-.285-.054.621.621 0 00.333-.967c-.147-.275-.356-.517-.516-.787a2.488 2.488 0 01-.277-.608.9.9 0 01.319-.816 2.085 2.085 0 00.571-1.427 3.167 3.167 0 00-.245-.851c-.139-.4-.3-.785-.442-1.178a.716.716 0 01.046-.631 1.718 1.718 0 00-.041-1.6c-.054-.13-.13-.2-.28-.109a1.163 1.163 0 01-.277.072 3.276 3.276 0 00.221-.729c.025-.479-.014-.961-.018-1.442a10.969 10.969 0 01.022-1.133 1.065 1.065 0 01.219-.476 1.063 1.063 0 00.178-.83 1.82 1.82 0 01.387-1.453 1.769 1.769 0 00.37-.928 6.51 6.51 0 011.2-3.2 4.4 4.4 0 011.847-1.481 1.78 1.78 0 01.736-.084 6.727 6.727 0 011.272.1 1.19 1.19 0 01.678.416c.46.653.965 1.266 1.466 1.886a2.27 2.27 0 01.375 2.242 1.335 1.335 0 01-.524.7l-.063-.447-.064-.013c-.169.442-.34.883-.5 1.326-.066.178.025.227.193.226a3.531 3.531 0 002.16-.807c.676-.522 1.31-1.1 2-1.609.772-.57 1.583-1.086 2.376-1.629a7.951 7.951 0 00.665-.484 1.193 1.193 0 011.151-.252 1.663 1.663 0 001.625-.357 2.012 2.012 0 011.076-.519l-.179.287a1.222 1.222 0 001.089-.542c.371-.769.726-1.548 1.142-2.294a3.244 3.244 0 01.729-.79 9.816 9.816 0 01.88-.643.7.7 0 00.306-.62 3.632 3.632 0 01.074-.744 1.1 1.1 0 01.234-.332.942.942 0 01.262.313c.092.416.144.841.208 1.263.015.095.019.192.033.288a1.451 1.451 0 01-.476 1.307c-.171.17-.315.367-.476.548a.425.425 0 00-.113.506.609.609 0 00.579.271c.182-.037.362-.086.545-.108a1.061 1.061 0 01.286.043l.009.074a1 1 0 01-.228.148 2.63 2.63 0 00-1.259.944.454.454 0 01-.676.213c-.131-.039-.259-.089-.388-.137-.338-.127-.466-.079-.549.271-.17.72-.33 1.443-.474 2.169-.184.925-.307 1.863-.532 2.777a4.664 4.664 0 01-1.623 2.413.742.742 0 01-.236.168 1.507 1.507 0 00-.865 1.4 2.356 2.356 0 00.263 1.4 47.092 47.092 0 011.364 6.332c.127.687.37 1.352.565 2.026.092.318.185.637.3.948a3.3 3.3 0 01.1 1.555c-.007.056-.012.112-.021.167a.733.733 0 00.565.957.5.5 0 01.266.159.539.539 0 01.147.364.412.412 0 01-.3.249 7.247 7.247 0 01-1.343-.123.805.805 0 01-.573-.74 6.869 6.869 0 00-.13-.761 2.309 2.309 0 00-.266-.53.563.563 0 00-.188-.123.824.824 0 00-.089.256c.006.379.032.757.042 1.136a1.216 1.216 0 01-.051.261l-.094.006a2.078 2.078 0 01-.094-.464 3.677 3.677 0 00-.6-2.133.625.625 0 01.052-.8 2.042 2.042 0 01.333-.381.672.672 0 00.232-.807 8.074 8.074 0 00-1.216-2.725 9.18 9.18 0 01-1.34-2.263c-.089-.266-.144-.544-.214-.816l-.069-.273-.086-.008a7.813 7.813 0 00-.161.848 14.117 14.117 0 01-1.038 4.212 12.748 12.748 0 01-.757 1.377c-.281.5-.586.986-.847 1.5a2.764 2.764 0 01-2.156 1.538 5.573 5.573 0 01-2.165-.03 2.8 2.8 0 01-2.057-1.738c-.332-.841-.578-1.721-.976-2.527a9.994 9.994 0 00-1.136-1.527.447.447 0 00-.14-.085zm11.321-7.844l-.035-.05c-.407.118-.809.262-1.223.347-.6.122-1.2.22-1.81.294a28.14 28.14 0 01-2.186.205c-.455.02-.915-.059-1.372-.085a.749.749 0 00-.215.055.521.521 0 00.095.193 1.926 1.926 0 01.785 1.332 1.552 1.552 0 01-1.019 1.608c-.17.044-.225.09-.115.257a.855.855 0 01.091.762c-.093.306-.125.631-.212.94a.419.419 0 00.251.5c.46.336.906.694 1.344 1.058.121.1.2.119.3 0a3.125 3.125 0 00.349-.4c.633-1.039 1.3-2.062 1.871-3.133a12.084 12.084 0 012.42-3.147c.245-.228.456-.492.681-.74zm-3.418-1.593c0 .027.008.055.011.082a1.7 1.7 0 00.191.062 9.828 9.828 0 002.553.016 8.859 8.859 0 011.465-.1.912.912 0 00.945-.411c.065-.092.143-.175.205-.269.53-.809 1.061-1.617 1.578-2.434a.316.316 0 00-.016-.294.952.952 0 00-.788-.342 3.282 3.282 0 01-1.446-.342.34.34 0 00-.466.09c-.443.5-.9.985-1.336 1.494a11.709 11.709 0 01-2.51 2.218c-.125.082-.257.151-.386.226zm7.342-3.826a11.533 11.533 0 00.761-1.68.989.989 0 00-.362.127c-.33.2-.648.424-.984.616-.228.131-.28.33-.078.484s.422.286.663.449z" transform="translate(-130 -278)"/></svg><view id="icon-6" viewBox="0 150 50 50"/><svg width="50" height="50" viewBox="-5 -5 50 50" y="150" xmlns="http://www.w3.org/2000/svg"><defs><linearGradient id="mlinear-gradient" x1="280" y1="317" x2="280" y2="277" gradientUnits="userSpaceOnUse"><stop offset="0" stop-color="#b69c59"/><stop offset=".522" stop-color="#fcf2c2"/><stop offset="1" stop-color="#c29b5c"/></linearGradient><style>.mcls-1{fill-rule:evenodd;fill:url(#mlinear-gradient)}</style></defs><path id="micon-6" class="mcls-1" d="M280 277a20 20 0 1020 20 20 20 0 00-20-20zm-.032 38.532a18.5 18.5 0 1118.5-18.5 18.5 18.5 0 01-18.5 18.5zm9.764-31.174a2.228 2.228 0 011.435.485 6.293 6.293 0 011.057 1.07 2.54 2.54 0 01-.239 3.232c-.333.351-.68.688-1.023 1.029a.556.556 0 01-.659.125.155.155 0 00-.14.017 26.034 26.034 0 00-2.611 2.823 14.3 14.3 0 00-2.021 3.97c-.328.958-.649 1.919-1.016 2.863a11.544 11.544 0 01-2.761 4.06c-1.588 1.559-3.152 3.143-4.725 4.716a2.225 2.225 0 01-3.257 0l-5.52-5.52a2.213 2.213 0 01-.031-3.137q2.613-2.637 5.254-5.246a11.088 11.088 0 014.05-2.5c.932-.34 1.873-.655 2.811-.979a13.674 13.674 0 005.338-3.422q.514-.524 1.038-1.037a.132.132 0 00.036-.181.518.518 0 01.108-.631c.355-.359.706-.722 1.075-1.065a2.547 2.547 0 011.801-.672zm-5.451 13.016c-.056-.021-.1-.039-.151-.055-.989-.33-1.978-.664-2.969-.99a.657.657 0 01-.451-.453c-.243-.75-.5-1.5-.745-2.246-.1-.288-.194-.575-.293-.87-.049.014-.083.021-.115.032-.4.135-.8.272-1.2.406a11 11 0 00-4.466 2.752c-1.59 1.622-3.207 3.216-4.814 4.821a1.139 1.139 0 000 1.737q2.743 2.745 5.487 5.487a1.126 1.126 0 001.672.007q2.121-2.113 4.233-4.235c.5-.5 1.008-1.01 1.473-1.549a13.039 13.039 0 002.339-4.844zm-1.162-6.045l-2.4 1.095c.01.034.022.077.037.12.3.887.6 1.774.889 2.663a.279.279 0 00.2.2c.686.225 1.37.456 2.056.684l.747.248c.017-.034.028-.052.035-.07a15.008 15.008 0 011.006-2.2.145.145 0 00-.041-.207c-.47-.465-.937-.934-1.4-1.4l-1.129-1.133zm3.23 1.662a21.107 21.107 0 013.074-3.486l-1.882-1.891a21.091 21.091 0 01-3.484 3.08zm1.695-6.522l2.517 2.536c.222-.216.464-.421.672-.657a1.469 1.469 0 00-.013-1.966 6.853 6.853 0 00-.536-.542 1.476 1.476 0 00-1.979-.039c-.24.211-.452.454-.661.668zm4.115 8.8a.545.545 0 01-.006 1.09.545.545 0 11.006-1.09zm-9.291-7.65a.545.545 0 11.532.556.548.548 0 01-.532-.556zm7.637 6.555a.54.54 0 01-.542-.541.545.545 0 11.542.541zm-10.363-7.638a.546.546 0 11.541-.544.544.544 0 01-.541.544zm9.279 10.911a.542.542 0 11.54-.548.545.545 0 01-.54.548zm-9.595 4.772a.6.6 0 01-.22.417q-1.211 1.207-2.418 2.418-.432.432-.862.866a.583.583 0 01-.959 0l-4.2-4.2c-.04-.039-.08-.078-.118-.119a.549.549 0 01.008-.816q1.681-1.687 3.368-3.37a.554.554 0 01.87.007l4.33 4.33a.607.607 0 01.201.467zm-1.359-.026l-3.612-3.613-2.626 2.61 3.62 3.627zm1.67-4.2a1.09 1.09 0 11-1.091-1.085 1.095 1.095 0 011.091 1.082z" transform="translate(-260 -277)"/></svg><view id="icon-7" viewBox="50 150 50 50"/><svg width="50" height="50" viewBox="-5 -5 50 50" x="50" y="150" xmlns="http://www.w3.org/2000/svg"><defs><linearGradient id="nlinear-gradient" x1="145" y1="391" x2="145" y2="351" gradientUnits="userSpaceOnUse"><stop offset="0" stop-color="#b69c59"/><stop offset=".522" stop-color="#fcf2c2"/><stop offset="1" stop-color="#c29b5c"/></linearGradient><style>.ncls-1{fill-rule:evenodd;fill:url(#nlinear-gradient)}</style></defs><path id="nicon-7" class="ncls-1" d="M145 351a20 20 0 1020 20 20 20 0 00-20-20zm-.032 38.532a18.5 18.5 0 1118.5-18.5 18.5 18.5 0 01-18.5 18.5zm-.5-19.892a6.9 6.9 0 01-2.959-.144 5.048 5.048 0 01-2.969-2.431 5.958 5.958 0 01-.593-4.709 4.74 4.74 0 013.514-3.386 7.14 7.14 0 012.451-.143 2.8 2.8 0 01.631.106.644.644 0 01.453.6.536.536 0 01-.358.55.813.813 0 01-.427.018 5.062 5.062 0 00-2.75.165 3.482 3.482 0 00-2.471 3.044 4.774 4.774 0 001.114 3.834 3.919 3.919 0 003.387 1.361 7.282 7.282 0 002.013-.435 5.813 5.813 0 01.594-.181.59.59 0 01.663.326.608.608 0 01-.226.743 4.442 4.442 0 01-.481.246.452.452 0 00-.312.386 8.086 8.086 0 00.046 1.275 1.081 1.081 0 00.76.837 4.616 4.616 0 001.665.182 7.257 7.257 0 001.907-.442c.734-.2 1.469-.4 2.213-.556a2.823 2.823 0 011.468.089 1.96 1.96 0 011.327 1.745 9.752 9.752 0 01-.186 2.416c-.009.044-.012.09-.026.191a1.2 1.2 0 00.118-.166 6.067 6.067 0 00.478-3.815 3.54 3.54 0 00-2.113-2.421 5.62 5.62 0 00-4.009-.261c-.084.022-.167.049-.252.067a.53.53 0 01-.643-.279.477.477 0 01.055-.611c.117-.154.253-.293.382-.439a2.984 2.984 0 00.584-3.264 2.44 2.44 0 00-2.159-1.478c-.628.031-1.256.052-1.884.085a.507.507 0 01-.571-.416.429.429 0 01.22-.578 3.719 3.719 0 01.924-.3 5 5 0 011.857.027 3.72 3.72 0 013.049 3.925 10.427 10.427 0 01-.249 1.5c-.031.157-.009.221.153.237.446.043.894.074 1.336.146a6.178 6.178 0 012.555 1 4.685 4.685 0 012.088 3.628 7.783 7.783 0 01-.587 3.532 2.2 2.2 0 01-.649.9 1.385 1.385 0 01-1.1.347 1.023 1.023 0 01-.892-1.242 80.64 80.64 0 00.3-2.021 3.5 3.5 0 000-.542.786.786 0 00-.78-.821 4.916 4.916 0 00-1.227.145c-.945.24-1.875.539-2.819.786a4.51 4.51 0 01-2.915-.143 2.443 2.443 0 01-1.656-2.335c-.01-.29-.032-.584-.047-.88zm8.636 8.373v3.694h-17.506a.26.26 0 01-.3-.172 4.872 4.872 0 01-.272-.871 5.862 5.862 0 01.044-1.878 1.292 1.292 0 01.1-.344.546.546 0 01.644-.436q8.5.009 17.009 0h.277zm1.867.022h1.421a.443.443 0 01.434.3 3.217 3.217 0 01.192.69 5.818 5.818 0 01-.051 1.974 1.819 1.819 0 01-.089.286.585.585 0 01-.595.415h-1.312v-3.667z" transform="translate(-125 -351)"/></svg><view id="icon-8" viewBox="100 150 50 50"/><svg width="50" height="50" viewBox="-5 -5 50 50" x="100" y="150" xmlns="http://www.w3.org/2000/svg"><defs><linearGradient id="olinear-gradient" x1="268" y1="396" x2="268" y2="356" gradientUnits="userSpaceOnUse"><stop offset="0" stop-color="#b69c59"/><stop offset=".522" stop-color="#fcf2c2"/><stop offset="1" stop-color="#c29b5c"/></linearGradient><style>.ocls-1{fill-rule:evenodd;fill:url(#olinear-gradient)}</style></defs><path id="oicon-8" class="ocls-1" d="M268 356a20 20 0 1020 20 20 20 0 00-20-20zm-.032 38.532a18.5 18.5 0 1118.5-18.5 18.5 18.5 0 01-18.5 18.5zm2.229-15.7a3.939 3.939 0 00.59.425 1.806 1.806 0 00.557.091 6.586 6.586 0 012.939.936 3.119 3.119 0 011.27 1.606 2.257 2.257 0 01-.585 2.383A6.819 6.819 0 01272.2 386a9.232 9.232 0 01-3.909.44 15.554 15.554 0 01-4.087-.861 4.061 4.061 0 01-2.47-2.051c-.1-.2-.166-.406-.253-.623a1.554 1.554 0 00-.645.659 1.88 1.88 0 01-1.082 1 .416.416 0 00-.22.269.937.937 0 01-1.022.94c-.1.214-.179.436-.3.638a.553.553 0 01-.554.3.618.618 0 01-.544-.395.55.55 0 01.241-.733.814.814 0 00.416-.631 1.363 1.363 0 01.876-.959.6.6 0 00.259-.25 2.183 2.183 0 01.9-1.069 2.714 2.714 0 01.579-.146.522.522 0 00.156-.07c.253-.171.507-.341.753-.52a.346.346 0 00.14-.188 3.566 3.566 0 012.226-2.713 14.79 14.79 0 011.681-.588.21.21 0 00.2-.244c-.012-.189 0-.38 0-.569-.075-.029-.14-.049-.2-.077a.433.433 0 01-.319-.488.41.41 0 000-.16 1.052 1.052 0 01.511-1.131.391.391 0 00.153-.326c.018-.3.069-.6.111-.939-.317-.18-.678-.392-1.046-.59a.264.264 0 01-.165-.287c.024-.281.031-.564.047-.881.365 0 .729-.006 1.092.007a.265.265 0 01.132.159c.16.4.313.794.468 1.192l.075.016a2.239 2.239 0 00.142-.506c.02-.457.013-.916 0-1.375a.384.384 0 00-.126-.258 1.976 1.976 0 01-.874-1.7.624.624 0 00-.467-.654 2.644 2.644 0 01-1.181-.8 3.625 3.625 0 01-.3-.584c.225-.018.375-.043.523-.039.573.015 1.147.024 1.718.067a.314.314 0 00.4-.271 1.537 1.537 0 01.091-.234 1.131 1.131 0 01-.354-1.848c-.239-.274-.5-.535-.713-.828a3.913 3.913 0 01-.385-.72.282.282 0 01.2-.413 3.279 3.279 0 01.666-.153 13.792 13.792 0 013.019-.053 6.007 6.007 0 011.087.25.356.356 0 01.228.576 3.367 3.367 0 01-.475.666c-.186.21-.409.387-.633.594a1.313 1.313 0 01-.372 1.945.767.767 0 00.781.472 14.076 14.076 0 011.6.08 4.1 4.1 0 01.5.1 4.3 4.3 0 01-.513.611 5.35 5.35 0 01-.893.59 1.163 1.163 0 00-.7.973 1.751 1.751 0 01-.9 1.433.244.244 0 00-.1.178c-.007.519-.023 1.04.009 1.558a1.237 1.237 0 00.305.43 20.981 20.981 0 001.592-2.543l.453.412c.722-.832 1.429-1.672 2.165-2.486a7.718 7.718 0 012.746-2.1 3.487 3.487 0 012.457-.21 2.269 2.269 0 011.46 1.616 5.524 5.524 0 01.13 2.361 9.309 9.309 0 01-1.821 4.583 6.827 6.827 0 01-5.207 2.853c-.816.062-1.633.087-2.458.127zm-.8-.823c1.022 0 2.031.035 3.036-.009a5.455 5.455 0 002.8-.828 7.9 7.9 0 003.69-6.663 3.381 3.381 0 00-.236-1.5 1.482 1.482 0 00-1.32-.947 2.835 2.835 0 00-1.213.18 6.382 6.382 0 00-2.494 1.776c-.8.854-1.554 1.742-2.33 2.618l.177.207-2.409 1.637c.031.364.068.688.081 1.013a.368.368 0 00.164.341.934.934 0 01.444.738 5.657 5.657 0 010 .664.292.292 0 01-.134.2c-.297.169-.3.164-.253.572zm2.2 2.29c.045.117.079.2.11.284a2 2 0 01-.936 2.567 3.864 3.864 0 01-.908.366 9.661 9.661 0 01-4.4.086 2.643 2.643 0 01-2.267-1.672c-.149.068-.287.129-.424.194-.657.315-.669.37-.354 1.03a3.077 3.077 0 001.564 1.414 11.732 11.732 0 005.868 1.138 6.661 6.661 0 003-.817 4.5 4.5 0 001.812-1.735 1.21 1.21 0 000-1.287 3.658 3.658 0 00-3.062-1.567zm-9.352 1.166c.3-.127.545-.228.787-.337a.237.237 0 00.127-.115c.1-.3.2-.613.3-.935a2.785 2.785 0 00-1.207 1.386z" transform="translate(-248 -356)"/></svg><view id="icon-9" viewBox="150 150 50 50"/><svg width="50" height="50" viewBox="-5 -5 50 50" x="150" y="150" xmlns="http://www.w3.org/2000/svg"><defs><linearGradient id="plinear-gradient" x1="157" y1="460" x2="157" y2="420" gradientUnits="userSpaceOnUse"><stop offset="0" stop-color="#b69c59"/><stop offset=".522" stop-color="#fcf2c2"/><stop offset="1" stop-color="#c29b5c"/></linearGradient><style>.pcls-1{fill-rule:evenodd;fill:url(#plinear-gradient)}</style></defs><path id="picon-9" class="pcls-1" d="M157 420a20 20 0 1020 20 20 20 0 00-20-20zm-.032 38.532a18.5 18.5 0 1118.5-18.5 18.5 18.5 0 01-18.5 18.5zm4.966-8.828l.217-8.333 3.025-.308a.638.638 0 01.013.113q-.126 2.97-.255 5.939c-.031.713-.062 1.426-.087 2.139a.149.149 0 01-.146.183c-.869.087-1.737.178-2.606.267-.047.005-.095-.004-.161-.004zm-13.242-8.642l3.036.309.217 8.326c-.117 0-.22.009-.321 0-.813-.084-1.626-.173-2.44-.258a.141.141 0 01-.151-.159q-.169-4.067-.345-8.134c-.001-.025.002-.046.004-.084zm6.4.453l.076 8.357-2.891-.119-.218-8.366zm6.51 8.237l-2.891.121.075-8.358 3.034-.128c-.073 2.786-.145 5.562-.22 8.365zm-3.221.12H155.5l-.076-8.346h3.035c-.027 2.774-.053 5.546-.078 8.346zm-9.67-.473c-.576-.15-1.111-.286-1.643-.432a1.912 1.912 0 01-.353-.157.458.458 0 01-.263-.426q-.2-3.7-.419-7.393c-.012-.214-.026-.429-.041-.668a7.844 7.844 0 002.356.671l.363 8.406zM165.53 441a7.9 7.9 0 002.337-.664c0 .132.007.256 0 .38l-.328 5.676c-.038.645-.085 1.289-.107 1.935a.5.5 0 01-.35.525c-.508.161-1.023.3-1.536.443a3.691 3.691 0 01-.377.067l.361-8.362zm-19.109 7.861a3.22 3.22 0 001.531.62 26.262 26.262 0 003.82.512c1.971.152 3.947.207 5.924.184 1.884-.021 3.766-.1 5.641-.3a17.261 17.261 0 003.283-.583 1.784 1.784 0 00.835-.447.517.517 0 01-.346.7 6.572 6.572 0 01-1.716.486 35.353 35.353 0 01-5.343.514c-1.772.045-3.546.061-5.318.033a38.768 38.768 0 01-6.046-.515c-.549-.1-1.087-.258-1.628-.4a1.458 1.458 0 01-.305-.13.508.508 0 01-.332-.678zm12.3-11.533a1.415 1.415 0 111.4-1.42 1.418 1.418 0 01-1.401 1.416zm9.221 2.108a1.318 1.318 0 00-.42-.257 60.681 60.681 0 00-11.126-1.006 2.235 2.235 0 11-.356-.016c-1.739.076-3.48.141-5.218.244a20.412 20.412 0 00-3.486.485 8.8 8.8 0 00-1.216.414.316.316 0 00-.237.4.578.578 0 00.579.275c.275-.087.55-.179.831-.242a30.612 30.612 0 014.663-.587 77.296 77.296 0 016.127-.15h.4c0-.011 3.177.229 4.218.29s2.042.184 2.924.258a7.163 7.163 0 011.7.4.549.549 0 00.615-.167.217.217 0 00.001-.345zm-12.1-5.057a1.129 1.129 0 111.129-1.136 1.12 1.12 0 01-1.13 1.132zm2.653-5.07a.885.885 0 01.867.89.877.877 0 01-1.754-.02.886.886 0 01.886-.874zm-3.792 7.246a.875.875 0 01-.883.868.894.894 0 01-.87-.89.877.877 0 01.891-.861.862.862 0 01.859.879zm3.45 3.727a.561.561 0 01-.574.572.574.574 0 01-.565-.586.58.58 0 01.563-.558.566.566 0 01.575.568zm-2.307-12.787a.56.56 0 01.551.593.568.568 0 01-.565.551.581.581 0 01-.574-.581.573.573 0 01.587-.567z" transform="translate(-137 -420)"/></svg></svg>